<svg width="181" height="68" viewBox="0 0 181 68" fill="none" xmlns="http://www.w3.org/2000/svg">
<path d="M12.1096 22.2569C10.6514 24.858 7.36073 25.7845 4.75965 24.3263C2.15857 22.8681 1.23208 19.5774 2.69029 16.9763C4.14849 14.3752 7.43919 13.4487 10.0403 14.9069C12.6413 16.3651 13.5678 19.6558 12.1096 22.2569Z" fill="white"/>
<path fill-rule="evenodd" clip-rule="evenodd" d="M5.08969 23.7376C7.36563 25.0135 10.245 24.2028 11.5209 21.9269C12.7968 19.6509 11.9862 16.7716 9.71023 15.4956C7.43429 14.2197 4.55492 15.0304 3.279 17.3063C2.00307 19.5823 2.81374 22.4616 5.08969 23.7376ZM4.75965 24.3263C7.36073 25.7845 10.6514 24.858 12.1096 22.2569C13.5678 19.6558 12.6413 16.3651 10.0403 14.9069C7.43919 13.4487 4.14849 14.3752 2.69029 16.9763C1.23208 19.5774 2.15857 22.8681 4.75965 24.3263Z" fill="white"/>
<path fill-rule="evenodd" clip-rule="evenodd" d="M55.9903 49L7 20.704L8.00973 19L57 47.296L55.9903 49Z" fill="white"/>
<path d="M61.53 50.7898C60.0718 53.3909 56.7811 54.3174 54.18 52.8592C51.5789 51.401 50.6525 48.1103 52.1107 45.5092C53.5689 42.9081 56.8596 41.9816 59.4606 43.4398C62.0617 44.898 62.9882 48.1887 61.53 50.7898Z" fill="white"/>
<path fill-rule="evenodd" clip-rule="evenodd" d="M54.5101 52.2704C56.786 53.5464 59.6654 52.7357 60.9413 50.4598C62.2172 48.1838 61.4066 45.3044 59.1306 44.0285C56.8547 42.7526 53.9753 43.5633 52.6994 45.8392C51.4234 48.1152 52.2341 50.9945 54.5101 52.2704ZM54.18 52.8592C56.7811 54.3174 60.0718 53.3909 61.53 50.7898C62.9882 48.1887 62.0617 44.898 59.4606 43.4398C56.8596 41.9816 53.5689 42.9081 52.1107 45.5092C50.6525 48.1103 51.5789 51.401 54.18 52.8592Z" fill="white"/>
<path d="M12.0414 45.3909C13.5649 47.9543 12.7219 51.2674 10.1585 52.7909C7.59511 54.3144 4.28204 53.4714 2.75854 50.908C1.23504 48.3446 2.07803 45.0316 4.64141 43.5081C7.20479 41.9846 10.5179 42.8276 12.0414 45.3909Z" fill="white"/>
<path fill-rule="evenodd" clip-rule="evenodd" d="M9.81368 52.2107C12.0566 50.8777 12.7943 47.9787 11.4612 45.7358C10.1281 43.4928 7.22919 42.7552 4.98623 44.0883C2.74327 45.4213 2.00565 48.3203 3.33872 50.5632C4.67178 52.8062 7.57072 53.5438 9.81368 52.2107ZM10.1585 52.7909C12.7219 51.2674 13.5649 47.9543 12.0414 45.3909C10.5179 42.8276 7.20479 41.9846 4.64141 43.5081C2.07803 45.0316 1.23504 48.3446 2.75854 50.908C4.28204 53.4714 7.59511 54.3144 10.1585 52.7909Z" fill="white"/>
<path d="M10.9875 31.1524C12.1301 33.0749 11.4979 35.5597 9.57535 36.7023C7.65282 37.845 5.16801 37.2127 4.02539 35.2902C2.88276 33.3677 3.51501 30.8829 5.43754 29.7402C7.36008 28.5976 9.84488 29.2298 10.9875 31.1524Z" fill="white"/>
<path fill-rule="evenodd" clip-rule="evenodd" d="M9.23053 36.1222C10.8326 35.17 11.3595 33.0993 10.4073 31.4972C9.45514 29.8951 7.38447 29.3682 5.78236 30.3204C4.18025 31.2726 3.65338 33.3433 4.60556 34.9454C5.55775 36.5475 7.62842 37.0744 9.23053 36.1222ZM9.57535 36.7023C11.4979 35.5597 12.1301 33.0749 10.9875 31.1524C9.84488 29.2298 7.36008 28.5976 5.43754 29.7402C3.51501 30.8829 2.88276 33.3677 4.02539 35.2902C5.16801 37.2127 7.65282 37.845 9.57535 36.7023Z" fill="white"/>
<path d="M23.1359 8.88034C24.2785 10.8029 23.6463 13.2877 21.7237 14.4303C19.8012 15.5729 17.3164 14.9407 16.1738 13.0182C15.0311 11.0956 15.6634 8.61081 17.5859 7.46819C19.5085 6.32556 21.9933 6.9578 23.1359 8.88034Z" fill="white"/>
<path fill-rule="evenodd" clip-rule="evenodd" d="M21.3789 13.8501C22.981 12.8979 23.5079 10.8273 22.5557 9.22516C21.6035 7.62304 19.5328 7.09618 17.9307 8.04836C16.3286 9.00055 15.8018 11.0712 16.7539 12.6733C17.7061 14.2754 19.7768 14.8023 21.3789 13.8501ZM21.7237 14.4303C23.6463 13.2877 24.2785 10.8029 23.1359 8.88034C21.9933 6.9578 19.5085 6.32556 17.5859 7.46819C15.6634 8.61081 15.0311 11.0956 16.1738 13.0182C17.3164 14.9407 19.8012 15.5729 21.7237 14.4303Z" fill="white"/>
<path d="M48.7825 55.4492C49.9251 57.3717 49.2929 59.8565 47.3703 60.9991C45.4478 62.1417 42.963 61.5095 41.8204 59.587C40.6777 57.6644 41.31 55.1796 43.2325 54.037C45.1551 52.8944 47.6399 53.5266 48.7825 55.4492Z" fill="white"/>
<path fill-rule="evenodd" clip-rule="evenodd" d="M47.0255 60.4189C48.6276 59.4668 49.1545 57.3961 48.2023 55.794C47.2501 54.1919 45.1795 53.665 43.5773 54.6172C41.9752 55.5694 41.4484 57.64 42.4005 59.2421C43.3527 60.8443 45.4234 61.3711 47.0255 60.4189ZM47.3703 60.9991C49.2929 59.8565 49.9251 57.3717 48.7825 55.4492C47.6399 53.5266 45.1551 52.8944 43.2325 54.037C41.31 55.1796 40.6777 57.6644 41.8204 59.587C42.963 61.5095 45.4478 62.1417 47.3703 60.9991Z" fill="white"/>
<path d="M61.4618 16.8581C62.9853 19.4214 62.1423 22.7345 59.5789 24.258C57.0155 25.7815 53.7025 24.9385 52.179 22.3751C50.6555 19.8118 51.4984 16.4987 54.0618 14.9752C56.6252 13.4517 59.9383 14.2947 61.4618 16.8581Z" fill="white"/>
<path fill-rule="evenodd" clip-rule="evenodd" d="M59.2341 23.6778C61.477 22.3448 62.2147 19.4458 60.8816 17.2029C59.5485 14.9599 56.6496 14.2223 54.4066 15.5554C52.1637 16.8884 51.4261 19.7874 52.7591 22.0303C54.0922 24.2733 56.9911 25.0109 59.2341 23.6778ZM59.5789 24.258C62.1423 22.7345 62.9853 19.4214 61.4618 16.8581C59.9383 14.2947 56.6252 13.4517 54.0618 14.9752C51.4984 16.4987 50.6555 19.8118 52.179 22.3751C53.7025 24.9385 57.0155 25.7815 59.5789 24.258Z" fill="white"/>
<path d="M32.327 28.4145C35.3087 28.3768 37.7564 30.7634 37.7941 33.7451C37.8318 36.7268 35.4452 39.1745 32.4635 39.2122C29.4818 39.2499 27.0341 36.8633 26.9964 33.8816C26.9587 30.8999 29.3453 28.4522 32.327 28.4145Z" fill="white"/>
<path fill-rule="evenodd" clip-rule="evenodd" d="M37.1193 33.7536C37.0863 31.1446 34.9445 29.0564 32.3355 29.0893C29.7265 29.1223 27.6383 31.2641 27.6713 33.8731C27.7042 36.4821 29.846 38.5703 32.455 38.5373C35.064 38.5044 37.1522 36.3626 37.1193 33.7536ZM37.7941 33.7451C37.7564 30.7634 35.3087 28.3768 32.327 28.4145C29.3453 28.4522 26.9587 30.8999 26.9964 33.8816C27.0341 36.8633 29.4818 39.2499 32.4635 39.2122C35.4452 39.1745 37.8318 36.7268 37.7941 33.7451Z" fill="white"/>
<path d="M32.327 57.134C35.3087 57.0963 37.7564 59.4829 37.7941 62.4646C37.8318 65.4463 35.4452 67.894 32.4635 67.9317C29.4818 67.9694 27.0341 65.5829 26.9964 62.6011C26.9587 59.6194 29.3453 57.1717 32.327 57.134Z" fill="white"/>
<path fill-rule="evenodd" clip-rule="evenodd" d="M37.1193 62.4732C37.0863 59.8642 34.9445 57.7759 32.3355 57.8089C29.7265 57.8419 27.6383 59.9836 27.6713 62.5926C27.7042 65.2016 29.846 67.2899 32.455 67.2569C35.064 67.2239 37.1522 65.0822 37.1193 62.4732ZM37.7941 62.4646C37.7564 59.4829 35.3087 57.0963 32.327 57.134C29.3453 57.1717 26.9587 59.6194 26.9964 62.6011C27.0341 65.5829 29.4818 67.9694 32.4635 67.9317C35.4452 67.894 37.8318 65.4463 37.7941 62.4646Z" fill="white"/>
<path d="M32.327 0.0682609C35.3087 0.0305617 37.7564 2.41715 37.7941 5.39885C37.8318 8.38056 35.4452 10.8283 32.4635 10.866C29.4818 10.9037 27.0341 8.51708 26.9964 5.53537C26.9587 2.55367 29.3453 0.10596 32.327 0.0682609Z" fill="white"/>
<path fill-rule="evenodd" clip-rule="evenodd" d="M37.1193 5.40738C37.0863 2.79839 34.9445 0.71013 32.3355 0.743117C29.7265 0.776104 27.6383 2.91785 27.6713 5.52684C27.7042 8.13583 29.846 10.2241 32.455 10.1911C35.064 10.1581 37.1522 8.01637 37.1193 5.40738ZM37.7941 5.39885C37.7564 2.41715 35.3087 0.0305617 32.327 0.0682609C29.3453 0.10596 26.9587 2.55367 26.9964 5.53537C27.0341 8.51708 29.4818 10.9037 32.4635 10.866C35.4452 10.8283 37.8318 8.38055 37.7941 5.39885Z" fill="white"/>
<path fill-rule="evenodd" clip-rule="evenodd" d="M31 10L33 10L33 58L31 58L31 10Z" fill="white"/>
<path fill-rule="evenodd" clip-rule="evenodd" d="M7 47.2696L56.0105 19L57 20.7304L7.98954 49L7 47.2696Z" fill="white"/>
<path fill-rule="evenodd" clip-rule="evenodd" d="M33 5.33794L19.6037 12L19 10.6621L32.3963 4L33 5.33794Z" fill="white"/>
<path fill-rule="evenodd" clip-rule="evenodd" d="M46 58.3149L32.5246 64L32 62.6851L45.4754 57L46 58.3149Z" fill="white"/>
<path d="M174.776 57.713H167.638L166.233 62.6789H161.398L169.19 38.895H173.355L181 62.6789H176.165L174.776 57.713ZM168.765 53.8089H173.698L171.264 45.0533L168.765 53.8089Z" fill="white"/>
<path d="M141.994 38.895H155.748V42.603H151.109V58.9872H155.748V62.6789H141.994V58.9872H146.519V42.603H141.994V38.895Z" fill="white"/>
<path d="M118.783 62.6789V38.895H124.942C126.042 38.895 127.071 39.0311 128.029 39.3034C128.987 39.5647 129.859 39.9404 130.643 40.4305C131.329 40.8334 131.939 41.3289 132.472 41.917C133.017 42.4941 133.49 43.1258 133.893 43.8118C134.362 44.6504 134.721 45.576 134.972 46.5888C135.233 47.6016 135.364 48.6797 135.364 49.8232V51.7834C135.364 52.8833 135.244 53.9233 135.004 54.9034C134.765 55.8835 134.427 56.7819 133.991 57.5987C133.578 58.3283 133.093 59.0035 132.538 59.6242C131.982 60.2341 131.372 60.7459 130.708 61.1597C129.935 61.6498 129.08 62.0255 128.143 62.2869C127.218 62.5482 126.227 62.6789 125.17 62.6789H118.783ZM123.406 42.6194V58.9872H125.17C125.737 58.9872 126.265 58.9164 126.755 58.7748C127.245 58.6332 127.692 58.4263 128.094 58.1541C128.508 57.8709 128.879 57.5116 129.205 57.076C129.543 56.6295 129.831 56.1122 130.071 55.5241C130.267 55.0123 130.414 54.446 130.512 53.8253C130.621 53.1937 130.675 52.513 130.675 51.7834V49.7905C130.675 49.1044 130.621 48.4565 130.512 47.8466C130.414 47.2259 130.267 46.6596 130.071 46.1478C129.831 45.5379 129.516 44.9934 129.124 44.5143C128.742 44.0351 128.296 43.6431 127.784 43.3381C127.392 43.1094 126.956 42.9352 126.477 42.8154C126.009 42.6847 125.497 42.6194 124.942 42.6194H123.406Z" fill="white"/>
<path d="M111.418 52.2571H101.65V58.9708H113.068V62.6789H97.0434V38.895H113.019V42.6357H101.65V48.6307H111.418V52.2571Z" fill="white"/>
<path d="M80.3181 38.895L82.5724 47.8303L85.137 38.895H90.838V62.6789H86.6235V55.6385L86.8195 44.5143L83.6995 54.8381H81.4289L78.6356 44.9553L78.8316 55.6385V62.6789H74.6172V38.895H80.3181Z" fill="white"/>
<path d="M149.034 13.9676L153.265 5.44065H158.656L151.958 17.2346L158.819 29.2246H153.461L149.099 20.567L144.754 29.2246H139.331L146.192 17.2346L139.511 5.44065H144.869L149.034 13.9676Z" fill="white"/>
<path d="M133.518 18.8028H123.749V25.5165H135.168V29.2246H119.143V5.44065H135.119V9.18139H123.749V15.1764H133.518V18.8028Z" fill="white"/>
<path d="M101.666 20.5016V29.2246H97.076V5.44065H105.211C106.507 5.44065 107.678 5.63123 108.723 6.01238C109.768 6.38264 110.661 6.89992 111.402 7.56421C112.132 8.2394 112.692 9.04527 113.084 9.98181C113.487 10.9184 113.689 11.9584 113.689 13.1018C113.689 14.169 113.487 15.1546 113.084 16.0585C112.692 16.9624 112.132 17.741 111.402 18.3944C110.661 19.0587 109.768 19.576 108.723 19.9462C107.678 20.3165 106.507 20.5016 105.211 20.5016H101.666ZM101.666 16.7772H105.211C105.864 16.7772 106.431 16.6792 106.91 16.4832C107.389 16.2872 107.792 16.0204 108.119 15.6828C108.434 15.3452 108.669 14.9586 108.821 14.523C108.984 14.0765 109.066 13.6137 109.066 13.1345C109.066 12.5791 108.984 12.0618 108.821 11.5827C108.669 11.1035 108.434 10.6842 108.119 10.3249C107.792 9.96548 107.389 9.68234 106.91 9.47542C106.431 9.26851 105.864 9.16506 105.211 9.16506H101.666V16.7772Z" fill="white"/>
<path d="M86.3785 24.2587H79.24L77.8352 29.2246H73L80.7919 5.44065H84.9573L92.6021 29.2246H87.767L86.3785 24.2587ZM80.3671 20.3546H85.3003L82.8664 11.599L80.3671 20.3546Z" fill="white"/>
</svg>
