<?xml version="1.0" encoding="UTF-8"?>
<svg id="Layer_1" xmlns="http://www.w3.org/2000/svg" viewBox="0 0 60.22 67.86">
  <defs>
    <style>
      .cls-1, .cls-2 {
        fill: #fff;
      }

      .cls-2 {
        fill-rule: evenodd;
      }
    </style>
  </defs>
  <path class="cls-1" d="M10.11,22.19c-1.46,2.6-4.75,3.53-7.35,2.07-2.6-1.46-3.53-4.75-2.07-7.35,1.46-2.6,4.75-3.53,7.35-2.07,2.6,1.46,3.53,4.75,2.07,7.35Z"/>
  <path class="cls-2" d="M3.09,23.67c2.28,1.28,5.16.47,6.43-1.81,1.28-2.28.47-5.16-1.81-6.43-2.28-1.28-5.16-.47-6.43,1.81-1.28,2.28-.47,5.16,1.81,6.43ZM2.76,24.26c2.6,1.46,5.89.53,7.35-2.07,1.46-2.6.53-5.89-2.07-7.35-2.6-1.46-5.89-.53-7.35,2.07-1.46,2.6-.53,5.89,2.07,7.35Z"/>
  <path class="cls-2" d="M53.99,48.93L5,20.64l1.01-1.7,48.99,28.3-1.01,1.7Z"/>
  <path class="cls-1" d="M59.53,50.72c-1.46,2.6-4.75,3.53-7.35,2.07-2.6-1.46-3.53-4.75-2.07-7.35,1.46-2.6,4.75-3.53,7.35-2.07,2.6,1.46,3.53,4.75,2.07,7.35Z"/>
  <path class="cls-2" d="M52.51,52.2c2.28,1.28,5.16.47,6.43-1.81,1.28-2.28.47-5.16-1.81-6.43-2.28-1.28-5.16-.47-6.43,1.81-1.28,2.28-.47,5.16,1.81,6.43ZM52.18,52.79c2.6,1.46,5.89.53,7.35-2.07,1.46-2.6.53-5.89-2.07-7.35-2.6-1.46-5.89-.53-7.35,2.07-1.46,2.6-.53,5.89,2.07,7.35Z"/>
  <path class="cls-1" d="M10.04,45.32c1.52,2.56.68,5.88-1.88,7.4-2.56,1.52-5.88.68-7.4-1.88-1.52-2.56-.68-5.88,1.88-7.4,2.56-1.52,5.88-.68,7.4,1.88Z"/>
  <path class="cls-2" d="M7.81,52.14c2.24-1.33,2.98-4.23,1.65-6.47-1.33-2.24-4.23-2.98-6.47-1.65-2.24,1.33-2.98,4.23-1.65,6.47,1.33,2.24,4.23,2.98,6.47,1.65ZM8.16,52.72c2.56-1.52,3.41-4.84,1.88-7.4-1.52-2.56-4.84-3.41-7.4-1.88-2.56,1.52-3.41,4.84-1.88,7.4,1.52,2.56,4.84,3.41,7.4,1.88Z"/>
  <path class="cls-1" d="M8.99,31.08c1.14,1.92.51,4.41-1.41,5.55-1.92,1.14-4.41.51-5.55-1.41-1.14-1.92-.51-4.41,1.41-5.55,1.92-1.14,4.41-.51,5.55,1.41Z"/>
  <path class="cls-2" d="M7.23,36.05c1.6-.95,2.13-3.02,1.18-4.62-.95-1.6-3.02-2.13-4.62-1.18s-2.13,3.02-1.18,4.62c.95,1.6,3.02,2.13,4.62,1.18ZM7.58,36.63c1.92-1.14,2.55-3.63,1.41-5.55-1.14-1.92-3.63-2.55-5.55-1.41-1.92,1.14-2.55,3.63-1.41,5.55,1.14,1.92,3.63,2.55,5.55,1.41Z"/>
  <path class="cls-1" d="M21.14,8.81c1.14,1.92.51,4.41-1.41,5.55-1.92,1.14-4.41.51-5.55-1.41-1.14-1.92-.51-4.41,1.41-5.55,1.92-1.14,4.41-.51,5.55,1.41Z"/>
  <path class="cls-2" d="M19.38,13.78c1.6-.95,2.13-3.02,1.18-4.62-.95-1.6-3.02-2.13-4.62-1.18-1.6.95-2.13,3.02-1.18,4.62.95,1.6,3.02,2.13,4.62,1.18ZM19.72,14.36c1.92-1.14,2.55-3.63,1.41-5.55-1.14-1.92-3.63-2.55-5.55-1.41-1.92,1.14-2.55,3.63-1.41,5.55,1.14,1.92,3.63,2.55,5.55,1.41Z"/>
  <path class="cls-1" d="M46.78,55.38c1.14,1.92.51,4.41-1.41,5.55-1.92,1.14-4.41.51-5.55-1.41-1.14-1.92-.51-4.41,1.41-5.55,1.92-1.14,4.41-.51,5.55,1.41Z"/>
  <path class="cls-2" d="M45.03,60.35c1.6-.95,2.13-3.02,1.18-4.62-.95-1.6-3.02-2.13-4.62-1.18-1.6.95-2.13,3.02-1.18,4.62.95,1.6,3.02,2.13,4.62,1.18ZM45.37,60.93c1.92-1.14,2.55-3.63,1.41-5.55-1.14-1.92-3.63-2.55-5.55-1.41-1.92,1.14-2.55,3.63-1.41,5.55,1.14,1.92,3.63,2.55,5.55,1.41Z"/>
  <path class="cls-1" d="M59.46,16.79c1.52,2.56.68,5.88-1.88,7.4-2.56,1.52-5.88.68-7.4-1.88-1.52-2.56-.68-5.88,1.88-7.4,2.56-1.52,5.88-.68,7.4,1.88Z"/>
  <path class="cls-2" d="M57.23,23.61c2.24-1.33,2.98-4.23,1.65-6.47-1.33-2.24-4.23-2.98-6.47-1.65-2.24,1.33-2.98,4.23-1.65,6.47,1.33,2.24,4.23,2.98,6.47,1.65ZM57.58,24.19c2.56-1.52,3.41-4.84,1.88-7.4-1.52-2.56-4.84-3.41-7.4-1.88-2.56,1.52-3.41,4.84-1.88,7.4,1.52,2.56,4.84,3.41,7.4,1.88Z"/>
  <path class="cls-1" d="M30.33,28.35c2.98-.04,5.43,2.35,5.47,5.33.04,2.98-2.35,5.43-5.33,5.47s-5.43-2.35-5.47-5.33c-.04-2.98,2.35-5.43,5.33-5.47Z"/>
  <path class="cls-2" d="M35.12,33.69c-.03-2.61-2.17-4.7-4.78-4.66-2.61.03-4.7,2.17-4.66,4.78.03,2.61,2.17,4.7,4.78,4.66,2.61-.03,4.7-2.17,4.66-4.78ZM35.79,33.68c-.04-2.98-2.49-5.37-5.47-5.33-2.98.04-5.37,2.49-5.33,5.47.04,2.98,2.49,5.37,5.47,5.33s5.37-2.49,5.33-5.47Z"/>
  <path class="cls-1" d="M30.33,57.07c2.98-.04,5.43,2.35,5.47,5.33.04,2.98-2.35,5.43-5.33,5.47-2.98.04-5.43-2.35-5.47-5.33-.04-2.98,2.35-5.43,5.33-5.47Z"/>
  <path class="cls-2" d="M35.12,62.41c-.03-2.61-2.17-4.7-4.78-4.66-2.61.03-4.7,2.17-4.66,4.78.03,2.61,2.17,4.7,4.78,4.66,2.61-.03,4.7-2.17,4.66-4.78ZM35.79,62.4c-.04-2.98-2.49-5.37-5.47-5.33-2.98.04-5.37,2.49-5.33,5.47.04,2.98,2.49,5.37,5.47,5.33,2.98-.04,5.37-2.49,5.33-5.47Z"/>
  <path class="cls-1" d="M30.33,0c2.98-.04,5.43,2.35,5.47,5.33.04,2.98-2.35,5.43-5.33,5.47s-5.43-2.35-5.47-5.33C24.96,2.49,27.35.04,30.33,0Z"/>
  <path class="cls-2" d="M35.12,5.34c-.03-2.61-2.17-4.7-4.78-4.66-2.61.03-4.7,2.17-4.66,4.78.03,2.61,2.17,4.7,4.78,4.66,2.61-.03,4.7-2.17,4.66-4.78ZM35.79,5.33C35.76,2.35,33.31-.04,30.33,0c-2.98.04-5.37,2.49-5.33,5.47.04,2.98,2.49,5.37,5.47,5.33s5.37-2.49,5.33-5.47Z"/>
  <path class="cls-2" d="M29,9.93h2v48h-2V9.93Z"/>
  <path class="cls-2" d="M5,47.2l49.01-28.27.99,1.73L5.99,48.93l-.99-1.73Z"/>
  <path class="cls-2" d="M31,5.27l-13.4,6.66-.6-1.34,13.4-6.66.6,1.34Z"/>
  <path class="cls-2" d="M44,58.25l-13.48,5.69-.52-1.31,13.48-5.69.52,1.31Z"/>
</svg>