<?xml version="1.0" encoding="UTF-8"?>
<svg version="1.1" xmlns="http://www.w3.org/2000/svg" width="512" height="512">
<path d="M0 0 C168.96 0 337.92 0 512 0 C512 168.96 512 337.92 512 512 C343.04 512 174.08 512 0 512 C0 343.04 0 174.08 0 0 Z " fill="#FEFEFE" transform="translate(0,0)"/>
<path d="M0 0 C3.07225872 1.08842896 6.20568905 1.92344285 9.34715271 2.78730774 C12.72188204 3.71784738 16.0817166 4.69706361 19.44302368 5.67477417 C22.04106232 6.42968535 24.64099941 7.1777993 27.24111938 7.92550659 C28.89683385 8.40492558 30.55243732 8.88472807 32.20791626 9.36495972 C32.98376572 9.58786179 33.75961517 9.81076385 34.55897522 10.04042053 C39.94067831 11.61334677 39.94067831 11.61334677 41.05557251 12.72824097 C41.15093493 15.8943676 41.18107887 19.03864724 41.1690979 22.20504761 C41.16924393 23.20005783 41.16938995 24.19506805 41.16954041 25.2202301 C41.16884082 28.52630759 41.1610463 31.83232951 41.15322876 35.13839722 C41.15136474 37.4238329 41.14994076 39.70926898 41.14894104 41.9947052 C41.14511458 48.02322484 41.13528321 54.05172056 41.12423706 60.08023071 C41.11402568 66.22656938 41.10944401 72.3729119 41.10440063 78.51925659 C41.09366105 90.58892859 41.07658311 102.65858279 41.05557251 114.72824097 C32.06401366 118.12301205 22.97885807 121.15649755 13.83023071 124.10079956 C11.77379759 124.7685508 9.72099522 125.44758977 7.67202759 126.13790894 C4.68727768 127.14184198 1.6921239 128.10639878 -1.30770874 129.06417847 C-2.66138298 129.53263687 -2.66138298 129.53263687 -4.04240417 130.01055908 C-21.77845176 135.50481433 -57.46696149 116.95919529 -66.94442749 113.72824097 C-66.94442749 80.06824097 -66.94442749 46.40824097 -66.94442749 11.72824097 C-59.05173292 8.34565758 -59.05173292 8.34565758 -55.18099976 7.22262573 C-53.87782555 6.84322594 -53.87782555 6.84322594 -52.54832458 6.4561615 C-48.58440102 5.33770671 -44.61605207 4.23694175 -40.64193726 3.15524292 C-38.56363373 2.58213547 -36.48956928 1.99341133 -34.42025757 1.38864136 C-21.92774941 -2.25654354 -12.4356973 -4.60148497 0 0 Z " fill="#242431" transform="translate(268.9444274902344,189.27175903320313)"/>
<path d="M0 0 C9.0020128 1.1252516 9.0020128 1.1252516 12.91552734 2.36694336 C13.7893808 2.64070297 14.66323425 2.91446259 15.56356812 3.19651794 C16.93589096 3.63871422 16.93589096 3.63871422 18.3359375 4.08984375 C19.29650055 4.39443008 20.2570636 4.69901642 21.24673462 5.01283264 C23.26307438 5.65414164 25.27831065 6.2989295 27.29248047 6.94702148 C30.38330394 7.94016823 33.47840279 8.91902594 36.57421875 9.89648438 C38.53672809 10.52259258 40.49897729 11.1495169 42.4609375 11.77734375 C43.38796478 12.07011703 44.31499207 12.36289032 45.27011108 12.66453552 C46.55252182 13.07990318 46.55252182 13.07990318 47.86083984 13.50366211 C48.61392426 13.74491318 49.36700867 13.98616425 50.14291382 14.23472595 C52 15 52 15 54 17 C54.24961156 19.63430024 54.37436365 22.16885395 54.4140625 24.80859375 C54.4431797 26.02974884 54.4431797 26.02974884 54.47288513 27.27557373 C54.53406956 29.99610664 54.57998715 32.71665471 54.625 35.4375 C54.66309251 37.33569814 54.70142695 39.23389144 54.73999023 41.13208008 C55.17878149 64.418353 55.09241159 87.71085797 55 111 C54.34 111 53.68 111 53 111 C52.34 111.66 51.68 112.32 51 113 C44.25379116 114.55490744 39.65854265 113.36771279 33.25 111.03515625 C32.35128174 110.72299667 31.45256348 110.4108371 30.52661133 110.08921814 C27.67862516 109.09597212 24.83950567 108.07970464 22 107.0625 C20.06173836 106.38192242 18.12294063 105.70286957 16.18359375 105.02539062 C11.44934342 103.36783975 6.72290091 101.68960385 2 100 C2 99.34 2 98.68 2 98 C1.34 98 0.68 98 0 98 C0 65.66 0 33.32 0 0 Z " fill="#272736" transform="translate(203,204)"/>
<path d="M0 0 C0.99 5.445 0.99 5.445 2 11 C0.42025391 11.32871094 0.42025391 11.32871094 -1.19140625 11.6640625 C-21.53914765 16.06434474 -38.23852418 24.04478436 -54 38 C-54.70769531 38.62390625 -55.41539062 39.2478125 -56.14453125 39.890625 C-75.25051166 57.82838964 -84.57717891 83.88129358 -85.38793945 109.52758789 C-85.78332372 134.238131 -78.03504675 157.04686366 -62 176 C-61.06607422 177.175625 -61.06607422 177.175625 -60.11328125 178.375 C-44.80147492 196.8647284 -21.89777413 206.84800082 1 212 C0.67 215.63 0.34 219.26 0 223 C-28.75017011 219.63959051 -55.50878605 202.93196606 -73.68505859 180.72119141 C-92.3884039 156.23946389 -99.69264112 126.18538663 -96.78173828 95.71533203 C-96.18701707 91.38296049 -95.17303531 87.20772988 -94 83 C-93.67128906 81.79601562 -93.34257812 80.59203125 -93.00390625 79.3515625 C-84.22416604 50.36930588 -63.92968235 26.1038424 -37.30786133 11.84179688 C-26.1950276 6.10929877 -12.69764441 0 0 0 Z " fill="#C790A0" transform="translate(240,140)"/>
<path d="M0 0 C0 16.17 0 32.34 0 49 C-14 55 -14 55 -19 56 C-21.14589423 57.89586384 -21.14589423 57.89586384 -23 60 C-23.99 60.66 -24.98 61.32 -26 62 C-27.485 61.505 -27.485 61.505 -29 61 C-28.67 60.34 -28.34 59.68 -28 59 C-29.98 59.99 -31.96 60.98 -34 62 C-34 57.05 -34 52.1 -34 47 C-35.32 47 -36.64 47 -38 47 C-38 50.96 -38 54.92 -38 59 C-39.98 59 -41.96 59 -44 59 C-44 75.5 -44 92 -44 109 C-45.98 109.495 -45.98 109.495 -48 110 C-48 77.99 -48 45.98 -48 13 C-25.6771789 5.95068807 -25.6771789 5.95068807 -15.5625 3.125 C-14.48935547 2.81820312 -13.41621094 2.51140625 -12.31054688 2.1953125 C-11.28123047 1.9065625 -10.25191406 1.6178125 -9.19140625 1.3203125 C-8.28592041 1.06523926 -7.38043457 0.81016602 -6.44750977 0.54736328 C-4 0 -4 0 0 0 Z " fill="#62637A" transform="translate(306,206)"/>
<path d="M0 0 C1.32 0 2.64 0 4 0 C5.20568053 4.67201205 5.09382426 9.21496292 5 14 C7.31 12.68 9.62 11.36 12 10 C11.34 11.32 10.68 12.64 10 14 C10.763125 13.690625 11.52625 13.38125 12.3125 13.0625 C14.18789677 12.32106407 16.08684652 11.63771783 18 11 C18.33 10.01 18.66 9.02 19 8 C21.73046875 6.90234375 21.73046875 6.90234375 25.1875 5.9375 C26.31542969 5.61652344 27.44335938 5.29554688 28.60546875 4.96484375 C29.72566406 4.64644531 30.84585938 4.32804687 32 4 C33.98 3.34 35.96 2.68 38 2 C38 17.51 38 33.02 38 49 C31.11125 51.145 24.2225 53.29 17.125 55.5 C14.9505127 56.17869141 12.77602539 56.85738281 10.53564453 57.55664062 C8.81810345 58.09006788 7.10049724 58.62328551 5.3828125 59.15625 C4.48618896 59.43694336 3.58956543 59.71763672 2.66577148 60.00683594 C1.81329834 60.27077148 0.9608252 60.53470703 0.08251953 60.80664062 C-0.65916473 61.03758423 -1.400849 61.26852783 -2.16500854 61.50646973 C-4 62 -4 62 -6 62 C-6 45.5 -6 29 -6 12 C-4.02 12 -2.04 12 0 12 C0 8.04 0 4.08 0 0 Z " fill="#494A66" transform="translate(268,253)"/>
<path d="M0 0 C3.63 0.33 7.26 0.66 11 1 C6.11824401 31.56058627 -8.4384442 58.47676122 -33.61376953 77.20019531 C-48.84177925 87.97502427 -66.39287336 95.72256523 -85 98 C-85.33 94.37 -85.66 90.74 -86 87 C-84.23849609 86.5978125 -84.23849609 86.5978125 -82.44140625 86.1875 C-54.96937284 79.62272449 -30.87247811 65.15972577 -15.29052734 41.10693359 C-7.38113472 28.19394487 -3.09127179 14.74179359 0 0 Z " fill="#674899" transform="translate(357,265)"/>
<path d="M0 0 C14.84538198 1.57400813 28.03985179 6.74532932 41 14 C41.99773437 14.55558594 42.99546875 15.11117187 44.0234375 15.68359375 C51.57023372 20.19220983 57.70934361 25.9302234 64 32 C64.7321875 32.66902344 65.464375 33.33804688 66.21875 34.02734375 C81.73721717 48.59130203 93.11210729 71.95489682 96 93 C92.37 93.33 88.74 93.66 85 94 C83.87921064 90.69497462 82.80835126 87.38227727 81.80859375 84.0390625 C73.30785529 56.25654528 55.77032114 34.77635323 30 21 C20.13611258 16.10811268 9.69531239 13.38922879 -1 11 C-0.67 7.37 -0.34 3.74 0 0 Z " fill="#A273A3" transform="translate(272,140)"/>
<path d="M0 0 C1.24607277 0.36411232 1.24607277 0.36411232 2.51731873 0.73558044 C5.13736422 1.5029098 7.7542125 2.28054986 10.37109375 3.05859375 C12.16060505 3.58467281 13.950317 4.11006983 15.74023438 4.63476562 C20.09871146 5.91400909 24.4543551 7.2025007 28.80859375 8.49609375 C28.80859375 9.15609375 28.80859375 9.81609375 28.80859375 10.49609375 C22.96047686 12.2413393 17.10731048 13.96801702 11.2487793 15.67797852 C9.25803907 16.2618146 7.26875179 16.85062948 5.28100586 17.44458008 C2.4176113 18.29922849 -0.45059286 19.13562277 -3.3203125 19.96875 C-4.20288223 20.23639664 -5.08545197 20.50404327 -5.99476624 20.77980042 C-14.46359033 23.201748 -20.96025908 21.44070033 -29.15234375 18.84375 C-29.98351715 18.58355576 -30.81469055 18.32336151 -31.67105103 18.05528259 C-33.41487568 17.50748508 -35.1578164 16.95686645 -36.89990234 16.40356445 C-39.57614069 15.55550907 -42.25654052 14.72166504 -44.9375 13.88867188 C-46.63438319 13.35371585 -48.3310075 12.81793782 -50.02734375 12.28125 C-50.8314267 12.03222427 -51.63550964 11.78319855 -52.46395874 11.52662659 C-54.39265827 10.90768648 -56.29546354 10.20909444 -58.19140625 9.49609375 C-58.52140625 8.83609375 -58.85140625 8.17609375 -59.19140625 7.49609375 C-53.522787 5.89041177 -47.84871525 4.30635202 -42.16870117 2.74145508 C-40.2399988 2.20689807 -38.31287307 1.66661636 -36.38745117 1.12036133 C-33.60867549 0.33310146 -30.82475292 -0.4329326 -28.0390625 -1.1953125 C-27.18868912 -1.44108536 -26.33831573 -1.68685822 -25.46217346 -1.94007874 C-16.35321393 -4.38681033 -8.8653013 -2.65986912 0 0 Z " fill="#646777" transform="translate(271.19140625,193.50390625)"/>
<path d="M0 0 C9.32029733 2.37010096 18.44294683 5.32329085 27.58300781 8.29833984 C30.15295372 9.1340906 32.72482142 9.9637301 35.296875 10.79296875 C36.9298051 11.3225542 38.56262196 11.85248896 40.1953125 12.3828125 C40.96497345 12.6307254 41.7346344 12.87863831 42.52761841 13.13406372 C47.88518206 14.88518206 47.88518206 14.88518206 49 16 C49.08713831 17.70772358 49.10700007 19.41898649 49.09765625 21.12890625 C49.09443359 22.16337891 49.09121094 23.19785156 49.08789062 24.26367188 C49.07532227 25.8965918 49.07532227 25.8965918 49.0625 27.5625 C49.05798828 28.65498047 49.05347656 29.74746094 49.04882812 30.87304688 C49.03699826 33.58208495 49.02051543 36.29101599 49 39 C41.6171875 36.5390625 34.234375 34.078125 26.8515625 31.6171875 C25.65581604 31.21868591 25.65581604 31.21868591 24.43591309 30.81213379 C22.84927552 30.28314651 21.26276726 29.75377121 19.6763916 29.22399902 C16.18234074 28.05759586 12.68729908 26.89505064 9.18554688 25.75195312 C8.09822266 25.39552734 7.01089844 25.03910156 5.890625 24.671875 C4.95766602 24.36862305 4.02470703 24.06537109 3.06347656 23.75292969 C1 23 1 23 0 22 C-0.08700342 20.36527118 -0.10701063 18.72685945 -0.09765625 17.08984375 C-0.09443359 16.10048828 -0.09121094 15.11113281 -0.08789062 14.09179688 C-0.07951172 13.05087891 -0.07113281 12.00996094 -0.0625 10.9375 C-0.05798828 9.89271484 -0.05347656 8.84792969 -0.04882812 7.77148438 C-0.03699913 5.1809334 -0.02051689 2.59049441 0 0 Z " fill="#9C9BB1" transform="translate(206,278)"/>
<path d="M0 0 C5.73465838 0.62635016 10.89719179 2.09377449 16.36328125 3.90625 C17.23647507 4.19101196 18.10966888 4.47577393 19.00932312 4.76916504 C20.84311671 5.36831831 22.67601667 5.97021291 24.50805664 6.57470703 C27.31925632 7.50222917 30.13297078 8.42176063 32.94726562 9.33984375 C34.73192093 9.92402081 36.5164314 10.5086406 38.30078125 11.09375 C39.14345047 11.36981079 39.98611969 11.64587158 40.85432434 11.93029785 C41.63240952 12.1872644 42.41049469 12.44423096 43.2121582 12.70898438 C44.23971977 13.04754456 44.23971977 13.04754456 45.28804016 13.39294434 C47 14 47 14 49 15 C49 22.26 49 29.52 49 37 C39.38452939 34.77685967 30.11123903 31.84805351 20.76879883 28.70166016 C18.2807148 27.86430279 15.78997628 27.03522299 13.29882812 26.20703125 C11.71598566 25.67756194 10.13329731 25.14763159 8.55078125 24.6171875 C7.80613113 24.3692746 7.06148102 24.12136169 6.29426575 23.86593628 C1.11557821 22.11557821 1.11557821 22.11557821 0 21 C-0.08685603 19.43827255 -0.10702219 17.87270656 -0.09765625 16.30859375 C-0.09443359 15.36435547 -0.09121094 14.42011719 -0.08789062 13.44726562 C-0.07951172 12.45404297 -0.07113281 11.46082031 -0.0625 10.4375 C-0.05798828 9.44041016 -0.05347656 8.44332031 -0.04882812 7.41601562 C-0.03700007 4.94395151 -0.02051849 2.47200482 0 0 Z " fill="#A9A9BB" transform="translate(206,253)"/>
<path d="M0 0 C9.31234295 2.41681496 18.4382814 5.32177227 27.58300781 8.29833984 C30.15295372 9.1340906 32.72482142 9.9637301 35.296875 10.79296875 C36.9298051 11.3225542 38.56262196 11.85248896 40.1953125 12.3828125 C40.96497345 12.6307254 41.7346344 12.87863831 42.52761841 13.13406372 C47.88518206 14.88518206 47.88518206 14.88518206 49 16 C49.08669432 17.4887186 49.10703494 18.981445 49.09765625 20.47265625 C49.09443359 21.37177734 49.09121094 22.27089844 49.08789062 23.19726562 C49.07532227 24.61555664 49.07532227 24.61555664 49.0625 26.0625 C49.05798828 27.01189453 49.05347656 27.96128906 49.04882812 28.93945312 C49.03700109 31.29303369 49.01968094 33.64647581 49 36 C42.83848722 34.73043481 36.86889395 33.13096875 30.87890625 31.21484375 C30.05293442 30.95369278 29.22696259 30.69254181 28.3759613 30.42347717 C26.64858414 29.87649912 24.92178687 29.32768659 23.19555664 28.77709961 C20.54643218 27.93237647 17.89545816 27.09367083 15.24414062 26.25585938 C13.55978566 25.72170146 11.87553693 25.18720841 10.19140625 24.65234375 C9.00243492 24.27576881 9.00243492 24.27576881 7.78944397 23.8915863 C2.23293012 22.11646506 2.23293012 22.11646506 0 21 C0 14.07 0 7.14 0 0 Z " fill="#ADADBD" transform="translate(206,228)"/>
<path d="M0 0 C10.34592717 2.69770288 20.50215152 5.94726764 30.6875 9.1875 C32.46803502 9.75215478 34.24863349 10.31660952 36.02929688 10.88085938 C40.35372146 12.2512331 44.67681388 13.62569983 49 15 C49 21.93 49 28.86 49 36 C38.65407283 33.30229712 28.49784848 30.05273236 18.3125 26.8125 C16.53196498 26.24784522 14.75136651 25.68339048 12.97070312 25.11914062 C8.64627854 23.7487669 4.32318612 22.37430017 0 21 C0 14.07 0 7.14 0 0 Z " fill="#AEB0BD" transform="translate(206,204)"/>
<path d="M0 0 C0.82880173 0.26160919 1.65760345 0.52321838 2.51152039 0.79275513 C4.25180685 1.34449447 5.99054807 1.90112935 7.7277832 2.46240234 C10.39218406 3.32207589 13.06170588 4.16408312 15.73242188 5.00390625 C17.42611001 5.54323951 19.11948123 6.0835692 20.8125 6.625 C22.01088249 7.00324417 22.01088249 7.00324417 23.23347473 7.38912964 C28.84286418 9.21395793 28.84286418 9.21395793 31.07421875 11.4453125 C29.22726022 12.15194852 27.3711774 12.83475692 25.51171875 13.5078125 C24.47917969 13.89066406 23.44664062 14.27351563 22.3828125 14.66796875 C15.75819949 16.22440085 9.42447002 13.79366142 3.11328125 11.79296875 C2.28210785 11.53277451 1.45093445 11.27258026 0.59457397 11.00450134 C-1.14925068 10.45670383 -2.8921914 9.9060852 -4.63427734 9.3527832 C-7.31051569 8.50472782 -9.99091552 7.67088379 -12.671875 6.83789062 C-14.36875819 6.3029346 -16.0653825 5.76715657 -17.76171875 5.23046875 C-18.96784317 4.85693016 -18.96784317 4.85693016 -20.19833374 4.47584534 C-22.12703327 3.85690523 -24.02983854 3.15831319 -25.92578125 2.4453125 C-26.25578125 1.7853125 -26.58578125 1.1253125 -26.92578125 0.4453125 C-25.24176199 -0.06628829 -23.55332903 -0.56336809 -21.86328125 -1.0546875 C-20.92355469 -1.333125 -19.98382813 -1.6115625 -19.015625 -1.8984375 C-12.09186258 -3.36897111 -6.5582655 -2.13019812 0 0 Z " fill="#797B8C" transform="translate(238.92578125,200.5546875)"/>
<path d="M0 0 C1.32 0 2.64 0 4 0 C4 8.58 4 17.16 4 26 C2.35 25.67 0.7 25.34 -1 25 C-1.33 25.33 -1.66 25.66 -2 26 C-9.09901455 26.69826373 -9.09901455 26.69826373 -12.5 24.0625 C-14.51870888 19.94096936 -14.82588588 16.50866273 -14 12 C-11.94222047 8.83418534 -10.60926099 8.17770112 -7 7.125 C-4 7 -4 7 0 9 C0 6.03 0 3.06 0 0 Z " fill="#191920" transform="translate(189,399)"/>
<path d="M0 0 C2.80915461 1.27688846 4.50106764 2.31099817 6.3125 4.8125 C7.24084633 7.76632924 7.37765935 9.915782 7 13 C5.20006226 15.69990662 3.916227 17.5418865 1 19 C-3.45604661 19.36524972 -5.94455674 19.53894975 -9.9375 17.5 C-12.3238331 14.60747503 -13.00796179 12.73052423 -13.27734375 9.03515625 C-12.76780278 5.29613028 -10.68036768 3.55569941 -8 1 C-5.17998673 -0.41000664 -3.12992745 -0.24548451 0 0 Z " fill="#22212B" transform="translate(232,406)"/>
<path d="M0 0 C0.33 0.99 0.66 1.98 1 3 C-0.65 3.66 -2.3 4.32 -4 5 C-2.6070874 5.43082886 -2.6070874 5.43082886 -1.18603516 5.87036133 C2.25767989 6.93862052 5.69682452 8.02098229 9.13476562 9.10766602 C10.62346435 9.57604801 12.11337552 10.04059432 13.60449219 10.5012207 C15.74744579 11.16393838 17.88566258 11.84032123 20.0234375 12.51953125 C20.69120209 12.72278519 21.35896667 12.92603912 22.04696655 13.13545227 C25.65094599 14.29699321 26.82623871 14.73935807 29 18 C24.41671909 19.46343007 20.9159121 17.96592987 16.515625 16.47265625 C15.70003113 16.20488876 14.88443726 15.93712128 14.04412842 15.66123962 C11.44275736 14.80470392 8.84644999 13.93382578 6.25 13.0625 C4.48599168 12.47886599 2.72167198 11.89617223 0.95703125 11.31445312 C-3.36566661 9.88718294 -7.68387938 8.44703223 -12 7 C-13.33593951 11.00781852 -13.17790164 14.88046174 -13.20532227 19.0612793 C-13.21522186 19.98830658 -13.22512146 20.91533386 -13.23532104 21.87045288 C-13.26693936 24.93834875 -13.29169486 28.00626011 -13.31640625 31.07421875 C-13.33697548 33.19985866 -13.35797195 35.32549447 -13.37937927 37.4511261 C-13.43460306 43.04884529 -13.48401103 48.64660141 -13.53222656 54.24438477 C-13.58243931 59.95527437 -13.63812656 65.66611026 -13.69335938 71.37695312 C-13.80094473 82.58458955 -13.90238891 93.79227258 -14 105 C-13.34 105.33 -12.68 105.66 -12 106 C-12.99 106 -13.98 106 -15 106 C-15 72.34 -15 38.68 -15 4 C-5.66666667 0 -5.66666667 0 0 0 Z " fill="#181821" transform="translate(217,197)"/>
<path d="M0 0 C0.99 0.66 1.98 1.32 3 2 C2.67 2.99 2.34 3.98 2 5 C1.06027344 4.87431641 1.06027344 4.87431641 0.1015625 4.74609375 C-1.12433594 4.59333984 -1.12433594 4.59333984 -2.375 4.4375 C-3.59316406 4.28087891 -3.59316406 4.28087891 -4.8359375 4.12109375 C-7.04899186 3.81762672 -7.04899186 3.81762672 -9 5 C-8.67 5.99 -8.34 6.98 -8 8 C-5.74212109 9.17382124 -5.74212109 9.17382124 -3.0625 10.0625 C1.80717489 11.80717489 1.80717489 11.80717489 4 14 C4.44935048 17.44502033 4.37778761 19.34745776 2.625 22.375 C-1.42971348 24.88506072 -5.35600227 24.6527105 -10 24 C-13.125 22.5 -13.125 22.5 -15 21 C-14.34 19.68 -13.68 18.36 -13 17 C-12.484375 17.33 -11.96875 17.66 -11.4375 18 C-8.21973488 19.32010877 -5.4429472 19.13242105 -2 19 C-2 18.01 -2 17.02 -2 16 C-2.69867188 15.73445313 -3.39734375 15.46890625 -4.1171875 15.1953125 C-5.02726562 14.84210938 -5.93734375 14.48890625 -6.875 14.125 C-7.77992188 13.77695312 -8.68484375 13.42890625 -9.6171875 13.0703125 C-12 12 -12 12 -14 10 C-14.4375 6.625 -14.4375 6.625 -14 3 C-10.13822649 -1.98293356 -5.63570666 -1.49863361 0 0 Z " fill="#1F1E28" transform="translate(267,401)"/>
<path d="M0 0 C3.69186542 2.59216083 4.82883761 4.04149064 5.625 8.5 C4.82883761 12.95850936 3.69186542 14.40783917 0 17 C-4.4117517 17.7878128 -6.22192774 17.52975133 -9.9375 15 C-12.80380719 10.83082591 -12.79190864 8.98902441 -12 4 C-8.52445854 -0.21277753 -5.30670762 -0.85286372 0 0 Z " fill="#714C9A" transform="translate(368,241)"/>
<path d="M0 0 C3.50290739 3.05091934 3.18153767 5.08922601 4 10 C-0.62 10 -5.24 10 -10 10 C-8.68 11.32 -7.36 12.64 -6 14 C-2.30567489 13.85387105 -2.30567489 13.85387105 1 13 C1.99 14.485 1.99 14.485 3 16 C-1.03485494 18.68990329 -4.26228652 18.77993882 -9 18 C-12.20879247 15.96994762 -13.62927537 14.57700553 -14.5078125 10.83984375 C-14.75840984 7.57663062 -14.68162556 5.09555817 -12.92578125 2.2734375 C-8.68418679 -1.88681132 -5.28657344 -1.47330735 0 0 Z " fill="#17171E" transform="translate(289,407)"/>
<path d="M0 0 C1.875 1.125 1.875 1.125 3 3 C3.6875 6.6875 3.6875 6.6875 4 10 C-0.29 10 -4.58 10 -9 10 C-8.67 10.99 -8.34 11.98 -8 13 C-3.46859347 13.93380961 -3.46859347 13.93380961 1 13 C1.99 14.485 1.99 14.485 3 16 C-1.0016041 18.66773607 -4.29431148 18.71478813 -9 18 C-11.50160818 16.12379387 -12.61945652 14.76108697 -14 12 C-14.45063943 8.03437305 -14.12904332 6.23583779 -12.1875 2.6875 C-8.50278142 -1.83943997 -5.39154928 -1.15533199 0 0 Z " fill="#282730" transform="translate(349,407)"/>
<path d="M0 0 C1.875 1.125 1.875 1.125 3 3 C3.6875 6.6875 3.6875 6.6875 4 10 C-2.435 10.495 -2.435 10.495 -9 11 C-8.01 11.99 -7.02 12.98 -6 14 C-2.35458155 13.76522801 -2.35458155 13.76522801 1 13 C1.99 14.485 1.99 14.485 3 16 C-1.0016041 18.66773607 -4.29431148 18.71478813 -9 18 C-11.50160818 16.12379387 -12.61945652 14.76108697 -14 12 C-14.39069343 7.85864965 -14.43382227 5.68813188 -12.1875 2.125 C-8.25393812 -1.69617439 -5.11612766 -1.09631307 0 0 Z " fill="#1A1A21" transform="translate(212,407)"/>
<path d="M0 0 C1.98 0 3.96 0 6 0 C7.98 5.28 9.96 10.56 12 16 C14.71970716 10.74815169 17.01095551 5.56932457 19 0 C20.65 0 22.3 0 24 0 C21.41874331 8.17397951 18.22988119 16.06640834 15 24 C13.35 24 11.7 24 10 24 C8.33039819 20.18877865 6.66481068 16.37581636 5 12.5625 C4.28457031 10.92958008 4.28457031 10.92958008 3.5546875 9.26367188 C3.10351562 8.22919922 2.65234375 7.19472656 2.1875 6.12890625 C1.76855469 5.17056885 1.34960938 4.21223145 0.91796875 3.22485352 C0 1 0 1 0 0 Z " fill="#1C1B23" transform="translate(138,401)"/>
<path d="M0 0 C1.32 0 2.64 0 4 0 C4 16.5 4 33 4 50 C2.02 50.495 2.02 50.495 0 51 C0 34.17 0 17.34 0 0 Z " fill="#555670" transform="translate(258,265)"/>
<path d="M0 0 C0.66 0 1.32 0 2 0 C2.33 5.61 2.66 11.22 3 17 C4.29212402 17.41886475 5.58424805 17.83772949 6.91552734 18.26928711 C11.69810859 19.82010431 16.48001547 21.37299174 21.26171875 22.92651367 C23.33347458 23.59928193 25.40541417 24.27148457 27.47753906 24.94311523 C30.45165439 25.90721243 33.42510828 26.87332531 36.3984375 27.83984375 C37.32868744 28.14091537 38.25893738 28.441987 39.21737671 28.75218201 C40.07811798 29.032397 40.93885925 29.312612 41.82568359 29.60131836 C42.58513275 29.84780624 43.34458191 30.09429413 44.12704468 30.34825134 C46 31 46 31 48 32 C48 25.73 48 19.46 48 13 C48.33 13 48.66 13 49 13 C49 20.59 49 28.18 49 36 C41.6171875 33.5390625 34.234375 31.078125 26.8515625 28.6171875 C25.65581604 28.21868591 25.65581604 28.21868591 24.43591309 27.81213379 C22.84927552 27.28314651 21.26276726 26.75377121 19.6763916 26.22399902 C16.18234074 25.05759586 12.68729908 23.89505064 9.18554688 22.75195312 C8.09822266 22.39552734 7.01089844 22.03910156 5.890625 21.671875 C4.95766602 21.36862305 4.02470703 21.06537109 3.06347656 20.75292969 C1 20 1 20 0 19 C-0.08651611 17.58429877 -0.10704904 16.164405 -0.09765625 14.74609375 C-0.09443359 13.89208984 -0.09121094 13.03808594 -0.08789062 12.15820312 C-0.07951172 11.26037109 -0.07113281 10.36253906 -0.0625 9.4375 C-0.05798828 8.53580078 -0.05347656 7.63410156 -0.04882812 6.70507812 C-0.03700225 4.46998686 -0.0205222 2.23502563 0 0 Z " fill="#73778A" transform="translate(206,281)"/>
<path d="M0 0 C0.66 0 1.32 0 2 0 C2.33 5.61 2.66 11.22 3 17 C17.52 21.62 32.04 26.24 47 31 C47.33 25.06 47.66 19.12 48 13 C48.33 13 48.66 13 49 13 C49 20.26 49 27.52 49 35 C39.38452939 32.77685967 30.11123903 29.84805351 20.76879883 26.70166016 C18.2807148 25.86430279 15.78997628 25.03522299 13.29882812 24.20703125 C11.71598566 23.67756194 10.13329731 23.14763159 8.55078125 22.6171875 C7.80613113 22.3692746 7.06148102 22.12136169 6.29426575 21.86593628 C1.11557821 20.11557821 1.11557821 20.11557821 0 19 C-0.08651611 17.58429877 -0.10704904 16.164405 -0.09765625 14.74609375 C-0.09443359 13.89208984 -0.09121094 13.03808594 -0.08789062 12.15820312 C-0.07951172 11.26037109 -0.07113281 10.36253906 -0.0625 9.4375 C-0.05798828 8.53580078 -0.05347656 7.63410156 -0.04882812 6.70507812 C-0.03700225 4.46998686 -0.0205222 2.23502563 0 0 Z " fill="#787D8E" transform="translate(206,255)"/>
<path d="M0 0 C2.5625 2.0625 2.5625 2.0625 4 5 C3.94021398 8.46758942 3.60965977 10.88826749 1.9375 13.9375 C-1.27905997 15.70141999 -4.49385409 15.73924763 -8 15 C-10.5625 12.9375 -10.5625 12.9375 -12 10 C-11.94021398 6.53241058 -11.60965977 4.11173251 -9.9375 1.0625 C-6.72094003 -0.70141999 -3.50614591 -0.73924763 0 0 Z " fill="#D89A9C" transform="translate(260,136)"/>
<path d="M0 0 C1.91015625 0.4453125 1.91015625 0.4453125 4.47265625 2.5078125 C6.35626596 6.35692799 6.11780025 8.36951401 4.91015625 12.4453125 C2.68850081 14.99610208 1.30186182 15.37863921 -2.02734375 15.9453125 C-6.2039551 15.26341677 -7.59900127 13.81527585 -10.08984375 10.4453125 C-10.76048433 6.79404715 -10.57182689 5.20845248 -8.58984375 2.0703125 C-5.55625142 0.09847749 -3.57053359 -0.20021684 0 0 Z " fill="#724F9D" transform="translate(258.08984375,351.5546875)"/>
<path d="M0 0 C0.99 0 1.98 0 3 0 C4.26320923 23.37608989 4.38943381 46.62773836 3 70 C2.67 70 2.34 70 2 70 C1.505 67.03 1.505 67.03 1 64 C0.67 64 0.34 64 0 64 C0 42.88 0 21.76 0 0 Z " fill="#333441" transform="translate(203,204)"/>
<path d="M0 0 C0.66 0 1.32 0 2 0 C2.33 5.28 2.66 10.56 3 16 C4.29212402 16.41886475 5.58424805 16.83772949 6.91552734 17.26928711 C11.69810859 18.82010431 16.48001547 20.37299174 21.26171875 21.92651367 C23.33347458 22.59928193 25.40541417 23.27148457 27.47753906 23.94311523 C30.45165439 24.90721243 33.42510828 25.87332531 36.3984375 26.83984375 C37.32868744 27.14091537 38.25893738 27.441987 39.21737671 27.75218201 C40.07811798 28.032397 40.93885925 28.312612 41.82568359 28.60131836 C42.58513275 28.84780624 43.34458191 29.09429413 44.12704468 29.34825134 C46 30 46 30 48 31 C48 25.06 48 19.12 48 13 C48.33 13 48.66 13 49 13 C49 19.93 49 26.86 49 34 C38.65407283 31.30229712 28.49784848 28.05273236 18.3125 24.8125 C16.53196498 24.24784522 14.75136651 23.68339048 12.97070312 23.11914062 C8.64627854 21.7487669 4.32318612 20.37430017 0 19 C0 12.73 0 6.46 0 0 Z " fill="#8B909D" transform="translate(206,206)"/>
<path d="M0 0 C0.66 0 1.32 0 2 0 C2 5.61 2 11.22 2 17 C3.29993896 17.27183105 4.59987793 17.54366211 5.93920898 17.82373047 C10.71831066 18.88751586 15.32695294 20.28471565 19.97265625 21.8203125 C20.78117538 22.08383514 21.58969452 22.34735779 22.42271423 22.61886597 C24.97061854 23.4503015 27.51657061 24.2875391 30.0625 25.125 C31.80390995 25.69439747 33.54544536 26.26341138 35.28710938 26.83203125 C39.52645157 28.21622389 43.76309691 29.60826991 48 31 C48 25.39 48 19.78 48 14 C48.33 14 48.66 14 49 14 C49 20.6 49 27.2 49 34 C38.8739047 31.7497566 38.8739047 31.7497566 35.52172852 30.68725586 C34.7680751 30.45038559 34.01442169 30.21351532 33.2379303 29.96946716 C32.45945236 29.72044144 31.68097443 29.47141571 30.87890625 29.21484375 C30.05293442 28.95369278 29.22696259 28.69254181 28.3759613 28.42347717 C26.64858414 27.87649912 24.92178687 27.32768659 23.19555664 26.77709961 C20.54643218 25.93237647 17.89545816 25.09367083 15.24414062 24.25585938 C13.55978566 23.72170146 11.87553693 23.18720841 10.19140625 22.65234375 C9.00243492 22.27576881 9.00243492 22.27576881 7.78944397 21.8915863 C2.23293012 20.11646506 2.23293012 20.11646506 0 19 C0 12.73 0 6.46 0 0 Z " fill="#898D9A" transform="translate(206,230)"/>
<path d="M0 0 C1.65 0 3.3 0 5 0 C6.32 3.3 7.64 6.6 9 10 C11.09782787 7.90217213 11.6509396 6.6200793 12.625 3.875 C12.88539063 3.15054687 13.14578125 2.42609375 13.4140625 1.6796875 C13.70410156 0.84824219 13.70410156 0.84824219 14 0 C15.65 0 17.3 0 19 0 C18.20875876 2.06266324 17.41698909 4.12512379 16.625 6.1875 C16.18414062 7.33605469 15.74328125 8.48460937 15.2890625 9.66796875 C14.21147857 12.45335994 13.1163557 15.22997721 12 18 C10.35 18 8.7 18 7 18 C5.83121737 15.18836219 4.66488052 12.37575392 3.5 9.5625 C2.99919922 8.35883789 2.99919922 8.35883789 2.48828125 7.13085938 C2.01455078 5.98520508 2.01455078 5.98520508 1.53125 4.81640625 C1.23798828 4.10943604 0.94472656 3.40246582 0.64257812 2.67407227 C0 1 0 1 0 0 Z " fill="#1F1E28" transform="translate(314,407)"/>
<path d="M0 0 C5.17475726 0 9.88699057 0.22822499 15 1 C14.4375 2.9375 14.4375 2.9375 13 5 C10.67843403 5.40729228 8.3431213 5.74438677 6 6 C4.71553081 8.56893838 4.67022856 10.76576337 4.4375 13.625 C4.31181641 15.12933594 4.31181641 15.12933594 4.18359375 16.6640625 C4.12300781 17.43492187 4.06242187 18.20578125 4 19 C2.68 19 1.36 19 0 19 C0 12.73 0 6.46 0 0 Z " fill="#16151F" transform="translate(297,406)"/>
<path d="M0 0 C6.89795918 2.29931973 6.89795918 2.29931973 10.375 4.4375 C11.06335938 4.84871094 11.75171875 5.25992187 12.4609375 5.68359375 C13.22277344 6.33521484 13.22277344 6.33521484 14 7 C14 7.99 14 8.98 14 10 C11.1875 12.25 11.1875 12.25 8 14 C7.01 13.67 6.02 13.34 5 13 C5.33 12.34 5.66 11.68 6 11 C4.02 11.99 2.04 12.98 0 14 C0 9.38 0 4.76 0 0 Z " fill="#282737" transform="translate(272,254)"/>
<path d="M0 0 C0.33 1.32 0.66 2.64 1 4 C0.05125 3.938125 -0.8975 3.87625 -1.875 3.8125 C-3.421875 3.9053125 -3.421875 3.9053125 -5 4 C-7.30260759 6.81598187 -7.30260759 6.81598187 -6.875 10 C-5.86949279 13.4474533 -4.96597051 14.14626843 -2 16 C-1.67 16.66 -1.34 17.32 -1 18 C-7.24460432 18.60044272 -7.24460432 18.60044272 -10.4375 16.0625 C-12.52850826 11.96412381 -12.86150309 8.51866819 -12 4 C-8.29819026 -0.93574632 -5.82971081 -1.14059559 0 0 Z " fill="#191820" transform="translate(187,407)"/>
<path d="M0 0 C6.37534247 0.49041096 6.37534247 0.49041096 9.375 2.9375 C12.10298838 6.3999468 12.43177425 8.59590264 12 13 C10.20006226 15.69990662 8.916227 17.5418865 6 19 C3.3276379 19.13415472 0.67749512 19.04318541 -2 19 C1 17 1 17 4 17 C6.08901197 13.60535554 6.34361606 10.95158471 6 7 C3.8614515 4.8614515 2.86724686 4.57344937 0 4 C0 2.68 0 1.36 0 0 Z " fill="#1E1D26" transform="translate(227,406)"/>
<path d="M0 0 C1.32 0 2.64 0 4 0 C5.20568053 4.67201205 5.09382426 9.21496292 5 14 C7.31 12.68 9.62 11.36 12 10 C10.90769173 15.21880617 8.92827383 17.2666403 4.75390625 20.21484375 C3 21 3 21 0 20 C0 13.4 0 6.8 0 0 Z " fill="#282736" transform="translate(268,253)"/>
<path d="M0 0 C0.8971875 0.309375 0.8971875 0.309375 1.8125 0.625 C1.6875 2.5 1.6875 2.5 0.8125 4.625 C-2.25 5.875 -2.25 5.875 -5.1875 6.625 C-5.5175 10.585 -5.8475 14.545 -6.1875 18.625 C-7.5075 18.625 -8.8275 18.625 -10.1875 18.625 C-10.1875 12.685 -10.1875 6.745 -10.1875 0.625 C-7.7125 1.12 -7.7125 1.12 -5.1875 1.625 C-2.1875 -0.375 -2.1875 -0.375 0 0 Z " fill="#14141A" transform="translate(368.1875,406.375)"/>
<path d="M0 0 C2.4375 0.8125 2.4375 0.8125 4.4375 2.8125 C4.6875 5.8125 4.6875 5.8125 4.4375 8.8125 C2.4375 10.8125 2.4375 10.8125 -0.5625 11.0625 C-3.5625 10.8125 -3.5625 10.8125 -5.5625 8.8125 C-5.89911952 5.6482765 -6.06193411 3.62736618 -4.375 0.875 C-2.5625 -0.1875 -2.5625 -0.1875 0 0 Z " fill="#F5F6F6" transform="translate(229.5625,410.1875)"/>
<path d="M0 0 C3.29714793 0.32971479 4.6226839 0.6226839 7 3 C7.25 6 7.25 6 7 9 C5 11 5 11 2 11.3125 C1.01 11.209375 0.02 11.10625 -1 11 C-3 8 -3 8 -2.75 4.9375 C-2 2 -2 2 0 0 Z " fill="#EFF0F0" transform="translate(182,410)"/>
<path d="M0 0 C0.33 0 0.66 0 1 0 C1 6.93 1 13.86 1 21 C-8.09044216 18.60113332 -17.0415629 15.84376987 -26 13 C-25.67 12.34 -25.34 11.68 -25 11 C-18.91271198 11.54647245 -13.71016422 12.93078818 -8 15.0625 C-5.36 16.031875 -2.72 17.00125 0 18 C0 12.06 0 6.12 0 0 Z " fill="#767A88" transform="translate(254,219)"/>
<path d="M0 0 C3.63 0.99 7.26 1.98 11 3 C11 3.66 11 4.32 11 5 C7.37820437 6.03244751 3.75213106 7.04897081 0.125 8.0625 C-0.90753906 8.35705078 -1.94007813 8.65160156 -3.00390625 8.95507812 C-3.99003906 9.22900391 -4.97617187 9.50292969 -5.9921875 9.78515625 C-6.90339355 10.04176025 -7.81459961 10.29836426 -8.75341797 10.56274414 C-11 11 -11 11 -13 10 C-11.2126038 8.66094733 -9.41995047 7.32890934 -7.625 6 C-6.62726563 5.2575 -5.62953125 4.515 -4.6015625 3.75 C-2 2 -2 2 0 2 C0 1.34 0 0.68 0 0 Z " fill="#515366" transform="translate(289,199)"/>
<path d="M0 0 C1.875 1.125 1.875 1.125 3 3 C3.6875 6.6875 3.6875 6.6875 4 10 C-0.29 10 -4.58 10 -9 10 C-9 9.67 -9 9.34 -9 9 C-6.36 8.67 -3.72 8.34 -1 8 C-1.33 6.68 -1.66 5.36 -2 4 C-6.08091471 3.88664126 -9.32836527 4.16418263 -13 6 C-12.14382686 3.28878505 -11.54750525 1.44611539 -9.3125 -0.375 C-5.93261775 -1.28848169 -3.37963422 -0.79882263 0 0 Z " fill="#15141B" transform="translate(349,407)"/>
<path d="M0 0 C0.33 0 0.66 0 1 0 C1 7.26 1 14.52 1 22 C-7.16574556 20.05577487 -15.07619111 17.76771339 -23 15 C-23 14.01 -23 13.02 -23 12 C-15.49412532 13.52661858 -8.30484057 15.69320824 -1 18 C-0.67 12.06 -0.34 6.12 0 0 Z " fill="#707486" transform="translate(254,268)"/>
<path d="M0 0 C1.98 0.66 3.96 1.32 6 2 C5.01 2.33 4.02 2.66 3 3 C3 4.32 3 5.64 3 7 C3.66 7 4.32 7 5 7 C5 7.99 5 8.98 5 10 C6.32 10.33 7.64 10.66 9 11 C9.33 10.01 9.66 9.02 10 8 C10 9.32 10 10.64 10 12 C11.65 12.33 13.3 12.66 15 13 C15.33 12.01 15.66 11.02 16 10 C16 11.32 16 12.64 16 14 C17.32 14.33 18.64 14.66 20 15 C19.67 15.66 19.34 16.32 19 17 C18.01 16.67 17.02 16.34 16 16 C15.67 16.66 15.34 17.32 15 18 C14.54625 17.525625 14.0925 17.05125 13.625 16.5625 C12.06741796 14.90972192 12.06741796 14.90972192 10 14 C9.67 14.66 9.34 15.32 9 16 C9 15.01 9 14.02 9 13 C7.68 13 6.36 13 5 13 C5 13.66 5 14.32 5 15 C4.34 15 3.68 15 3 15 C2.67 16.32 2.34 17.64 2 19 C2 13.39 2 7.78 2 2 C1.34 2 0.68 2 0 2 C0 1.34 0 0.68 0 0 Z " fill="#B8BBC5" transform="translate(206,228)"/>
<path d="M0 0 C0.33 0 0.66 0 1 0 C1 6.6 1 13.2 1 20 C-5.00456492 18.66565224 -10.73920837 17.25242486 -16.5625 15.375 C-17.28501953 15.14554687 -18.00753906 14.91609375 -18.75195312 14.6796875 C-20.50240588 14.12325219 -22.25136973 13.56213636 -24 13 C-24 12.01 -24 11.02 -24 10 C-15.70994921 11.59983436 -7.97972154 14.26820344 0 17 C0 11.39 0 5.78 0 0 Z " fill="#747988" transform="translate(254,244)"/>
<path d="M0 0 C8.10135628 2.14788658 16.12647868 4.49693333 24.125 7 C25.259375 7.34289062 26.39375 7.68578125 27.5625 8.0390625 C28.63757813 8.37679688 29.71265625 8.71453125 30.8203125 9.0625 C31.79242676 9.36285156 32.76454102 9.66320312 33.76611328 9.97265625 C34.5032959 10.31167969 35.24047852 10.65070313 36 11 C36.495 12.485 36.495 12.485 37 14 C29.95452412 12.35891964 23.12641262 10.17493577 16.25 7.9375 C14.02641296 7.21630214 11.80246922 6.4962029 9.578125 5.77734375 C8.60262695 5.46015381 7.62712891 5.14296387 6.62207031 4.81616211 C4.42465509 4.13218081 2.23919059 3.52735521 0 3 C0 2.01 0 1.02 0 0 Z " fill="#C2C5CF" transform="translate(206,278)"/>
<path d="M0 0 C4.07229836 3.41547604 4.03526416 4.21158499 5 10 C0.38 9.34 -4.24 8.68 -9 8 C-8.34 6.35 -7.68 4.7 -7 3 C-5.35 3 -3.7 3 -2 3 C-2 2.34 -2 1.68 -2 1 C-1.34 0.67 -0.68 0.34 0 0 Z " fill="#2D2D36" transform="translate(288,407)"/>
<path d="M0 0 C2.97 0.99 5.94 1.98 9 3 C9 3.99 9 4.98 9 6 C8.01 6.495 8.01 6.495 7 7 C7.66 7.66 8.32 8.32 9 9 C9 9.99 9 10.98 9 12 C5.53058454 11.54177532 2.32604951 11.10868317 -1 10 C-1 8.68 -1 7.36 -1 6 C-0.34 5.67 0.32 5.34 1 5 C0.67 3.35 0.34 1.7 0 0 Z " fill="#76798B" transform="translate(217,261)"/>
<path d="M0 0 C6.4 0.49230769 6.4 0.49230769 9.4375 3.0625 C10.2109375 4.0215625 10.2109375 4.0215625 11 5 C10.34 6.32 9.68 7.64 9 9 C7.54096742 8.69078116 6.08279278 8.37751201 4.625 8.0625 C3.81289062 7.88847656 3.00078125 7.71445313 2.1640625 7.53515625 C0 7 0 7 -2 6 C-2 4.68 -2 3.36 -2 2 C-1.34 2 -0.68 2 0 2 C0 1.34 0 0.68 0 0 Z " fill="#999DA9" transform="translate(211,241)"/>
<path d="M0 0 C0.33 0 0.66 0 1 0 C1 6.93 1 13.86 1 21 C2.98 21.33 4.96 21.66 7 22 C7.33 22.99 7.66 23.98 8 25 C1.38089819 27.24576669 -1.6644368 26.94151148 -8 24 C-5 22 -5 22 -1 22 C-0.67 14.74 -0.34 7.48 0 0 Z " fill="#1F1F2E" transform="translate(255,294)"/>
<path d="M0 0 C1.32 0 2.64 0 4 0 C4 5.94 4 11.88 4 18 C2.68 18 1.36 18 0 18 C0 12.06 0 6.12 0 0 Z " fill="#12121C" transform="translate(166,407)"/>
<path d="M0 0 C5.9129304 0.64270983 11.34244531 2.19003784 17 4 C17 4.99 17 5.98 17 7 C16.01 6.67 15.02 6.34 14 6 C14 6.66 14 7.32 14 8 C12.68 8 11.36 8 10 8 C9.67 8.66 9.34 9.32 9 10 C9 9.01 9 8.02 9 7 C7.68 6.67 6.36 6.34 5 6 C5.33 5.34 5.66 4.68 6 4 C4.02 3.01 2.04 2.02 0 1 C0 0.67 0 0.34 0 0 Z " fill="#BABEC8" transform="translate(212,255)"/>
<path d="M0 0 C2.1640625 0.2421875 2.1640625 0.2421875 4.625 0.875 C5.44226563 1.07867187 6.25953125 1.28234375 7.1015625 1.4921875 C8.04128906 1.74355469 8.04128906 1.74355469 9 2 C8.67 3.98 8.34 5.96 8 8 C4.53058454 7.54177532 1.32604951 7.10868317 -2 6 C-2 2 -2 2 0 0 Z " fill="#8F93A1" transform="translate(218,234)"/>
<path d="M0 0 C0.66 0.33 1.32 0.66 2 1 C2 6.28 2 11.56 2 17 C1.67 17 1.34 17 1 17 C0.93941406 16.30132812 0.87882813 15.60265625 0.81640625 14.8828125 C0.73261719 13.97273437 0.64882812 13.06265625 0.5625 12.125 C0.48128906 11.22007812 0.40007812 10.31515625 0.31640625 9.3828125 C0.13010715 6.98889139 0.13010715 6.98889139 -1 5 C-1.969375 4.690625 -2.93875 4.38125 -3.9375 4.0625 C-7 3 -7 3 -9 0 C-5.90914327 -1.54542837 -3.32167685 -0.59315658 0 0 Z " fill="#B7BBC7" transform="translate(252,218)"/>
<path d="M0 0 C0.66 0 1.32 0 2 0 C2.33 5.61 2.66 11.22 3 17 C5.475 17.99 5.475 17.99 8 19 C8 19.66 8 20.32 8 21 C1.125 20.125 1.125 20.125 0 19 C-0.08651611 17.58429877 -0.10704904 16.164405 -0.09765625 14.74609375 C-0.09443359 13.89208984 -0.09121094 13.03808594 -0.08789062 12.15820312 C-0.07951172 11.26037109 -0.07113281 10.36253906 -0.0625 9.4375 C-0.05798828 8.53580078 -0.05347656 7.63410156 -0.04882812 6.70507812 C-0.03700225 4.46998686 -0.0205222 2.23502563 0 0 Z " fill="#7F8395" transform="translate(206,281)"/>
<path d="M0 0 C-0.99 1.485 -0.99 1.485 -2 3 C-1.6878236 5.64632287 -1.6878236 5.64632287 -1 8 C-5.455 7.01 -5.455 7.01 -10 6 C-10 4.35 -10 2.7 -10 1 C-6.52674819 -0.1577506 -3.63932552 -0.06866652 0 0 Z " fill="#8D919E" transform="translate(221,208)"/>
<path d="M0 0 C4.29 1.32 8.58 2.64 13 4 C13 4.99 13 5.98 13 7 C9.52128379 8.15957207 8.65780355 7.77456651 5.3125 6.5625 C4.50425781 6.27503906 3.69601563 5.98757813 2.86328125 5.69140625 C2.24839844 5.46324219 1.63351563 5.23507812 1 5 C1 4.34 1 3.68 1 3 C0.34 3 -0.32 3 -1 3 C-0.67 2.01 -0.34 1.02 0 0 Z " fill="#2B2B38" transform="translate(215,303)"/>
<path d="M0 0 C0.99 0 1.98 0 3 0 C3 7.26 3 14.52 3 22 C2.67 22 2.34 22 2 22 C1.67 20.35 1.34 18.7 1 17 C0.67 17 0.34 17 0 17 C0 11.39 0 5.78 0 0 Z " fill="#363845" transform="translate(203,278)"/>
<path d="M0 0 C1.65 0 3.3 0 5 0 C5.99 3.3 6.98 6.6 8 10 C7.01 10.99 6.02 11.98 5 13 C3.35 8.71 1.7 4.42 0 0 Z " fill="#15141F" transform="translate(314,407)"/>
<path d="M0 0 C0.33 0 0.66 0 1 0 C1 7.59 1 15.18 1 23 C-2.3 22.01 -5.6 21.02 -9 20 C-8.505 18.515 -8.505 18.515 -8 17 C-2.25 17.875 -2.25 17.875 0 19 C0 12.73 0 6.46 0 0 Z " fill="#6A6D82" transform="translate(254,294)"/>
<path d="M0 0 C0.66 0 1.32 0 2 0 C2.33 5.61 2.66 11.22 3 17 C4.32 17.66 5.64 18.32 7 19 C5.0085944 19.38133299 3.00720923 19.71325582 1 20 C0 19 0 19 -0.11352539 17.14233398 C-0.10828857 16.35157471 -0.10305176 15.56081543 -0.09765625 14.74609375 C-0.09443359 13.89208984 -0.09121094 13.03808594 -0.08789062 12.15820312 C-0.07951172 11.26037109 -0.07113281 10.36253906 -0.0625 9.4375 C-0.05798828 8.53580078 -0.05347656 7.63410156 -0.04882812 6.70507812 C-0.03700225 4.46998686 -0.0205222 2.23502563 0 0 Z " fill="#85899A" transform="translate(206,255)"/>
<path d="M0 0 C5.75 1.625 5.75 1.625 8 5 C6.8562364 5.83617182 5.70992861 6.66886459 4.5625 7.5 C3.60537109 8.19609375 3.60537109 8.19609375 2.62890625 8.90625 C1 10 1 10 0 10 C0 6.7 0 3.4 0 0 Z " fill="#F5F5F5" transform="translate(272,258)"/>
<path d="M0 0 C1.9375 1.375 1.9375 1.375 3 3 C3 3.99 3 4.98 3 6 C2.01 6.33 1.02 6.66 0 7 C-0.33 6.01 -0.66 5.02 -1 4 C-3.31 3.67 -5.62 3.34 -8 3 C-8.33 2.01 -8.66 1.02 -9 0 C-5.85000502 -1.57499749 -3.36459118 -0.70833498 0 0 Z " fill="#171620" transform="translate(212,407)"/>
<path d="M0 0 C1.96035175 0.44962196 3.91824309 0.90998248 5.875 1.375 C7.51082031 1.75785156 7.51082031 1.75785156 9.1796875 2.1484375 C12 3 12 3 14 5 C13.67 5.66 13.34 6.32 13 7 C7.88634986 5.9318153 2.92772031 4.76892524 -2 3 C-1.34 2.01 -0.68 1.02 0 0 Z " fill="#222133" transform="translate(238,285)"/>
<path d="M0 0 C4.62 0 9.24 0 14 0 C9.10638298 4.89361702 9.10638298 4.89361702 4 5 C1.625 3.6875 1.625 3.6875 0 2 C0 1.34 0 0.68 0 0 Z " fill="#E3E3E4" transform="translate(279,417)"/>
<path d="M0 0 C5.11922936 0 9.92454497 0.23389358 15 1 C14.34 2.32 13.68 3.64 13 5 C6.25 5.125 6.25 5.125 4 4 C4 3.01 4 2.02 4 1 C2.68 0.67 1.36 0.34 0 0 Z " fill="#44434D" transform="translate(297,406)"/>
<path d="M0 0 C4.62 0 9.24 0 14 0 C10 4 10 4 7 5 C4 5 4 5 1.625 3.125 C0 1 0 1 0 0 Z " fill="#E2E3E3" transform="translate(202,417)"/>
<path d="M0 0 C1.32 0.33 2.64 0.66 4 1 C5.4783226 3.95664519 5.06032783 6.74229737 5 10 C3.35 10 1.7 10 0 10 C0 6.7 0 3.4 0 0 Z " fill="#A086A9" transform="translate(248,222)"/>
<path d="M0 0 C4.29 0 8.58 0 13 0 C11.68 0.33 10.36 0.66 9 1 C9 1.99 9 2.98 9 4 C6.1875 4.625 6.1875 4.625 3 5 C2.01 4.34 1.02 3.68 0 3 C0 2.01 0 1.02 0 0 Z " fill="#E4E4E5" transform="translate(340,417)"/>
<path d="M0 0 C1.65 0 3.3 0 5 0 C3.68 3.3 2.36 6.6 1 10 C0.01 10 -0.98 10 -2 10 C-3 8 -3 8 -2.44140625 6.0546875 C-2.15136719 5.33539063 -1.86132812 4.61609375 -1.5625 3.875 C-1.27503906 3.15054687 -0.98757813 2.42609375 -0.69140625 1.6796875 C-0.46324219 1.12539063 -0.23507812 0.57109375 0 0 Z " fill="#14131B" transform="translate(328,407)"/>
<path d="M0 0 C1.65 1.65 3.3 3.3 5 5 C3.68 5.33 2.36 5.66 1 6 C1 7.32 1 8.64 1 10 C1.99 10.33 2.98 10.66 4 11 C2.1875 12.0625 2.1875 12.0625 0 13 C-0.99 12.67 -1.98 12.34 -3 12 C-3 11.01 -3 10.02 -3 9 C-2.01 9 -1.02 9 0 9 C0 7.68 0 6.36 0 5 C-0.66 5 -1.32 5 -2 5 C-2 4.34 -2 3.68 -2 3 C-1.34 3 -0.68 3 0 3 C0 2.01 0 1.02 0 0 Z " fill="#ABAEBE" transform="translate(215,288)"/>
<path d="M0 0 C2.27734375 0.20703125 2.27734375 0.20703125 4.9375 0.8125 C5.81277344 1.00457031 6.68804687 1.19664062 7.58984375 1.39453125 C10 2 10 2 13 3 C13.33 3.99 13.66 4.98 14 6 C8.34979382 5.39891424 3.33835539 3.92471317 -2 2 C-1.34 1.34 -0.68 0.68 0 0 Z " fill="#7F8391" transform="translate(217,250)"/>
<path d="M0 0 C1.65 0 3.3 0 5 0 C4.01 2.97 3.02 5.94 2 9 C1.34 8.34 0.68 7.68 0 7 C-0.99 7.495 -0.99 7.495 -2 8 C-1.47731534 5.23723823 -0.89130413 2.6739124 0 0 Z " fill="#15151B" transform="translate(157,401)"/>
<path d="M0 0 C0.89332031 0.30164063 1.78664062 0.60328125 2.70703125 0.9140625 C3.60808594 1.21054688 4.50914062 1.50703125 5.4375 1.8125 C6.46810547 2.17214844 6.46810547 2.17214844 7.51953125 2.5390625 C7.18953125 3.5290625 6.85953125 4.5190625 6.51953125 5.5390625 C5.08041785 5.25546363 3.64327607 4.96184851 2.20703125 4.6640625 C1.40652344 4.50164062 0.60601562 4.33921875 -0.21875 4.171875 C-2.48046875 3.5390625 -2.48046875 3.5390625 -5.48046875 1.5390625 C-2.48046875 -0.4609375 -2.48046875 -0.4609375 0 0 Z " fill="#212031" transform="translate(232.48046875,232.4609375)"/>
<path d="M0 0 C2.97 0.495 2.97 0.495 6 1 C5.42415568 3.38564077 4.77772405 5.66682784 4 8 C2.68 7.67 1.36 7.34 0 7 C0 4.69 0 2.38 0 0 Z " fill="#9F8DAF" transform="translate(248,268)"/>
<path d="M0 0 C2.0234375 0.171875 2.0234375 0.171875 4.375 0.75 C5.53128906 1.02070313 5.53128906 1.02070313 6.7109375 1.296875 C8.96653119 1.98971948 10.92628382 2.88265521 13 4 C7.28728072 5.6112798 3.31329355 4.08989546 -2 2 C-1.34 1.34 -0.68 0.68 0 0 Z " fill="#838895" transform="translate(218,226)"/>
<path d="M0 0 C2.97 0.99 5.94 1.98 9 3 C8.01 3.99 7.02 4.98 6 6 C3.69 5.34 1.38 4.68 -1 4 C-0.67 2.68 -0.34 1.36 0 0 Z " fill="#2C2B3A" transform="translate(221,229)"/>
<path d="M0 0 C1.65 0 3.3 0 5 0 C5.66 1.32 6.32 2.64 7 4 C4.03 4 1.06 4 -2 4 C-1.34 2.68 -0.68 1.36 0 0 Z " fill="#F1F1F2" transform="translate(342,410)"/>
<path d="M0 0 C1.65 0 3.3 0 5 0 C5.66 1.32 6.32 2.64 7 4 C4.03 4 1.06 4 -2 4 C-1.34 2.68 -0.68 1.36 0 0 Z " fill="#F4F4F5" transform="translate(281,410)"/>
<path d="M0 0 C0.598125 0.20625 1.19625 0.4125 1.8125 0.625 C1.4825 1.945 1.1525 3.265 0.8125 4.625 C-1.1675 4.625 -3.1475 4.625 -5.1875 4.625 C-5.1875 3.635 -5.1875 2.645 -5.1875 1.625 C-2.1875 -0.375 -2.1875 -0.375 0 0 Z " fill="#1D1B23" transform="translate(368.1875,406.375)"/>
<path d="M0 0 C2.97 0.495 2.97 0.495 6 1 C6.33 1.99 6.66 2.98 7 4 C4.03 4 1.06 4 -2 4 C-1.34 2.68 -0.68 1.36 0 0 Z " fill="#F4F4F5" transform="translate(205,410)"/>
<path d="M0 0 C1.65 0.33 3.3 0.66 5 1 C5 2.32 5 3.64 5 5 C0.545 4.01 0.545 4.01 -4 3 C-2.68 2.67 -1.36 2.34 0 2 C0 1.34 0 0.68 0 0 Z " fill="#15141E" transform="translate(264,401)"/>
<path d="M0 0 C0.99 0.99 1.98 1.98 3 3 C-0.08888522 5.05925681 -0.70935927 5.2390374 -4.1875 5.125 C-6.0746875 5.063125 -6.0746875 5.063125 -8 5 C-7.34 4.34 -6.68 3.68 -6 3 C-4.68 3 -3.36 3 -2 3 C-2 2.34 -2 1.68 -2 1 C-1.34 0.67 -0.68 0.34 0 0 Z " fill="#14131A" transform="translate(212,420)"/>
<path d="M0 0 C0.99 0.99 1.98 1.98 3 3 C-0.08888522 5.05925681 -0.70935927 5.2390374 -4.1875 5.125 C-6.0746875 5.063125 -6.0746875 5.063125 -8 5 C-5.59563974 1.39345961 -4.05320393 1.14547068 0 0 Z " fill="#0B0B0F" transform="translate(349,420)"/>
<path d="M0 0 C0.66 0.33 1.32 0.66 2 1 C2 4.96 2 8.92 2 13 C1.67 13 1.34 13 1 13 C0.8046875 10.94921875 0.609375 8.8984375 0.4140625 6.84765625 C0.27742187 6.23792969 0.14078125 5.62820313 0 5 C-0.66 4.67 -1.32 4.34 -2 4 C-1.34 2.68 -0.68 1.36 0 0 Z " fill="#A6AAC1" transform="translate(252,300)"/>
<path d="M0 0 C3.46941546 0.45822468 6.67395049 0.89131683 10 2 C9.67 2.99 9.34 3.98 9 5 C6.03 4.01 3.06 3.02 0 2 C0 1.34 0 0.68 0 0 Z " fill="#BCC2CD" transform="translate(244,291)"/>
<path d="M0 0 C2.64 0.66 5.28 1.32 8 2 C7.67 2.99 7.34 3.98 7 5 C4.03 4.505 4.03 4.505 1 4 C0.67 2.68 0.34 1.36 0 0 Z " fill="#232232" transform="translate(206,249)"/>
<path d="M0 0 C0.99 0.33 1.98 0.66 3 1 C3 2.98 3 4.96 3 7 C1.68 6.67 0.36 6.34 -1 6 C-0.67 4.02 -0.34 2.04 0 0 Z " fill="#9F85AA" transform="translate(243,242)"/>
<path d="M0 0 C0 0.66 0 1.32 0 2 C-0.99 2.495 -0.99 2.495 -2 3 C-2.99 4.485 -2.99 4.485 -4 6 C-4.99 4.02 -5.98 2.04 -7 0 C-4.3333581 -1.33332095 -2.83319697 -0.67102033 0 0 Z " fill="#BEC1CA" transform="translate(225,210)"/>
<path d="M0 0 C1.98 0.495 1.98 0.495 4 1 C3.67 2.32 3.34 3.64 3 5 C1.68 4.67 0.36 4.34 -1 4 C-0.67 2.68 -0.34 1.36 0 0 Z " fill="#141319" transform="translate(166,399)"/>
<path d="M0 0 C0.99 0.99 1.98 1.98 3 3 C0.42786866 4.61949011 -0.67669159 5.04408751 -3.75 4.625 C-4.4925 4.41875 -5.235 4.2125 -6 4 C-4.03617993 2.49440461 -2.21736634 1.10868317 0 0 Z " fill="#23232B" transform="translate(289,420)"/>
<path d="M0 0 C4.29 0 8.58 0 13 0 C13 0.99 13 1.98 13 3 C8.71 2.67 4.42 2.34 0 2 C0 1.34 0 0.68 0 0 Z " fill="#414049" transform="translate(202,413)"/>
<path d="M0 0 C1.98 0.495 1.98 0.495 4 1 C4.33 2.65 4.66 4.3 5 6 C3.68 5.67 2.36 5.34 1 5 C1 4.34 1 3.68 1 3 C0.34 3 -0.32 3 -1 3 C-0.67 2.01 -0.34 1.02 0 0 Z " fill="#31313E" transform="translate(215,303)"/>
<path d="M0 0 C4.455 0.99 4.455 0.99 9 2 C9 2.66 9 3.32 9 4 C5.625 3.6875 5.625 3.6875 2 3 C1.34 2.01 0.68 1.02 0 0 Z " fill="#818695" transform="translate(237,232)"/>
<path d="M0 0 C0.639375 0.2475 1.27875 0.495 1.9375 0.75 C2.2675 1.74 2.5975 2.73 2.9375 3.75 C-0.0625 4.75 -0.0625 4.75 -3.0625 3.75 C-3.3925 2.76 -3.7225 1.77 -4.0625 0.75 C-2.0625 -0.25 -2.0625 -0.25 0 0 Z " fill="#2A2A38" transform="translate(286.0625,194.25)"/>
<path d="M0 0 C1.65 0 3.3 0 5 0 C5.33 0.99 5.66 1.98 6 3 C2.98968256 3.93423645 2.13349732 4.04449911 -1 3 C-0.67 2.01 -0.34 1.02 0 0 Z " fill="#2F2F3F" transform="translate(233,284)"/>
<path d="M0 0 C0.28875 0.61875 0.5775 1.2375 0.875 1.875 C1.93720042 4.13325765 1.93720042 4.13325765 4 6 C3.01 6.33 2.02 6.66 1 7 C0.67 7.66 0.34 8.32 0 9 C0 8.01 0 7.02 0 6 C-0.66 6 -1.32 6 -2 6 C-2 5.34 -2 4.68 -2 4 C-1.34 4 -0.68 4 0 4 C0 2.68 0 1.36 0 0 Z " fill="#B4B7C3" transform="translate(215,260)"/>
<path d="M0 0 C0.66 0.66 1.32 1.32 2 2 C1 4 1 4 -0.9375 4.75 C-1.618125 4.8325 -2.29875 4.915 -3 5 C-3.66 4.34 -4.32 3.68 -5 3 C-4 1 -4 1 -2.0625 0.25 C-1.381875 0.1675 -0.70125 0.085 0 0 Z " fill="#2B2B3A" transform="translate(232,192)"/>
<path d="M0 0 C2.97 0.495 2.97 0.495 6 1 C5.34 2.32 4.68 3.64 4 5 C3.34 5 2.68 5 2 5 C2 4.34 2 3.68 2 3 C1.34 2.67 0.68 2.34 0 2 C0 1.34 0 0.68 0 0 Z " fill="#121018" transform="translate(306,406)"/>
<path d="M0 0 C2.97 0.495 2.97 0.495 6 1 C5.01 1.495 5.01 1.495 4 2 C4 2.66 4 3.32 4 4 C2.35 4 0.7 4 -1 4 C-0.67 2.68 -0.34 1.36 0 0 Z " fill="#0F0E16" transform="translate(282,406)"/>
<path d="M0 0 C1.65 0 3.3 0 5 0 C4.67 1.32 4.34 2.64 4 4 C2.35 3.67 0.7 3.34 -1 3 C-0.67 2.01 -0.34 1.02 0 0 Z " fill="#1A1925" transform="translate(328,407)"/>
<path d="M0 0 C0.99 0.66 1.98 1.32 3 2 C2.67 2.66 2.34 3.32 2 4 C2.66 4.33 3.32 4.66 4 5 C0.62537285 4.45276317 -1.08235 3.9451 -4 2 C-2.68 1.34 -1.36 0.68 0 0 Z " fill="#1F1F29" transform="translate(212,302)"/>
<path d="M0 0 C2.97 0.495 2.97 0.495 6 1 C5.01 2.485 5.01 2.485 4 4 C2.35 3.67 0.7 3.34 -1 3 C-0.67 2.01 -0.34 1.02 0 0 Z " fill="#232234" transform="translate(246,262)"/>
<path d="M0 0 C3 3.75 3 3.75 3 6 C2.34 6 1.68 6 1 6 C0.67 6.66 0.34 7.32 0 8 C0 7.01 0 6.02 0 5 C-0.66 5 -1.32 5 -2 5 C-2 4.34 -2 3.68 -2 3 C-1.34 3 -0.68 3 0 3 C0 2.01 0 1.02 0 0 Z " fill="#BCBFC8" transform="translate(215,212)"/>
<path d="M0 0 C1.65 0.33 3.3 0.66 5 1 C5 1.66 5 2.32 5 3 C2 4 2 4 -1 3 C-0.67 2.01 -0.34 1.02 0 0 Z " fill="#2D2C3A" transform="translate(215,204)"/>
</svg>
