<?xml version="1.0" encoding="UTF-8"?>
<svg id="Layer_1" xmlns="http://www.w3.org/2000/svg" viewBox="0 0 63.99 71.05">
  <defs>
    <style>
      .cls-1, .cls-2 {
        fill: #fff;
      }

      .cls-3 {
        fill: #af76b2;
      }

      .cls-2 {
        fill-rule: evenodd;
      }
    </style>
  </defs>
  <rect class="cls-3" width="63.99" height="71.05"/>
  <path class="cls-1" d="M12.11,24.01c-1.46,2.6-4.75,3.53-7.35,2.07-2.6-1.46-3.53-4.75-2.07-7.35,1.46-2.6,4.75-3.53,7.35-2.07,2.6,1.46,3.53,4.75,2.07,7.35Z"/>
  <path class="cls-2" d="M5.09,25.49c2.28,1.28,5.16.47,6.43-1.81,1.28-2.28.47-5.16-1.81-6.43-2.28-1.28-5.16-.47-6.43,1.81-1.28,2.28-.47,5.16,1.81,6.43ZM4.76,26.08c2.6,1.46,5.89.53,7.35-2.07,1.46-2.6.53-5.89-2.07-7.35-2.6-1.46-5.89-.53-7.35,2.07-1.46,2.6-.53,5.89,2.07,7.35Z"/>
  <path class="cls-2" d="M55.99,50.75L7,22.46l1.01-1.7,48.99,28.3-1.01,1.7Z"/>
  <path class="cls-1" d="M61.53,52.54c-1.46,2.6-4.75,3.53-7.35,2.07-2.6-1.46-3.53-4.75-2.07-7.35,1.46-2.6,4.75-3.53,7.35-2.07,2.6,1.46,3.53,4.75,2.07,7.35Z"/>
  <path class="cls-2" d="M54.51,54.02c2.28,1.28,5.16.47,6.43-1.81,1.28-2.28.47-5.16-1.81-6.43-2.28-1.28-5.16-.47-6.43,1.81-1.28,2.28-.47,5.16,1.81,6.43ZM54.18,54.61c2.6,1.46,5.89.53,7.35-2.07,1.46-2.6.53-5.89-2.07-7.35-2.6-1.46-5.89-.53-7.35,2.07-1.46,2.6-.53,5.89,2.07,7.35Z"/>
  <path class="cls-1" d="M12.04,47.14c1.52,2.56.68,5.88-1.88,7.4-2.56,1.52-5.88.68-7.4-1.88-1.52-2.56-.68-5.88,1.88-7.4,2.56-1.52,5.88-.68,7.4,1.88Z"/>
  <path class="cls-2" d="M9.81,53.96c2.24-1.33,2.98-4.23,1.65-6.47-1.33-2.24-4.23-2.98-6.47-1.65-2.24,1.33-2.98,4.23-1.65,6.47,1.33,2.24,4.23,2.98,6.47,1.65ZM10.16,54.54c2.56-1.52,3.41-4.84,1.88-7.4-1.52-2.56-4.84-3.41-7.4-1.88-2.56,1.52-3.41,4.84-1.88,7.4,1.52,2.56,4.84,3.41,7.4,1.88Z"/>
  <path class="cls-1" d="M10.99,32.9c1.14,1.92.51,4.41-1.41,5.55-1.92,1.14-4.41.51-5.55-1.41-1.14-1.92-.51-4.41,1.41-5.55,1.92-1.14,4.41-.51,5.55,1.41Z"/>
  <path class="cls-2" d="M9.23,37.87c1.6-.95,2.13-3.02,1.18-4.62-.95-1.6-3.02-2.13-4.62-1.18s-2.13,3.02-1.18,4.62c.95,1.6,3.02,2.13,4.62,1.18ZM9.58,38.45c1.92-1.14,2.55-3.63,1.41-5.55-1.14-1.92-3.63-2.55-5.55-1.41-1.92,1.14-2.55,3.63-1.41,5.55,1.14,1.92,3.63,2.55,5.55,1.41Z"/>
  <path class="cls-1" d="M23.14,10.63c1.14,1.92.51,4.41-1.41,5.55-1.92,1.14-4.41.51-5.55-1.41-1.14-1.92-.51-4.41,1.41-5.55,1.92-1.14,4.41-.51,5.55,1.41Z"/>
  <path class="cls-2" d="M21.38,15.6c1.6-.95,2.13-3.02,1.18-4.62-.95-1.6-3.02-2.13-4.62-1.18-1.6.95-2.13,3.02-1.18,4.62.95,1.6,3.02,2.13,4.62,1.18ZM21.72,16.18c1.92-1.14,2.55-3.63,1.41-5.55-1.14-1.92-3.63-2.55-5.55-1.41-1.92,1.14-2.55,3.63-1.41,5.55,1.14,1.92,3.63,2.55,5.55,1.41Z"/>
  <path class="cls-1" d="M48.78,57.2c1.14,1.92.51,4.41-1.41,5.55-1.92,1.14-4.41.51-5.55-1.41-1.14-1.92-.51-4.41,1.41-5.55,1.92-1.14,4.41-.51,5.55,1.41Z"/>
  <path class="cls-2" d="M47.03,62.17c1.6-.95,2.13-3.02,1.18-4.62-.95-1.6-3.02-2.13-4.62-1.18-1.6.95-2.13,3.02-1.18,4.62.95,1.6,3.02,2.13,4.62,1.18ZM47.37,62.75c1.92-1.14,2.55-3.63,1.41-5.55-1.14-1.92-3.63-2.55-5.55-1.41-1.92,1.14-2.55,3.63-1.41,5.55,1.14,1.92,3.63,2.55,5.55,1.41Z"/>
  <path class="cls-1" d="M61.46,18.61c1.52,2.56.68,5.88-1.88,7.4-2.56,1.52-5.88.68-7.4-1.88-1.52-2.56-.68-5.88,1.88-7.4,2.56-1.52,5.88-.68,7.4,1.88Z"/>
  <path class="cls-2" d="M59.23,25.43c2.24-1.33,2.98-4.23,1.65-6.47-1.33-2.24-4.23-2.98-6.47-1.65-2.24,1.33-2.98,4.23-1.65,6.47,1.33,2.24,4.23,2.98,6.47,1.65ZM59.58,26.01c2.56-1.52,3.41-4.84,1.88-7.4-1.52-2.56-4.84-3.41-7.4-1.88-2.56,1.52-3.41,4.84-1.88,7.4,1.52,2.56,4.84,3.41,7.4,1.88Z"/>
  <path class="cls-1" d="M32.33,30.17c2.98-.04,5.43,2.35,5.47,5.33.04,2.98-2.35,5.43-5.33,5.47s-5.43-2.35-5.47-5.33c-.04-2.98,2.35-5.43,5.33-5.47Z"/>
  <path class="cls-2" d="M37.12,35.51c-.03-2.61-2.17-4.7-4.78-4.66-2.61.03-4.7,2.17-4.66,4.78.03,2.61,2.17,4.7,4.78,4.66,2.61-.03,4.7-2.17,4.66-4.78ZM37.79,35.5c-.04-2.98-2.49-5.37-5.47-5.33-2.98.04-5.37,2.49-5.33,5.47.04,2.98,2.49,5.37,5.47,5.33s5.37-2.49,5.33-5.47Z"/>
  <path class="cls-1" d="M32.33,58.89c2.98-.04,5.43,2.35,5.47,5.33.04,2.98-2.35,5.43-5.33,5.47-2.98.04-5.43-2.35-5.47-5.33-.04-2.98,2.35-5.43,5.33-5.47Z"/>
  <path class="cls-2" d="M37.12,64.23c-.03-2.61-2.17-4.7-4.78-4.66-2.61.03-4.7,2.17-4.66,4.78.03,2.61,2.17,4.7,4.78,4.66,2.61-.03,4.7-2.17,4.66-4.78ZM37.79,64.22c-.04-2.98-2.49-5.37-5.47-5.33-2.98.04-5.37,2.49-5.33,5.47.04,2.98,2.49,5.37,5.47,5.33,2.98-.04,5.37-2.49,5.33-5.47Z"/>
  <path class="cls-1" d="M32.33,1.82c2.98-.04,5.43,2.35,5.47,5.33.04,2.98-2.35,5.43-5.33,5.47s-5.43-2.35-5.47-5.33c-.04-2.98,2.35-5.43,5.33-5.47Z"/>
  <path class="cls-2" d="M37.12,7.16c-.03-2.61-2.17-4.7-4.78-4.66-2.61.03-4.7,2.17-4.66,4.78.03,2.61,2.17,4.7,4.78,4.66,2.61-.03,4.7-2.17,4.66-4.78ZM37.79,7.15c-.04-2.98-2.49-5.37-5.47-5.33-2.98.04-5.37,2.49-5.33,5.47.04,2.98,2.49,5.37,5.47,5.33s5.37-2.49,5.33-5.47Z"/>
  <path class="cls-2" d="M31,11.75h2v48h-2V11.75Z"/>
  <path class="cls-2" d="M7,49.02l49.01-28.27.99,1.73L7.99,50.75l-.99-1.73Z"/>
  <path class="cls-2" d="M33,7.09l-13.4,6.66-.6-1.34,13.4-6.66.6,1.34Z"/>
  <path class="cls-2" d="M46,60.07l-13.48,5.69-.52-1.31,13.48-5.69.52,1.31Z"/>
</svg>