<?xml version="1.0" standalone="no"?>
<!DOCTYPE svg PUBLIC "-//W3C//DTD SVG 20010904//EN"
 "http://www.w3.org/TR/2001/REC-SVG-20010904/DTD/svg10.dtd">
<svg version="1.0" xmlns="http://www.w3.org/2000/svg"
 width="2048.000000pt" height="2048.000000pt" viewBox="0 0 2048.000000 2048.000000"
 preserveAspectRatio="xMidYMid meet">

<g transform="translate(0.000000,2048.000000) scale(0.100000,-0.100000)"
fill="#000000" stroke="none">
<path d="M0 10240 l0 -10240 10240 0 10240 0 0 10240 0 10240 -10240 0 -10240
0 0 -10240z m10524 4245 c118 -29 130 -36 681 -350 253 -144 555 -315 670
-380 190 -107 682 -386 1070 -607 83 -47 263 -150 400 -228 334 -190 401 -243
504 -392 48 -72 108 -203 133 -293 21 -76 22 -105 27 -574 l6 -495 65 -12
c372 -71 678 -416 743 -835 l13 -84 95 -50 c121 -64 215 -134 300 -222 379
-395 409 -989 72 -1431 -161 -211 -424 -361 -739 -422 -88 -17 -145 -20 -353
-20 l-248 0 -11 -37 c-6 -21 -39 -85 -73 -143 -95 -162 -192 -251 -389 -361
-85 -48 -344 -193 -575 -324 -231 -131 -514 -291 -630 -355 -115 -65 -363
-204 -550 -310 -187 -106 -432 -244 -545 -307 -113 -64 -266 -151 -342 -194
-241 -140 -347 -177 -534 -186 -167 -8 -308 21 -456 96 -40 20 -242 134 -448
252 -206 119 -512 294 -680 389 -168 95 -339 192 -380 215 -264 150 -1206 683
-1307 740 -67 37 -144 86 -170 108 -62 51 -151 153 -192 222 -79 131 -141 327
-141 451 l0 51 -112 6 c-344 17 -675 164 -918 407 -199 200 -325 434 -387 722
-26 118 -25 428 0 548 69 323 232 587 495 802 l72 59 0 88 c0 387 225 754 568
929 54 27 138 61 188 77 l92 28 5 57 c13 122 93 320 172 426 56 74 133 151
200 199 54 38 580 341 1550 890 193 109 574 326 847 482 274 155 520 294 547
308 62 31 204 73 291 85 98 13 268 2 374 -25z"/>
<path d="M10105 14251 c-104 -29 -95 -24 -497 -252 -205 -117 -402 -229 -438
-249 -36 -20 -218 -124 -405 -230 -187 -107 -369 -210 -405 -230 -102 -58
-634 -360 -990 -564 -301 -172 -330 -191 -397 -260 -53 -54 -82 -96 -112 -157
-53 -112 -63 -158 -70 -329 l-6 -145 -95 -6 c-335 -22 -629 -264 -721 -595
-25 -86 -32 -268 -15 -374 l8 -55 -43 -24 c-146 -80 -290 -211 -379 -341 -184
-271 -238 -629 -144 -958 104 -366 402 -671 762 -782 140 -42 203 -50 428 -50
l202 0 4 -192 c5 -207 17 -267 75 -383 70 -137 150 -212 338 -317 207 -115
691 -389 985 -556 389 -222 876 -498 1245 -707 149 -84 336 -191 416 -237 199
-115 257 -133 424 -133 115 1 139 4 210 29 44 15 150 67 235 115 159 91 734
416 1150 651 305 172 1039 586 1345 757 280 158 326 190 390 275 76 100 155
287 155 366 0 21 5 21 368 24 361 4 369 5 471 31 428 112 684 426 682 837 -1
274 -119 512 -332 671 -76 56 -232 133 -305 150 l-50 11 -11 132 c-14 154 -43
259 -111 391 -64 123 -175 237 -283 289 -112 53 -212 76 -336 76 l-105 0 2
593 c3 583 2 593 -19 667 -35 119 -86 206 -171 290 -71 71 -101 90 -540 339
-256 145 -787 447 -1180 672 -1272 724 -1261 718 -1345 746 -110 36 -287 42
-390 14z m315 -249 c25 -8 130 -63 235 -122 608 -344 957 -542 1165 -661 129
-74 527 -301 884 -504 648 -370 761 -442 726 -466 -16 -11 -437 -250 -710
-404 -629 -354 -864 -485 -872 -485 -5 0 -109 57 -231 126 -122 70 -343 196
-492 279 -148 84 -327 185 -396 224 -69 39 -158 82 -198 96 -190 64 -388 56
-566 -23 -51 -22 -282 -151 -935 -520 -182 -102 -329 -182 -336 -182 -3 0 -43
22 -88 49 -166 100 -1287 736 -1417 804 -86 44 -88 51 -31 99 28 23 789 461
1667 958 632 358 1071 607 1170 665 50 28 104 57 122 64 79 32 214 33 303 3z
m-3325 -2027 c22 -13 61 -36 88 -50 26 -14 47 -28 47 -31 0 -3 -5 -2 -11 1 -5
4 -23 9 -38 11 -25 4 -29 1 -35 -27 -10 -51 -7 -336 3 -320 8 12 11 9 16 -12
9 -33 25 -36 25 -4 1 24 22 57 37 57 5 0 14 17 19 38 7 29 14 38 34 40 14 2
32 5 40 8 12 4 13 6 0 14 -11 7 -8 11 13 19 16 6 34 11 41 11 8 0 19 7 26 15
14 17 40 20 40 5 0 -5 4 -10 10 -10 5 0 7 7 3 16 -5 14 -2 14 28 -1 123 -63
490 -280 479 -283 -7 -3 -16 2 -21 9 -9 14 -12 6 -10 -22 2 -20 -30 -21 -42
-1 -10 15 -47 16 -47 1 0 -6 9 -13 20 -16 26 -7 26 -28 0 -46 -17 -12 -18 -16
-6 -20 9 -4 17 1 19 11 3 12 5 11 6 -5 1 -20 -4 -23 -39 -23 l-40 0 0 -40 0
-40 -40 0 -40 0 0 -40 0 -40 -42 0 c-47 -1 -76 -27 -80 -72 -1 -15 -9 -25 -20
-25 -11 -1 -16 3 -12 9 4 6 -2 6 -15 -1 -23 -13 -28 -23 -8 -20 36 4 59 -2 54
-15 -7 -17 26 -49 38 -39 4 5 4 2 0 -6 -6 -11 -4 -13 9 -8 10 4 15 3 11 -3 -4
-6 7 -13 22 -16 16 -3 35 -14 41 -25 9 -14 -9 -8 -67 23 -43 24 -78 45 -76 48
4 6 -5 8 -88 16 -57 6 -58 5 -97 -34 -36 -36 -40 -45 -40 -90 0 -38 6 -57 24
-79 12 -15 21 -34 19 -40 -5 -14 -25 -19 -21 -5 2 4 -3 22 -11 40 -9 22 -19
31 -28 28 -8 -4 -23 -6 -34 -6 -16 0 -19 -7 -19 -40 0 -33 3 -40 20 -40 17 0
20 -7 20 -40 0 -33 -3 -40 -20 -40 -17 0 -20 7 -20 40 0 39 -1 40 -36 40 -38
0 -63 -18 -65 -47 -1 -10 -5 -2 -9 17 l-7 35 -3 -45 c-2 -38 -3 -41 -10 -20
-4 14 -8 -99 -9 -250 -1 -229 1 -279 14 -295 14 -19 14 -18 15 15 1 19 4 29 7
22 6 -15 36 22 53 66 5 12 14 22 20 22 5 0 10 6 10 14 0 8 12 24 27 36 18 14
23 24 16 28 -8 5 -1 20 22 47 25 29 34 35 35 23 0 -22 13 -23 30 -3 7 8 21 15
31 15 12 0 19 7 19 18 0 13 12 22 40 31 22 6 40 16 40 21 0 6 15 10 33 10 45
0 111 59 113 100 2 31 -13 39 -34 18 -8 -8 -12 -9 -12 -1 0 6 5 13 12 15 12 4
-91 68 -109 68 -6 0 -17 7 -24 17 -13 15 -12 15 6 6 254 -132 525 -281 525
-288 0 -5 -22 1 -54 14 -34 14 -56 1 -56 -34 0 -13 -9 -26 -24 -33 -17 -8 -23
-17 -19 -30 3 -13 -6 -30 -29 -52 -18 -18 -27 -29 -20 -26 6 4 12 2 12 -3 0
-6 -9 -11 -20 -11 -13 0 -20 -7 -20 -20 0 -10 -6 -25 -13 -32 -22 -20 -8 -47
39 -74 87 -51 41 -32 -137 56 -99 50 -192 90 -206 90 -98 0 -171 -129 -113
-202 10 -14 88 -60 172 -103 84 -42 158 -82 163 -87 6 -6 -9 -1 -33 11 -23 12
-48 19 -54 15 -6 -4 -8 -3 -5 3 4 6 0 14 -9 17 -25 10 -62 7 -70 -6 -4 -7 -3
-8 4 -4 8 5 11 0 8 -16 -2 -13 -9 -22 -15 -20 -6 1 -11 -5 -11 -13 0 -10 -10
-15 -29 -15 -21 0 -30 -6 -35 -22 -7 -22 -7 -22 -15 -3 -7 17 -10 15 -21 -18
-8 -20 -16 -37 -20 -37 -3 0 -17 -10 -32 -23 -14 -13 -45 -32 -67 -43 -34 -15
-43 -26 -52 -59 -11 -42 -30 -83 -55 -125 l-16 -25 7 30 c4 22 3 26 -5 15 -5
-8 -10 -33 -11 -55 l-2 -40 -6 35 -7 35 -7 -34 c-4 -18 -7 -184 -7 -368 0
-262 3 -337 13 -347 15 -16 39 -3 50 27 3 9 13 17 22 17 8 0 15 6 15 14 0 7 9
25 20 39 11 14 20 37 20 52 0 33 21 55 54 55 14 0 26 4 26 10 0 5 17 18 38 29
37 19 43 21 62 21 6 0 10 5 10 10 0 6 -6 10 -14 10 -11 0 -9 9 7 40 12 22 30
40 39 40 20 0 94 67 85 77 -4 3 -1 13 5 22 10 13 10 14 -2 4 -18 -16 -44 -17
-34 -1 4 6 -3 4 -17 -5 -13 -9 -28 -17 -34 -17 -5 1 -1 6 10 13 11 7 21 20 21
30 2 16 0 16 -30 -2 -23 -15 -36 -17 -49 -9 -14 7 -16 13 -6 24 6 7 15 11 20
8 5 -3 6 1 3 9 -3 8 1 19 8 25 11 8 76 -22 283 -130 149 -77 275 -145 280
-150 6 -6 -8 -1 -30 10 -44 22 -82 24 -93 5 -11 -18 -80 -45 -84 -33 -2 5 -18
0 -37 -11 -26 -16 -31 -23 -21 -29 12 -7 11 -12 -3 -28 -9 -10 -17 -26 -17
-35 0 -10 -8 -17 -18 -17 -13 0 -22 -12 -30 -37 -7 -22 -8 -39 -3 -41 6 -2 5
-16 0 -35 -9 -29 -7 -35 23 -60 l33 -29 -47 23 c-26 12 -44 27 -41 32 3 6 1 7
-5 3 -7 -4 -38 7 -69 23 -32 17 -73 35 -90 40 -72 21 -150 -32 -160 -109 -8
-61 16 -101 82 -136 30 -15 52 -31 49 -36 -3 -4 1 -6 8 -3 7 3 27 -4 43 -15
20 -13 24 -20 13 -20 -9 0 -19 6 -21 13 -4 9 -8 9 -15 -2 -5 -7 -14 -11 -20
-7 -6 3 -13 -2 -17 -13 -3 -11 -12 -22 -20 -25 -8 -3 -15 -15 -15 -26 0 -18
-6 -20 -58 -20 -44 0 -61 -4 -74 -19 -8 -10 -36 -21 -62 -25 -45 -7 -46 -8
-47 -44 -1 -23 -3 -29 -6 -14 -6 31 -17 27 -31 -11 -18 -51 -15 -106 12 -185
25 -74 79 -162 98 -162 6 0 9 -3 5 -6 -10 -11 -92 43 -130 85 -42 46 -80 117
-97 180 -16 59 -21 3721 -5 3721 5 0 28 -11 50 -25z m6405 -3675 c-13 -73 -61
-168 -109 -218 -21 -22 -70 -58 -107 -79 -75 -43 -606 -344 -854 -483 -227
-129 -908 -513 -1035 -585 -122 -69 -751 -421 -887 -497 -48 -26 -91 -48 -97
-48 -17 0 -15 3909 2 3914 6 2 39 10 71 17 77 17 115 37 661 346 253 143 606
342 785 443 179 100 406 228 505 285 243 138 692 392 900 509 l170 96 3 -1823
c1 -1187 -1 -1841 -8 -1877z m-3049 3543 c58 -21 83 -34 529 -285 475 -267
599 -339 604 -347 3 -5 -74 -52 -172 -106 -97 -54 -316 -177 -487 -274 -415
-235 -457 -256 -546 -271 -89 -15 -207 -8 -281 17 -47 16 -264 135 -573 313
-161 93 -466 265 -512 289 -24 12 -43 26 -43 31 0 9 58 42 450 262 113 64 304
171 425 239 143 81 243 130 285 141 86 24 242 19 321 -9z m-3047 -44 c47 -27
45 -31 -4 -12 -22 9 -40 20 -40 25 0 12 5 10 44 -13z m-622 -531 c2 -178 2
-783 0 -1345 l-2 -1023 -191 0 c-212 0 -295 12 -419 61 -205 82 -373 237 -471
434 -122 247 -134 540 -30 769 88 194 230 334 443 436 79 37 89 45 109 87 l22
46 -27 94 c-66 229 -18 433 140 591 101 101 210 149 374 165 19 2 38 5 42 5 4
1 9 -143 10 -320z m1308 136 c0 -2 -9 0 -20 6 -11 6 -20 13 -20 16 0 2 9 0 20
-6 11 -6 20 -13 20 -16z m85 -44 c3 -6 -1 -7 -9 -4 -18 7 -21 14 -7 14 6 0 13
-4 16 -10z m95 -56 c0 -2 -9 0 -20 6 -11 6 -20 13 -20 16 0 2 9 0 20 -6 11 -6
20 -13 20 -16z m203 -112 l98 -56 -23 -18 c-16 -11 -24 -13 -27 -6 -2 7 1 14
8 16 6 2 9 8 5 13 -6 11 -24 12 -23 2 1 -5 1 -19 0 -32 -1 -24 -1 -24 -16 -5
-14 19 -14 19 -15 -3 0 -12 4 -23 10 -25 5 -1 -10 -28 -34 -58 -35 -43 -41
-56 -29 -61 13 -4 13 -8 -3 -24 -18 -18 -19 -17 -24 5 -5 22 -7 21 -40 -20
-29 -36 -35 -40 -40 -25 -5 13 -9 15 -14 7 -4 -7 -4 -16 -1 -22 3 -5 -10 -17
-29 -27 -31 -14 -36 -22 -36 -50 0 -42 -27 -45 -41 -4 -16 45 -39 48 -39 5 0
-19 4 -33 8 -30 12 7 36 -39 28 -53 -4 -7 -1 -9 7 -5 8 3 18 0 22 -5 3 -6 11
-8 17 -5 6 4 8 2 4 -4 -9 -15 13 -27 27 -13 6 6 15 11 21 11 5 0 1 -7 -10 -16
-17 -14 -17 -15 -1 -10 10 3 16 2 13 -3 -3 -4 17 -20 44 -35 28 -15 50 -29 50
-32 0 -3 -3 -3 -7 -1 -5 3 -91 50 -193 105 -249 134 -271 147 -263 157 5 4 3
5 -4 1 -13 -7 -143 60 -143 74 0 16 20 21 37 10 15 -9 14 -10 -7 -5 -14 3 -3
-6 25 -20 28 -14 56 -22 65 -19 8 4 21 6 29 5 9 -2 12 3 7 14 -5 13 1 16 39
14 25 -2 51 3 57 9 9 9 7 12 -10 12 -15 0 -22 6 -22 20 0 17 7 20 40 20 33 0
40 -3 40 -20 0 -11 5 -20 11 -20 6 0 9 18 8 44 -2 35 3 51 25 80 16 22 36 36
49 36 15 0 28 12 42 38 12 23 29 38 43 40 12 2 22 4 22 5 0 1 4 17 10 35 7 28
7 33 -5 28 -8 -3 -15 -1 -15 4 0 6 5 10 11 10 5 0 7 5 4 10 -7 12 51 -19 188
-98z m122 -72 c3 -5 1 -10 -4 -10 -6 0 -11 5 -11 10 0 6 2 10 4 10 3 0 8 -4
11 -10z m40 -28 c-3 -3 -11 0 -18 7 -9 10 -8 11 6 5 10 -3 15 -9 12 -12z
m-675 -92 c0 -33 -3 -40 -20 -40 -17 0 -20 7 -20 40 0 33 3 40 20 40 17 0 20
-7 20 -40z m900 -26 c63 -36 140 -79 170 -96 45 -25 109 -73 75 -56 -21 10
-50 21 -65 24 -20 4 -40 -15 -33 -32 4 -10 -2 -14 -21 -14 -17 0 -26 -5 -26
-16 0 -22 -41 -64 -62 -64 -15 0 -18 -9 -18 -50 l0 -50 -40 0 c-23 0 -58 -9
-80 -20 -22 -11 -57 -20 -80 -20 -22 0 -40 -4 -40 -10 0 -5 12 -10 28 -10 32
0 43 -7 60 -38 17 -30 7 -68 -14 -51 -8 6 -17 9 -21 5 -3 -3 -1 -6 6 -6 7 0 9
-5 6 -10 -4 -6 -1 -9 7 -8 7 2 12 -2 11 -9 -1 -6 4 -14 13 -17 8 -3 12 -2 9 4
-3 6 -1 10 5 10 7 0 9 -8 5 -19 -4 -13 0 -20 15 -24 11 -3 20 0 21 6 0 8 2 8
6 -1 2 -6 9 -10 14 -6 5 3 9 -2 9 -10 0 -21 18 -30 34 -16 11 8 16 8 20 -2 3
-7 3 -3 0 10 -5 21 -3 22 56 22 64 0 76 6 142 75 42 45 48 52 48 68 0 11 11
17 42 19 38 3 44 7 68 48 21 36 32 44 51 42 13 -1 20 1 14 5 -15 12 -17 33 -5
48 12 15 44 9 34 -6 -3 -5 1 -7 8 -4 12 4 286 -148 339 -188 l24 -19 -27 16
c-15 9 -35 17 -45 19 -10 1 -23 6 -30 10 -6 4 -15 2 -18 -4 -4 -5 -14 -8 -22
-5 -8 3 -11 1 -8 -4 3 -6 -1 -13 -9 -16 -9 -3 -16 -16 -16 -28 0 -18 -9 -26
-40 -36 -31 -10 -40 -18 -40 -36 0 -17 -11 -29 -40 -44 -22 -11 -40 -25 -40
-30 0 -6 -7 -10 -16 -10 -9 0 -28 -8 -42 -19 -15 -10 -44 -24 -64 -30 -44 -14
-50 -31 -12 -31 14 0 23 -4 19 -10 -9 -15 -65 -12 -66 3 0 6 -7 -6 -16 -27
-13 -31 -14 -41 -4 -44 17 -6 -16 -42 -38 -42 -24 0 -75 -34 -121 -80 -22 -22
-46 -40 -53 -40 -8 0 -20 -18 -27 -40 -7 -22 -18 -40 -24 -40 -25 0 -96 -46
-96 -62 0 -10 -6 -18 -14 -18 -7 0 -19 -7 -27 -16 -7 -8 -21 -13 -31 -11 -10
3 -18 4 -18 3 0 0 -4 -16 -9 -34 -9 -31 -7 -34 36 -67 25 -19 44 -35 41 -35
-9 0 -423 222 -433 232 -5 6 1 5 14 -2 17 -8 26 -9 34 -1 6 6 21 11 33 11 13
0 26 5 29 11 4 6 13 8 21 5 9 -3 23 8 37 29 12 19 28 35 35 35 6 0 12 5 12 12
0 29 45 108 61 108 10 0 20 4 24 9 3 6 -6 8 -22 5 -15 -3 -24 -2 -21 2 10 10
-11 46 -23 39 -5 -4 -9 -3 -9 2 0 14 -56 34 -75 27 -12 -5 -16 -4 -11 4 3 6
-2 16 -13 21 -29 16 -71 14 -71 -3 0 -10 -22 -16 -80 -21 -69 -6 -80 -10 -80
-26 0 -12 -7 -19 -20 -19 -22 0 -18 25 6 34 19 7 18 46 -1 46 -8 0 -15 7 -15
15 0 10 11 15 35 15 30 0 35 3 35 24 0 13 3 33 7 43 6 17 5 17 -18 -2 -13 -11
-18 -13 -11 -5 15 18 16 34 0 24 -7 -4 -8 -3 -4 4 9 14 46 -2 46 -20 0 -6 3
-8 6 -5 7 7 41 -11 225 -116 98 -56 123 -67 163 -67 39 0 52 6 82 33 30 28 37
42 41 83 8 81 -13 102 -225 220 -101 56 -185 104 -188 106 -2 3 17 6 43 6 27
1 63 7 81 13 26 8 32 16 32 38 0 15 4 31 8 37 15 16 44 103 38 113 -7 11 20
41 38 41 7 0 27 16 45 35 17 19 38 35 46 35 7 0 17 10 21 23 4 12 11 25 17 29
12 7 19 39 9 35 -4 -1 -17 8 -29 21 -13 12 -20 22 -15 22 4 0 59 -30 122 -66z
m-1097 -18 c4 -10 1 -13 -8 -9 -8 3 -12 9 -9 14 7 12 11 11 17 -5z m107 -22
c0 -2 -7 -4 -15 -4 -8 0 -15 4 -15 10 0 5 7 7 15 4 8 -4 15 -8 15 -10z m-435
-122 c-3 -3 -11 0 -18 7 -9 10 -8 11 6 5 10 -3 15 -9 12 -12z m40 -20 c-3 -3
-11 0 -18 7 -9 10 -8 11 6 5 10 -3 15 -9 12 -12z m1705 -8 c0 -2 -9 0 -20 6
-11 6 -20 13 -20 16 0 2 9 0 20 -6 11 -6 20 -13 20 -16z m80 -46 c0 -5 -11 -1
-25 8 -14 9 -25 18 -25 20 0 2 11 -2 25 -8 14 -6 25 -15 25 -20z m-1862 -100
l37 -3 -32 -17 c-18 -10 -52 -18 -78 -18 -57 0 -59 15 -7 78 l37 45 3 -41 c3
-39 5 -41 40 -44z m889 76 c-3 -3 -12 -4 -19 -1 -8 3 -5 6 6 6 11 1 17 -2 13
-5z m5768 -78 c192 -95 306 -343 279 -608 -11 -103 -4 -137 36 -176 24 -24 43
-31 106 -41 272 -40 467 -202 540 -446 12 -41 18 -92 18 -160 -1 -281 -175
-496 -474 -586 -71 -21 -96 -23 -440 -27 l-366 -3 3 73 c1 40 3 510 3 1045 l0
972 38 3 c88 7 184 -10 257 -46z m-5581 -13 c6 -14 -4 -16 -28 -7 -22 9 -20
20 4 20 11 0 22 -6 24 -13z m-508 -125 c4 -7 4 -10 -1 -6 -4 4 -14 3 -22 -4
-11 -8 -12 -7 -7 6 7 19 20 21 30 4z m831 -34 c-3 -3 -12 -4 -19 -1 -8 3 -5 6
6 6 11 1 17 -2 13 -5z m-10 -46 c-22 -14 -28 -8 -16 13 9 17 13 19 20 8 5 -8
3 -16 -4 -21z m1197 -73 c38 -14 90 -30 117 -36 l49 -11 0 -1955 c0 -1858 -1
-1955 -17 -1948 -21 7 -515 285 -523 293 -3 3 2 3 11 -1 9 -3 22 0 28 6 7 7
12 8 11 2 -5 -24 2 -24 40 0 22 14 44 25 50 25 5 0 10 5 10 11 0 6 11 19 24
30 20 16 23 24 18 69 -4 42 -2 50 13 50 13 0 10 9 -17 42 -30 38 -33 40 -36
20 -3 -18 -10 -22 -43 -22 -32 0 -39 3 -39 20 0 18 -7 20 -55 20 -34 0 -65 6
-80 16 -23 15 -25 15 -25 0 0 -10 -9 -16 -22 -16 -29 -1 -50 -18 -65 -52 -8
-19 -20 -28 -35 -28 -21 0 -21 -1 -3 -14 18 -13 32 -51 14 -40 -5 3 -6 11 -3
17 4 7 1 6 -7 -2 -12 -11 -11 -15 4 -25 44 -27 48 -36 7 -13 -25 14 -90 49
-145 79 -134 74 -365 207 -390 225 -19 14 -19 15 5 8 14 -4 28 -13 32 -19 5
-6 8 -7 8 -1 0 6 5 3 10 -5 8 -12 11 -13 19 -1 6 9 11 10 15 2 4 -6 1 -11 -6
-11 -7 -1 -2 -7 12 -15 27 -14 44 -10 20 5 -13 8 -12 10 2 10 10 0 17 3 17 8
-3 20 2 32 16 32 8 0 15 7 15 15 0 8 4 15 8 15 5 0 15 11 22 25 7 14 22 25 32
25 14 0 18 8 18 40 l0 40 40 0 c32 0 40 4 40 18 0 13 12 22 40 31 44 13 52 28
18 33 l-23 3 23 20 c12 11 22 27 22 37 0 10 5 18 11 18 6 0 20 11 31 25 11 14
28 25 39 25 10 0 19 5 19 10 0 6 -5 10 -11 10 -5 0 -7 5 -3 12 5 8 2 9 -10 5
-9 -4 -14 -3 -11 2 3 5 -3 12 -13 15 -10 4 -30 18 -43 32 -21 23 -18 22 34 -9
72 -44 130 -53 200 -33 189 55 243 304 91 420 -24 18 -42 35 -40 37 7 7 -46
12 -114 12 -75 -1 -129 -6 -127 -13 0 -3 -22 -28 -49 -56 -80 -80 -95 -184
-43 -286 17 -33 18 -40 5 -29 -14 12 -16 12 -10 -4 6 -15 4 -16 -16 -5 -13 7
-20 8 -16 1 4 -5 -2 -15 -13 -21 -11 -6 -18 -16 -16 -23 3 -6 -8 -20 -24 -29
-28 -15 -30 -22 -33 -80 l-3 -63 -20 23 c-11 12 -27 22 -37 22 -14 0 -18 -8
-18 -40 l0 -40 -147 0 -148 0 -12 -27 c-7 -15 -13 -33 -13 -40 0 -13 -19 -16
-75 -14 -22 1 -26 -1 -15 -8 8 -5 17 -8 21 -5 8 5 32 -23 35 -42 2 -10 -10 -7
-39 10 -23 13 -96 54 -162 91 -137 77 -325 186 -325 189 0 1 9 2 19 2 11 0 18
-3 15 -7 -2 -4 4 -10 13 -13 27 -9 38 -7 38 6 0 6 6 13 13 16 6 2 12 -1 12 -7
0 -6 5 -11 11 -11 6 0 9 7 5 15 -3 10 6 23 29 38 19 12 39 33 45 47 7 16 31
35 69 52 37 18 71 43 91 68 l32 40 -31 0 c-17 0 -31 3 -31 6 0 14 68 70 82 68
10 -1 13 8 12 32 -2 19 2 34 8 34 7 0 7 4 -1 14 -9 11 -6 18 15 35 16 12 21
21 13 22 -11 0 -11 2 -1 6 10 4 9 9 -5 19 -14 12 -10 12 21 -1 52 -21 96 -11
136 30 43 45 52 108 21 160 -11 20 -17 34 -12 31 5 -4 11 -3 14 1 2 5 2 2 1
-4 -2 -8 6 -13 19 -13 18 0 19 -2 7 -10 -23 -15 -2 -12 30 5 27 14 29 14 33
-8 3 -17 12 -4 40 56 l36 77 41 0 c31 0 40 -4 40 -17 0 -22 42 -63 64 -63 12
0 16 -10 16 -40 0 -33 7 -47 40 -80 37 -37 40 -44 40 -95 0 -44 3 -53 15 -49
8 4 12 10 9 15 -3 5 0 9 5 9 6 0 11 19 11 41 l0 42 100 -5 c54 -3 105 -9 112
-15 7 -6 43 -11 81 -12 l67 -1 0 55 c0 52 1 55 25 55 23 0 25 4 25 40 l0 40
-105 0 c-98 0 -105 1 -105 20 0 17 -7 20 -40 20 l-40 0 0 40 0 40 -40 0 -40 0
0 40 0 40 40 0 c35 0 40 3 40 23 1 19 5 17 38 -21 21 -24 46 -42 57 -42 11 0
29 -10 40 -22 l20 -23 5 44 c5 43 6 44 23 27 11 -11 17 -33 17 -62 l0 -44 60
0 60 0 0 -40 0 -40 40 0 40 0 0 -40 0 -40 40 0 c33 0 40 -3 40 -20 0 -17 7
-20 40 -20 l40 0 0 -60 0 -60 -53 0 -54 0 -13 -40 c-7 -22 -19 -40 -27 -40 -7
0 -13 -11 -13 -24 0 -13 -7 -27 -16 -30 -12 -4 -15 -2 -10 9 3 8 8 21 11 28 4
9 -4 13 -24 12 -22 0 -27 -3 -19 -12 6 -7 14 -10 19 -7 12 7 11 -10 -1 -22 -7
-7 -3 -17 10 -32 22 -23 27 -52 8 -52 -6 0 -4 -7 5 -18 20 -22 25 -174 6 -170
-24 6 -18 -20 8 -37 15 -10 32 -24 36 -32 4 -7 17 -13 27 -13 18 0 20 -7 20
-58 0 -45 4 -61 20 -75 17 -14 20 -29 20 -102 l0 -85 60 0 60 0 0 60 0 60 40
0 40 0 2 -102 1 -103 8 140 c3 77 8 169 9 205 l3 65 8 -45 c7 -43 6 24 -5 365
-2 81 -1 104 3 60 l7 -70 4 90 c3 50 3 108 1 130 l-5 40 -6 -40 c-6 -34 -7
-28 -9 33 l-1 72 -50 0 -50 0 0 40 c0 33 -3 40 -20 40 -17 0 -20 7 -20 39 0
29 -4 41 -17 44 -13 2 -8 8 20 22 22 11 37 26 37 37 0 15 8 18 44 18 l44 0 -5
-80 c-4 -57 -3 -80 6 -80 7 0 11 27 11 80 0 53 4 80 11 80 8 0 10 21 5 70 -5
52 -4 70 5 68 6 -2 14 3 16 10 3 6 -2 12 -10 12 -11 0 -15 11 -14 40 1 22 6
40 11 40 5 0 6 44 2 100 -12 191 -15 307 -7 260 7 -38 8 -32 6 33 -1 42 -5 80
-9 84 -3 3 -5 79 -4 167 l2 161 7 -120 c6 -106 4 -19 -5 247 0 20 -4 34 -8 31
-5 -2 -8 -46 -8 -96 0 -116 -5 -125 -59 -107 -24 8 -41 19 -41 28 0 9 -36 -22
-80 -68 -44 -46 -80 -78 -80 -72 0 7 -4 12 -10 12 -5 0 -10 -7 -10 -15 0 -22
-49 -43 -59 -26 -5 7 -7 -10 -5 -37 3 -32 0 -54 -8 -58 -8 -5 -9 -2 -5 9 3 9
2 27 -4 39 -9 22 -9 22 -5 -2 8 -38 -25 -56 -50 -29 -10 11 -69 50 -131 87
-62 36 -113 69 -113 72 0 11 43 9 64 -2 19 -10 20 -10 8 5 -12 14 -10 17 15
23 32 8 73 41 73 61 0 7 7 13 15 13 8 0 15 4 15 8 0 5 29 42 65 83 35 41 65
82 65 92 0 13 9 17 40 17 33 0 40 3 40 20 0 13 7 20 18 20 11 0 26 15 37 38
l20 37 3 -37 c2 -30 7 -38 23 -38 16 0 19 7 19 40 0 33 -3 40 -20 40 -12 0
-20 7 -20 18 0 10 9 25 20 35 15 12 20 29 20 62 0 38 3 45 20 45 11 0 20 7 20
15 0 8 6 25 13 36 10 17 10 23 0 26 -7 3 -13 12 -13 20 0 14 -3 13 -25 -1 -34
-22 -53 -20 -57 7 l-3 22 -20 -22 c-11 -13 -28 -23 -39 -23 -29 0 -95 -33 -96
-47 0 -7 -4 -13 -10 -13 -5 0 -10 -10 -10 -21 0 -18 -2 -19 -15 -9 -9 7 -18
10 -21 8 -8 -9 7 -58 17 -52 5 3 6 -2 3 -10 -4 -10 -1 -16 7 -16 11 0 11 -3
-1 -10 -13 -9 -13 -12 3 -21 20 -12 23 -31 4 -23 -8 3 -20 -11 -30 -34 -10
-23 -28 -44 -45 -51 l-27 -12 26 23 c35 31 49 60 49 103 0 39 -14 73 -39 92
-36 28 -328 187 -356 194 -25 6 -26 7 -7 8 13 1 32 -4 43 -10 32 -17 62 -20
70 -7 5 7 11 9 15 5 4 -4 1 -13 -7 -20 -8 -6 -12 -11 -10 -10 2 2 10 -2 17 -8
8 -7 14 -6 20 2 4 8 3 9 -4 5 -7 -4 -12 -2 -12 3 0 18 79 91 98 91 10 0 25 9
35 20 10 12 22 18 28 14 12 -7 49 24 49 41 0 11 104 85 119 85 4 0 18 11 31
25 13 14 29 25 37 25 7 0 13 7 13 15 0 8 -4 15 -10 15 -5 0 -10 5 -10 10 0 6
19 0 43 -14 23 -14 73 -37 111 -51z m-1131 38 c-3 -7 -9 -10 -14 -7 -14 8 -11
21 5 21 8 0 12 -6 9 -14z m-333 -193 c0 -5 -5 -10 -11 -10 -5 0 -7 5 -4 10 3
6 8 10 11 10 2 0 4 -4 4 -10z m695 -40 c3 -5 1 -10 -4 -10 -6 0 -11 5 -11 10
0 6 2 10 4 10 3 0 8 -4 11 -10z m-1250 -22 c5 4 5 2 1 -5 -8 -14 -36 -6 -36 9
0 7 5 6 13 -1 8 -6 18 -7 22 -3z m36 -25 c-6 -11 -11 -13 -11 -5 0 7 -5 10
-12 6 -7 -4 -8 -3 -4 5 4 6 12 9 17 6 5 -4 9 -1 9 6 0 7 3 10 6 6 3 -3 1 -14
-5 -24z m62 -19 c9 -4 17 -10 17 -15 0 -5 5 -9 11 -9 5 0 8 3 6 8 -8 12 97 11
111 -1 10 -8 16 -7 23 4 7 11 9 10 9 -6 0 -11 10 -29 23 -40 l22 -20 -35 -6
c-27 -5 -29 -7 -10 -8 20 -1 22 -3 10 -12 -12 -8 -12 -10 5 -8 38 3 56 -1 50
-11 -3 -5 -1 -10 5 -10 6 0 8 -4 5 -10 -3 -5 -1 -10 6 -10 7 0 10 -2 7 -5 -8
-8 -127 58 -122 67 3 4 -1 6 -8 3 -16 -6 -170 77 -176 95 -3 8 1 10 9 6 8 -3
22 -9 32 -12z m1157 -8 c0 -2 -8 -10 -17 -17 -16 -13 -17 -12 -4 4 13 16 21
21 21 13z m-31 -180 c10 -12 11 -19 2 -30 -8 -10 -9 -16 -1 -21 6 -4 10 -3 9
2 -1 4 -1 11 0 16 1 8 75 -29 166 -83 33 -19 73 -41 90 -49 l30 -13 -24 -19
c-13 -11 -31 -17 -38 -15 -8 3 -11 2 -8 -3 3 -5 -2 -26 -12 -45 -13 -28 -23
-36 -43 -36 -22 0 -29 -7 -40 -40 -13 -40 -40 -74 -40 -51 0 6 -7 11 -15 11
-8 0 -15 -4 -15 -8 0 -5 -16 -27 -35 -49 -19 -22 -31 -44 -27 -48 4 -5 2 -5
-5 -1 -18 10 -63 -15 -63 -36 0 -14 -8 -18 -39 -18 -40 0 -121 -43 -121 -64 0
-25 -46 -96 -62 -96 -11 0 -18 -8 -18 -20 0 -11 -18 -39 -40 -61 -22 -23 -41
-51 -41 -63 -1 -11 -2 -25 -4 -31 -1 -5 -3 -13 -3 -17 -1 -4 -38 13 -81 37
-44 24 -117 63 -162 85 -77 39 -81 43 -65 58 16 16 18 16 33 -3 13 -17 15 -17
10 -2 -4 11 -2 17 6 16 28 -3 47 2 47 14 1 18 47 67 64 67 8 0 20 17 27 38 11
33 42 72 58 72 3 0 12 9 19 20 7 11 9 20 5 19 -19 -3 -33 2 -33 12 0 6 14 8
38 5 25 -4 32 -3 22 3 -8 5 -19 7 -25 3 -5 -3 5 11 22 31 38 43 48 74 39 120
-5 27 -4 29 6 13 16 -28 16 -57 0 -89 -14 -30 -11 -44 7 -33 6 4 8 13 5 21 -4
9 1 18 12 22 9 3 25 14 34 22 9 9 37 33 63 55 47 38 58 60 35 69 -9 3 -2 15
18 34 34 30 74 90 74 111 0 6 -7 12 -15 12 -8 0 -15 5 -15 10 0 6 18 10 39 10
22 0 42 6 45 13 3 6 4 3 3 -7 -1 -10 4 -21 11 -23 7 -3 10 1 6 10 -3 8 -1 18
5 22 6 3 11 -2 11 -12 0 -15 2 -15 10 -3 5 8 5 19 1 25 -5 5 -9 17 -9 25 0 8
-3 28 -7 43 -3 15 -2 33 2 40 5 7 10 -7 13 -34 3 -26 12 -54 19 -63z m-1404 6
c-3 -3 -11 0 -18 7 -9 10 -8 11 6 5 10 -3 15 -9 12 -12z m387 -197 c103 -54
184 -103 181 -108 -3 -6 -1 -7 6 -3 11 7 101 -38 101 -50 0 -3 -5 -2 -11 1 -5
4 -19 -1 -30 -11 -11 -10 -20 -14 -19 -9 5 21 -1 27 -14 16 -10 -8 -16 -9 -21
-1 -3 5 -12 10 -18 10 -8 0 -7 -4 2 -9 12 -8 13 -14 3 -36 -13 -28 -38 -29
-36 -1 2 23 -24 20 -52 -6 -24 -24 -32 -58 -13 -58 5 0 7 -5 4 -10 -4 -6 -10
-8 -15 -5 -5 3 -11 1 -15 -5 -3 -5 -2 -10 4 -10 6 0 8 -7 4 -16 -5 -13 -8 -13
-15 -2 -7 9 -8 7 -5 -10 3 -12 1 -19 -4 -16 -16 9 -22 -25 -8 -43 8 -9 -27 5
-78 32 -51 26 -89 53 -86 58 3 6 1 7 -5 3 -14 -9 -234 108 -224 119 4 4 2 5
-4 2 -11 -6 -184 78 -184 89 0 3 8 0 18 -5 13 -7 23 -6 31 2 10 9 11 8 5 -6
-6 -17 -5 -18 31 -3 49 21 58 20 52 -4 -3 -14 1 -21 17 -26 11 -4 25 -12 29
-18 6 -8 10 -8 14 2 7 17 20 15 20 -3 0 -8 -5 -11 -10 -8 -5 3 -8 0 -5 -7 2
-8 23 -12 58 -12 65 0 102 10 93 25 -4 6 2 8 16 4 27 -7 63 23 38 32 -13 5
-10 13 18 46 30 35 34 37 35 18 0 -19 5 -22 32 -20 18 1 41 10 50 20 24 23 23
27 -6 21 -14 -2 -27 0 -31 6 -3 6 1 7 9 4 9 -3 16 -2 16 4 0 12 -60 38 -79 34
-7 -2 -10 1 -7 7 8 12 -29 24 -68 23 -16 0 -39 4 -50 9 -19 9 -20 9 -3 -4 10
-9 17 -28 17 -51 0 -29 4 -36 20 -36 12 0 20 -7 20 -16 0 -15 -2 -15 -25 0
-13 9 -31 16 -40 16 -8 0 -15 8 -15 18 0 10 -10 26 -22 37 -20 17 -21 20 -5
23 9 2 17 8 17 14 0 5 -7 8 -15 4 -14 -5 -13 -2 0 24 14 27 14 30 0 30 -9 0
-18 7 -21 15 -5 13 -41 31 -56 27 -3 -1 -9 6 -12 14 -4 10 29 -3 87 -34 50
-27 176 -93 279 -147z m-152 5 c0 -5 -4 -10 -10 -10 -5 0 -10 5 -10 10 0 6 5
10 10 10 6 0 10 -4 10 -10z m1724 -14 c-6 -16 -24 -13 -24 5 0 6 5 7 10 4 6
-3 10 -1 10 6 0 7 2 10 5 7 3 -3 3 -13 -1 -22z m-1904 -1 c0 -9 -9 -15 -22
-15 -22 1 -23 1 -4 15 25 19 26 19 26 0z m1690 -13 c-7 -3 -19 3 -28 13 -16
15 -15 16 12 4 15 -7 23 -15 16 -17z m-2140 -47 c-7 -9 -15 -13 -17 -11 -7 7
7 26 19 26 6 0 6 -6 -2 -15z m1472 -67 c-7 -7 -12 -8 -12 -2 0 14 12 26 19 19
2 -3 -1 -11 -7 -17z m-1510 -39 c3 -30 1 -46 -6 -46 -9 0 -13 39 -7 89 2 22 8
3 13 -43z m1218 -39 c8 -5 11 -10 5 -10 -5 0 -17 5 -25 10 -8 5 -10 10 -5 10
6 0 17 -5 25 -10z m-1155 -60 c3 -6 -1 -7 -9 -4 -18 7 -21 14 -7 14 6 0 13 -4
16 -10z m1825 -16 c0 -2 -9 0 -20 6 -11 6 -20 13 -20 16 0 2 9 0 20 -6 11 -6
20 -13 20 -16z m60 21 c0 -2 -6 -8 -13 -14 -10 -8 -14 -7 -14 2 0 8 6 14 14
14 7 0 13 -1 13 -2z m-1845 -25 c3 -5 2 -10 -4 -10 -5 0 -13 5 -16 10 -3 6 -2
10 4 10 5 0 13 -4 16 -10z m1873 -17 c-10 -2 -26 -2 -35 0 -10 3 -2 5 17 5 19
0 27 -2 18 -5z m-98 -19 c0 -8 -19 -13 -24 -6 -3 5 1 9 9 9 8 0 15 -2 15 -3z
m200 -30 c0 -2 -9 0 -20 6 -11 6 -20 13 -20 16 0 2 9 0 20 -6 11 -6 20 -13 20
-16z m-230 9 c0 -5 -8 -17 -17 -28 -14 -18 -15 -18 -9 -2 3 10 6 23 6 28 0 5
5 9 10 9 6 0 10 -3 10 -7z m-34 -91 c2 -67 26 -96 121 -147 49 -27 108 -59
133 -72 46 -25 75 -47 54 -41 -6 2 -20 -8 -31 -21 -15 -18 -20 -20 -20 -8 0 9
4 14 9 11 4 -3 8 5 8 18 -1 22 -1 22 -15 4 -8 -11 -15 -27 -15 -35 0 -13 -2
-13 -9 -3 -6 10 -11 6 -19 -16 -6 -17 -19 -33 -30 -36 -28 -9 -37 -36 -12 -36
13 0 20 -7 20 -20 0 -17 -7 -20 -39 -20 -41 0 -75 -25 -53 -39 6 -4 12 -41 14
-86 l3 -80 37 -20 c21 -11 38 -26 38 -33 0 -8 -16 -34 -36 -58 -33 -40 -41
-44 -80 -44 -26 0 -57 8 -76 20 -41 25 -48 25 -48 0 0 -13 -7 -20 -20 -20 -17
0 -20 -7 -20 -40 0 -33 -3 -40 -20 -40 -11 0 -20 -6 -20 -14 0 -22 -88 -26
-125 -7 -30 16 -30 16 48 19 l77 3 0 65 c0 63 -1 65 -22 59 -13 -4 -31 -9 -40
-11 -10 -3 -18 -12 -18 -20 0 -8 -7 -14 -16 -14 -22 0 -64 41 -64 63 0 10 -8
17 -20 17 -17 0 -20 -7 -20 -40 l0 -40 -40 0 c-26 0 -43 -5 -46 -14 -3 -8 -18
-19 -34 -26 -32 -13 -48 -40 -25 -40 23 0 18 -12 -17 -42 -31 -27 -32 -27 -13
-48 10 -11 14 -20 10 -20 -5 0 0 -6 10 -14 11 -8 23 -12 27 -10 5 3 8 0 8 -5
0 -15 -11 -13 -43 7 -15 10 -24 22 -20 27 5 4 2 5 -4 1 -7 -4 -60 18 -120 50
-118 62 -154 84 -136 84 7 0 15 -5 18 -10 4 -6 12 -10 18 -9 7 1 20 -1 29 -5
10 -5 27 -1 42 9 19 13 29 14 45 6 18 -10 23 -7 37 21 22 43 44 62 93 78 23 7
41 19 41 27 0 7 10 13 21 13 20 0 21 4 17 50 -4 39 -2 50 9 50 8 0 11 5 8 10
-3 6 0 13 9 16 8 3 18 19 21 35 4 16 14 33 24 38 9 5 23 21 30 35 8 14 18 23
23 20 4 -3 8 1 8 9 0 8 11 25 24 39 12 14 27 34 31 44 8 17 9 17 12 -3 3 -15
12 -23 24 -23 16 0 19 7 19 40 0 22 3 40 8 40 6 0 21 30 35 72 3 9 21 25 39
34 18 9 41 26 51 38 13 14 29 20 58 19 22 -1 39 3 39 10 0 5 -3 7 -7 4 -3 -4
-12 1 -20 11 -12 14 -14 14 -10 1 3 -9 -1 -16 -8 -16 -10 0 -11 5 -5 16 5 10
3 23 -6 36 -8 10 -14 27 -14 38 0 11 -4 15 -12 11 -8 -5 -9 -2 -5 11 5 11 1
22 -10 31 -15 12 -15 13 -2 8 10 -3 20 -1 24 5 9 16 10 14 11 -27z m-846 -8
c0 -2 -13 2 -30 11 -16 9 -30 18 -30 21 0 2 14 -2 30 -11 17 -9 30 -18 30 -21z
m1767 -36 c-2 -13 -4 -3 -4 22 0 25 2 35 4 23 2 -13 2 -33 0 -45z m-1707 6 c0
-2 -9 0 -20 6 -11 6 -20 13 -20 16 0 2 9 0 20 -6 11 -6 20 -13 20 -16z m80
-40 c0 -2 -9 0 -20 6 -11 6 -20 13 -20 16 0 2 9 0 20 -6 11 -6 20 -13 20 -16z
m674 -6 c-5 -8 -2 -9 11 -4 15 5 16 4 5 -9 -8 -10 -17 -12 -23 -6 -9 9 -2 31
9 31 3 0 2 -5 -2 -12z m588 -85 c-5 -42 -9 -37 -14 19 -3 26 -1 34 7 28 6 -5
9 -26 7 -47z m278 -13 l0 -40 -62 1 c-60 0 -62 1 -40 16 12 9 22 26 22 39 0
21 5 24 40 24 l40 0 0 -40z m98 -16 c1 16 4 27 7 24 8 -8 -7 -128 -16 -128 -5
0 -8 37 -7 83 1 70 2 76 8 37 5 -33 7 -37 8 -16z m-402 -42 c-18 -16 -18 -16
-6 6 6 13 14 21 18 18 3 -4 -2 -14 -12 -24z m29 -41 c-3 -6 -11 -11 -16 -11
-5 0 -4 6 3 14 14 16 24 13 13 -3z m-910 -13 c22 -75 23 -87 4 -118 -11 -17
-17 -35 -14 -40 3 -5 1 -12 -5 -15 -6 -4 -9 -3 -8 2 2 4 -1 9 -7 10 -5 0 -8
-4 -7 -10 2 -7 0 -9 -4 -5 -4 4 -13 3 -21 -4 -8 -6 -49 -13 -91 -15 -46 -2
-72 1 -63 6 8 5 9 11 3 15 -6 4 -14 0 -19 -7 -8 -14 -49 -40 -68 -43 -5 0 -16
-2 -22 -2 -7 -1 -13 -14 -13 -29 -1 -32 -69 -107 -77 -85 -10 26 -30 10 -48
-40 -10 -29 -24 -64 -31 -77 -13 -25 -9 -46 7 -36 5 4 17 1 26 -4 11 -6 13
-11 5 -11 -7 0 -10 -5 -7 -10 4 -6 -14 0 -39 12 -32 15 -42 25 -33 31 8 6 7 7
-5 3 -20 -6 -298 141 -298 158 0 6 5 5 12 -2 7 -7 27 -12 46 -12 19 0 31 -4
27 -10 -3 -5 0 -7 9 -4 8 3 12 12 9 20 -3 8 -1 14 5 14 5 0 24 3 41 6 24 5 31
3 31 -10 0 -9 8 -16 20 -16 17 0 20 7 20 40 0 33 -3 40 -20 40 -35 0 -22 26
20 40 39 13 52 33 28 44 -7 3 -1 3 14 0 24 -5 28 -2 37 33 6 21 20 52 31 68
l20 30 -23 18 c-12 10 32 -9 98 -44 66 -34 149 -77 184 -96 35 -18 74 -33 88
-33 39 0 89 26 112 58 23 33 28 99 11 133 -6 11 -7 19 -2 19 6 0 13 -10 17
-22z m660 13 c3 -5 2 -12 -3 -15 -5 -3 -9 1 -9 9 0 17 3 19 12 6z m279 -6 c3
-9 0 -15 -9 -15 -9 0 -12 6 -9 15 4 8 7 15 9 15 2 0 5 -7 9 -15z m-146 -12
c-10 -2 -28 -2 -40 0 -13 2 -5 4 17 4 22 1 32 -1 23 -4z m392 -83 l0 -80 -40
0 -40 0 0 40 c0 33 3 40 20 40 17 0 20 7 20 40 0 33 3 40 20 40 18 0 20 -7 20
-80z m-1206 -115 c-4 -8 -11 -15 -16 -15 -6 0 -5 6 2 15 7 8 14 15 16 15 2 0
1 -7 -2 -15z m987 -98 c10 -10 19 -20 19 -22 0 -3 -25 -5 -56 -5 l-56 0 31 39
c27 33 29 40 14 43 -15 3 -15 5 3 22 19 20 19 19 22 -20 2 -22 12 -47 23 -57z
m-1056 63 c-3 -5 -14 -10 -23 -10 -15 0 -15 2 -2 10 20 13 33 13 25 0z m-815
-46 c0 -2 -9 0 -20 6 -11 6 -20 13 -20 16 0 2 9 0 20 -6 11 -6 20 -13 20 -16z
m1610 -124 l0 -80 -40 0 -40 0 0 80 0 80 40 0 40 0 0 -80z m-1925 -18 c-3 -3
-11 0 -18 7 -9 10 -8 11 6 5 10 -3 15 -9 12 -12z m45 -22 c0 -5 -5 -10 -11
-10 -5 0 -7 5 -4 10 3 6 8 10 11 10 2 0 4 -4 4 -10z m2457 -112 c-3 -7 -5 -2
-5 12 0 14 2 19 5 13 2 -7 2 -19 0 -25z m-2257 0 c0 -6 -6 -5 -15 2 -8 7 -15
14 -15 16 0 2 7 1 15 -2 8 -4 15 -11 15 -16z m349 -176 c151 -80 270 -147 263
-150 -6 -2 -20 1 -31 7 -14 8 -21 8 -24 -2 -3 -9 -8 -9 -18 2 -8 8 -9 11 -3 8
6 -3 11 0 11 7 0 7 -6 13 -13 13 -7 0 -12 -3 -11 -6 1 -3 -4 -16 -11 -28 -8
-15 -9 -23 -2 -23 5 0 10 5 10 12 0 6 2 9 5 7 9 -9 -15 -77 -28 -76 -6 0 -29
-1 -50 -1 l-39 -2 30 -37 29 -38 -26 -26 c-26 -26 -26 -26 -113 -16 -61 7 -88
14 -88 23 0 10 -9 8 -32 -6 -41 -25 -48 -25 -48 0 0 12 7 20 18 20 9 0 26 17
38 39 l21 38 -38 44 c-25 29 -39 38 -39 28 0 -27 -86 -31 -130 -7 l-35 20 -32
-38 -32 -39 30 -3 30 -3 -32 -40 c-21 -27 -26 -39 -16 -39 11 0 16 -16 19 -62
3 -35 8 -71 13 -80 5 -13 3 -18 -8 -18 -21 0 -31 -17 -16 -26 8 -4 9 -3 5 4
-4 7 -1 12 10 12 11 0 15 -6 11 -19 -4 -15 0 -19 15 -16 12 3 18 0 15 -8 -6
-17 -11 -15 -138 57 -63 35 -175 98 -249 140 -74 41 -142 81 -151 88 -8 7 -10
10 -4 6 20 -13 44 -2 83 38 22 22 60 51 86 64 28 15 46 32 46 42 0 10 7 18 15
18 9 0 27 7 40 16 23 15 25 15 25 0 0 -9 7 -16 16 -16 22 0 64 41 64 63 0 10
8 17 19 17 11 0 23 12 31 30 13 32 70 80 70 60 0 -7 7 -4 16 5 14 13 19 14 25
3 5 -7 9 -8 9 -2 0 5 -5 15 -12 22 -9 9 -8 13 5 17 9 4 13 13 10 22 -7 18 -31
30 336 -165z m1316 -162 c-28 -12 -47 -12 -40 0 3 6 18 10 33 9 24 0 25 -1 7
-9z m-946 -36 c14 -12 -19 -1 -35 12 -18 14 -18 14 6 3 14 -6 27 -13 29 -15z
m-639 -74 l0 -40 -40 0 -40 0 0 40 0 40 40 0 40 0 0 -40z m1997 -117 c-3 -2
-13 -3 -23 -1 -16 3 -16 4 2 22 18 18 19 18 22 2 2 -10 1 -20 -1 -23z m-2042
-92 c3 -5 1 -12 -4 -15 -5 -4 -12 0 -14 6 -4 10 -8 9 -16 -2 -9 -13 -11 -13
-11 3 0 18 34 24 45 8z m37 -23 c-8 -8 -9 -4 -5 13 4 13 8 18 11 10 2 -7 -1
-18 -6 -23z m2175 -30 c-2 -13 -4 -3 -4 22 0 25 2 35 4 23 2 -13 2 -33 0 -45z
m-2197 -22 c14 -18 14 -19 -8 -7 -12 7 -20 17 -16 22 3 6 7 9 8 7 1 -2 8 -12
16 -22z m55 -36 c3 -6 -1 -7 -9 -4 -18 7 -21 14 -7 14 6 0 13 -4 16 -10z
m2152 -67 c-3 -10 -5 -2 -5 17 0 19 2 27 5 18 2 -10 2 -26 0 -35z m-2026 -4
l24 -20 -30 17 c-39 24 -40 24 -28 24 6 0 21 -9 34 -21z m1109 -39 c0 -5 -2
-10 -4 -10 -3 0 -8 5 -11 10 -3 6 -1 10 4 10 6 0 11 -4 11 -10z m-424 -339
c-3 -5 6 -14 22 -19 15 -6 38 -21 52 -32 24 -21 14 -17 -83 37 -7 4 0 23 9 23
3 0 3 -4 0 -9z"/>
<path d="M7636 11628 c3 -5 10 -6 15 -3 13 9 11 12 -6 12 -8 0 -12 -4 -9 -9z"/>
<path d="M7665 11617 c-5 -7 -12 -31 -13 -54 -4 -41 -3 -43 25 -43 23 0 31 6
40 31 15 38 10 49 -22 49 -18 0 -23 4 -19 15 7 18 3 19 -11 2z"/>
<path d="M7585 11530 c-3 -5 -1 -10 4 -10 6 0 11 5 11 10 0 6 -2 10 -4 10 -3
0 -8 -4 -11 -10z"/>
<path d="M7873 11486 c36 -34 52 -33 30 0 -9 15 -19 22 -21 15 -3 -9 -8 -9
-20 0 -10 6 -4 0 11 -15z"/>
<path d="M7500 11456 c-14 -14 -12 -32 5 -66 21 -41 39 -37 55 10 7 22 19 40
27 40 7 0 13 4 13 9 0 13 -89 18 -100 7z"/>
<path d="M7161 11224 c0 -11 3 -14 6 -6 3 7 2 16 -1 19 -3 4 -6 -2 -5 -13z"/>
<path d="M7180 11209 c0 -11 -4 -18 -9 -14 -19 11 -37 -202 -22 -250 9 -29 9
-29 11 -5 1 23 2 23 10 5 7 -16 9 -17 9 -3 1 9 5 19 10 22 4 3 6 -7 3 -22 l-4
-27 27 28 c18 19 33 26 44 22 9 -4 24 -8 34 -10 16 -4 16 -2 2 18 -8 12 -15
33 -15 47 l1 25 12 -28 12 -29 19 21 c11 12 14 21 8 21 -7 0 -12 -4 -12 -10 0
-5 -4 -10 -10 -10 -14 0 -12 31 5 80 12 35 13 49 3 77 -12 32 -14 33 -64 33
l-53 0 -4 -37 c-2 -21 -3 -14 -1 15 1 28 -2 52 -7 52 -5 0 -9 -9 -9 -21z"/>
<path d="M7380 11089 c0 -5 5 -7 10 -4 6 3 10 8 10 11 0 2 -4 4 -10 4 -5 0
-10 -5 -10 -11z"/>
<path d="M7321 10944 c0 -11 3 -14 6 -6 3 7 2 16 -1 19 -3 4 -6 -2 -5 -13z"/>
<path d="M7287 10916 c-4 -10 -5 -21 -2 -24 9 -9 17 6 13 25 -3 17 -4 17 -11
-1z"/>
<path d="M7676 10658 c3 -5 10 -6 15 -3 13 9 11 12 -6 12 -8 0 -12 -4 -9 -9z"/>
<path d="M7740 10246 c0 -2 7 -7 16 -10 8 -3 12 -2 9 4 -6 10 -25 14 -25 6z"/>
<path d="M7505 9050 c-3 -5 -1 -10 4 -10 6 0 11 5 11 10 0 6 -2 10 -4 10 -3 0
-8 -4 -11 -10z"/>
<path d="M8400 11130 c0 -5 7 -7 15 -4 8 4 15 8 15 10 0 2 -7 4 -15 4 -8 0
-15 -4 -15 -10z"/>
<path d="M8006 10863 c-6 -14 -5 -15 5 -6 7 7 10 15 7 18 -3 3 -9 -2 -12 -12z"/>
<path d="M8040 10870 c-9 -6 -10 -10 -3 -10 6 0 15 5 18 10 8 12 4 12 -15 0z"/>
<path d="M8125 10770 c-3 -6 1 -7 9 -4 18 7 21 14 7 14 -6 0 -13 -4 -16 -10z"/>
<path d="M8920 10353 c0 -20 3 -33 7 -29 11 10 12 66 2 66 -5 0 -9 -16 -9 -37z"/>
<path d="M8291 10277 c-18 -18 -12 -37 12 -37 16 0 23 6 23 20 0 23 -19 33
-35 17z"/>
<path d="M8871 10224 c0 -11 3 -14 6 -6 3 7 2 16 -1 19 -3 4 -6 -2 -5 -13z"/>
<path d="M8851 10194 c0 -11 3 -14 6 -6 3 7 2 16 -1 19 -3 4 -6 -2 -5 -13z"/>
<path d="M10112 10148 c-7 -7 -12 -26 -13 -42 0 -27 -2 -28 -9 -11 -8 18 -9
17 -9 -6 -1 -15 2 -42 6 -60 l7 -34 7 30 c6 27 7 25 8 -15 2 -41 3 -43 12 -20
10 25 16 157 7 165 -2 3 -10 -1 -16 -7z"/>
<path d="M10080 9706 c0 -14 5 -26 10 -26 6 0 10 9 10 19 0 11 -4 23 -10 26
-6 4 -10 -5 -10 -19z"/>
<path d="M10112 9700 c0 -14 2 -19 5 -12 2 6 2 18 0 25 -3 6 -5 1 -5 -13z"/>
<path d="M10050 9561 c0 -29 4 -41 14 -41 10 0 16 -14 19 -42 2 -24 4 -7 3 37
-1 68 -4 80 -18 83 -15 3 -18 -4 -18 -37z"/>
<path d="M9701 9184 c0 -11 3 -14 6 -6 3 7 2 16 -1 19 -3 4 -6 -2 -5 -13z"/>
<path d="M10122 8900 c0 -14 2 -19 5 -12 2 6 2 18 0 25 -3 6 -5 1 -5 -13z"/>
<path d="M10113 8200 c0 -25 2 -35 4 -22 2 12 2 32 0 45 -2 12 -4 2 -4 -23z"/>
<path d="M9360 8052 c0 -14 34 -32 60 -32 24 0 31 4 28 17 -2 13 -14 17 -46
18 -23 1 -42 -1 -42 -3z"/>
<path d="M9304 8035 c-25 -19 -14 -19 22 0 16 8 22 15 13 15 -8 0 -24 -7 -35
-15z"/>
<path d="M9495 8043 c-34 -8 -37 -19 -5 -18 17 0 30 5 30 12 0 7 -1 12 -2 12
-2 -1 -12 -3 -23 -6z"/>
<path d="M8921 8014 c0 -11 3 -14 6 -6 3 7 2 16 -1 19 -3 4 -6 -2 -5 -13z"/>
<path d="M9245 7991 c-3 -5 -2 -12 3 -15 5 -3 9 1 9 9 0 17 -3 19 -12 6z"/>
<path d="M9276 7984 c-6 -15 -4 -15 11 -3 10 7 20 15 22 16 2 2 -3 3 -11 3 -9
0 -19 -7 -22 -16z"/>
<path d="M9665 7990 c3 -5 8 -10 11 -10 2 0 4 5 4 10 0 6 -5 10 -11 10 -5 0
-7 -4 -4 -10z"/>
<path d="M9120 7970 c0 -11 5 -20 10 -20 6 0 10 9 10 20 0 11 -4 20 -10 20 -5
0 -10 -9 -10 -20z"/>
<path d="M9150 7961 c0 -5 5 -13 10 -16 6 -3 10 -2 10 4 0 5 -4 13 -10 16 -5
3 -10 2 -10 -4z"/>
<path d="M8900 7872 c0 -23 4 -28 25 -28 21 0 25 5 25 28 0 23 -4 28 -25 28
-21 0 -25 -5 -25 -28z"/>
<path d="M8640 7640 c0 -22 2 -40 4 -40 2 0 19 18 36 40 l32 40 -36 0 c-35 0
-36 -1 -36 -40z"/>
<path d="M8560 7620 c0 -13 7 -20 20 -20 13 0 17 5 14 14 -9 24 -34 28 -34 6z"/>
<path d="M9710 7552 c0 -6 -7 -9 -15 -6 -9 4 -15 0 -15 -10 0 -9 8 -16 19 -16
25 0 37 18 22 33 -8 8 -11 8 -11 -1z"/>
<path d="M9094 7535 c-19 -14 -18 -14 4 -15 13 0 22 6 22 15 0 19 -1 19 -26 0z"/>
<path d="M9405 7500 c3 -5 10 -10 16 -10 5 0 9 5 9 10 0 6 -7 10 -16 10 -8 0
-12 -4 -9 -10z"/>
<path d="M9740 7266 c0 -8 5 -18 10 -21 6 -3 10 3 10 14 0 12 -4 21 -10 21 -5
0 -10 -6 -10 -14z"/>
<path d="M9840 7080 c0 -33 3 -40 20 -40 17 0 20 -7 20 -40 0 -33 3 -40 20
-40 18 0 20 7 20 80 l0 80 -40 0 -40 0 0 -40z"/>
<path d="M10083 6800 c0 -47 2 -66 4 -42 2 23 2 61 0 85 -2 23 -4 4 -4 -43z"/>
<path d="M9356 6848 c3 -4 9 -8 15 -8 5 0 9 4 9 8 0 5 -7 9 -15 9 -8 0 -12 -4
-9 -9z"/>
<path d="M9920 6815 c0 -8 6 -15 13 -15 8 0 20 -18 27 -40 20 -60 40 -52 40
15 l0 55 -40 0 c-29 0 -40 -4 -40 -15z"/>
<path d="M10110 6602 c0 -12 1 -24 3 -26 1 -2 -20 -24 -46 -50 -54 -51 -53
-53 16 -94 49 -28 61 -28 46 0 -9 16 -9 23 0 26 17 6 14 123 -4 146 -15 19
-15 19 -15 -2z"/>
<path d="M8146 10053 c-6 -14 -5 -15 5 -6 7 7 10 15 7 18 -3 3 -9 -2 -12 -12z"/>
<path d="M9425 9710 c-3 -5 -1 -10 4 -10 6 0 11 5 11 10 0 6 -2 10 -4 10 -3 0
-8 -4 -11 -10z"/>
<path d="M8795 9480 c3 -6 -2 -10 -12 -11 -10 0 -13 -3 -6 -5 7 -3 20 -1 29 4
15 8 15 9 0 15 -10 4 -15 3 -11 -3z"/>
<path d="M8775 9020 c3 -5 8 -10 11 -10 2 0 4 5 4 10 0 6 -5 10 -11 10 -5 0
-7 -4 -4 -10z"/>
<path d="M7920 9813 c0 -15 37 -36 49 -28 5 3 12 0 14 -5 3 -6 4 -5 3 1 -1 7
-12 13 -25 14 -13 1 -27 8 -32 16 -6 9 -9 10 -9 2z"/>
<path d="M8160 9646 c0 -2 7 -6 15 -10 8 -3 15 -1 15 4 0 6 -7 10 -15 10 -8 0
-15 -2 -15 -4z"/>
<path d="M7715 9590 c-3 -6 1 -7 9 -4 18 7 21 14 7 14 -6 0 -13 -4 -16 -10z"/>
<path d="M7738 9573 c7 -3 16 -2 19 1 4 3 -2 6 -13 5 -11 0 -14 -3 -6 -6z"/>
<path d="M7974 9488 c-12 -14 -13 -18 -3 -10 9 6 18 10 21 7 2 -3 5 2 5 10 0
19 0 19 -23 -7z"/>
<path d="M8110 9436 c0 -2 7 -7 16 -10 8 -3 12 -2 9 4 -6 10 -25 14 -25 6z"/>
<path d="M9270 8970 c0 -6 7 -10 15 -10 8 0 15 2 15 4 0 2 -7 6 -15 10 -8 3
-15 1 -15 -4z"/>
<path d="M8947 8833 c-4 -3 -7 -11 -7 -17 0 -6 5 -5 12 2 6 6 9 14 7 17 -3 3
-9 2 -12 -2z"/>
<path d="M9200 8600 c0 -22 2 -40 4 -40 2 0 19 18 36 40 l32 40 -36 0 c-35 0
-36 -1 -36 -40z"/>
<path d="M8625 8380 c-3 -5 -1 -10 4 -10 6 0 11 5 11 10 0 6 -2 10 -4 10 -3 0
-8 -4 -11 -10z"/>
<path d="M8284 8544 c8 -9 19 -13 25 -10 14 9 14 26 0 26 -5 0 -7 -4 -4 -10 8
-13 -7 -13 -23 0 -7 5 -6 3 2 -6z"/>
<path d="M8178 8211 c27 -24 27 -27 0 -35 -22 -5 -22 -6 -3 -20 11 -9 27 -15
35 -15 9 0 4 6 -10 14 -24 14 -24 14 18 11 51 -4 64 10 25 25 -15 6 -41 17
-58 25 l-30 14 23 -19z"/>
<path d="M8134 8195 c-18 -14 -18 -14 3 -15 23 0 39 15 25 24 -5 3 -18 -1 -28
-9z"/>
</g>
</svg>
