<?xml version="1.0" standalone="no"?>
<!DOCTYPE svg PUBLIC "-//W3C//DTD SVG 20010904//EN"
 "http://www.w3.org/TR/2001/REC-SVG-20010904/DTD/svg10.dtd">
<svg version="1.0" xmlns="http://www.w3.org/2000/svg"
 width="2048.000000pt" height="2048.000000pt" viewBox="0 0 2048.000000 2048.000000"
 preserveAspectRatio="xMidYMid meet">

<g transform="translate(0.000000,2048.000000) scale(0.100000,-0.100000)"
fill="#000000" stroke="none">
<path d="M11095 14834 c-115 -13 -543 -62 -950 -109 -407 -46 -866 -98 -1020
-115 -1017 -111 -1766 -198 -1810 -211 -186 -52 -364 -236 -421 -435 -20 -69
-19 68 -22 -2477 l-2 -1717 -74 -36 c-242 -118 -420 -370 -466 -658 -19 -117
-8 -310 24 -421 72 -248 245 -461 455 -560 l60 -29 4 -835 c3 -933 -1 -881 75
-1026 95 -181 318 -315 527 -315 l63 0 6 -57 c9 -75 48 -155 94 -193 69 -57
104 -62 484 -58 338 3 344 3 388 27 92 48 130 107 138 214 l5 67 842 0 842 0
6 -58 c8 -94 58 -170 142 -215 39 -21 50 -22 415 -22 373 0 375 0 422 23 87
43 138 125 138 220 l0 42 404 2 404 3 6 -53 c11 -95 61 -166 141 -203 36 -17
70 -19 328 -19 311 0 323 2 395 57 42 32 82 114 82 169 l0 41 143 6 c100 4
162 12 207 26 203 63 349 231 386 442 12 73 14 504 12 3229 -3 2989 -4 3148
-21 3205 -25 85 -80 192 -130 252 -23 28 -139 132 -258 230 -118 98 -355 295
-525 438 -1121 941 -1267 1058 -1359 1100 -136 63 -235 68 -580 29z m408 -149
c89 -23 167 -68 225 -128 28 -31 52 -58 52 -61 0 -3 -33 12 -72 34 -87 47
-171 70 -251 70 -50 0 -58 -2 -48 -14 16 -19 -3 -31 -26 -16 -15 9 -14 10 7 5
23 -5 23 -5 6 6 -13 8 -47 10 -105 6 -112 -7 -445 -49 -451 -56 -3 -3 -32 -7
-65 -8 -33 -1 -124 -10 -202 -19 -119 -14 -140 -19 -125 -30 9 -7 20 -10 24
-8 5 3 8 -2 8 -10 0 -9 9 -16 20 -16 11 0 20 -4 20 -9 0 -5 17 -16 38 -24 l37
-15 -35 -6 c-51 -8 -323 -35 -405 -40 -52 -4 -60 -3 -30 3 l40 8 -37 2 c-44 1
-70 10 -63 22 3 4 13 5 23 2 16 -6 16 -6 0 10 -9 9 -23 17 -30 17 -8 1 -5 7 7
16 19 15 17 15 -25 10 -25 -4 -85 -11 -135 -16 -272 -31 -538 -72 -551 -84
-11 -12 -11 -15 2 -20 8 -3 12 -2 9 4 -7 11 25 11 70 0 28 -7 27 -8 -15 -9
-41 -2 -43 -3 -20 -13 14 -5 36 -12 50 -14 46 -9 35 -17 -15 -10 -36 5 -46 4
-35 -3 12 -9 10 -11 -10 -11 -22 0 -221 -20 -360 -35 -33 -4 -39 -3 -25 4 l20
10 -20 0 c-17 1 -18 3 -5 12 12 8 10 9 -8 4 -13 -4 -28 -2 -35 3 -7 5 -21 12
-32 16 -11 3 3 4 30 2 28 -1 41 -1 30 2 l-20 4 20 9 c40 16 -40 9 -321 -26
-363 -46 -566 -79 -535 -88 13 -3 32 -2 41 3 9 5 41 12 71 15 50 6 53 5 35 -9
-19 -16 -19 -16 5 -17 22 0 22 -1 4 -9 -18 -7 -16 -8 10 -12 43 -5 -227 -33
-310 -32 -38 1 -61 -2 -50 -6 28 -10 -122 -21 -165 -12 -26 6 -31 10 -17 15 9
3 17 11 17 18 0 8 -26 9 -92 4 -174 -13 -283 -50 -345 -119 -15 -17 -19 -23
-7 -13 22 18 49 23 39 7 -3 -5 0 -7 8 -4 8 3 18 0 23 -7 4 -7 2 -15 -4 -17
-23 -7 -12 -19 15 -16 25 2 23 0 -22 -43 -96 -93 -174 -247 -195 -388 -16
-103 -5 -323 21 -424 10 -41 32 -101 49 -134 16 -33 27 -64 24 -68 -3 -5 -1
-8 4 -7 10 3 97 -101 132 -157 22 -35 107 -105 153 -126 l28 -13 -78 -39 c-43
-21 -103 -60 -133 -86 -30 -25 -51 -40 -47 -33 5 6 3 12 -2 12 -6 0 -11 -5
-11 -12 0 -6 -2 -9 -5 -6 -12 12 9 39 26 35 12 -3 16 0 12 9 -3 8 -18 14 -34
14 -16 0 -29 5 -29 10 0 6 -4 10 -10 10 -16 0 -11 -32 8 -47 9 -8 12 -12 5 -9
-6 4 -15 0 -20 -8 -4 -8 -12 -16 -18 -18 -12 -4 -8 -42 5 -46 5 -2 1 -13 -10
-25 -11 -11 -18 -23 -15 -25 3 -3 18 9 34 26 21 21 28 37 25 54 -4 21 -4 21 5
3 6 -15 3 -30 -12 -55 -12 -19 -26 -38 -31 -42 -6 -4 -8 -8 -4 -8 4 0 -3 -24
-16 -52 -44 -101 -56 -173 -56 -349 0 -123 4 -180 17 -224 9 -33 17 -70 17
-82 1 -11 4 -19 7 -17 4 2 13 -11 20 -29 7 -17 23 -49 36 -69 22 -36 22 -74
-1 -61 -6 3 -3 -3 7 -14 12 -14 15 -23 8 -28 -6 -3 -11 -1 -11 6 0 7 -3 10 -6
6 -14 -13 7 -27 27 -17 14 8 19 7 19 -1 0 -8 4 -8 13 -1 8 7 16 6 24 -4 11
-11 7 -12 -23 -9 -22 3 -33 1 -29 -5 4 -6 12 -10 18 -9 7 1 19 1 27 0 20 -1
93 -98 85 -111 -4 -6 1 -7 11 -3 14 5 16 3 11 -11 -4 -9 -3 -15 2 -11 13 7 42
-5 35 -16 -3 -5 5 -9 17 -9 18 0 20 -2 8 -16 -10 -13 -10 -19 0 -36 7 -11 8
-17 2 -13 -6 3 -11 2 -11 -3 0 -6 -7 -13 -15 -16 -11 -4 -19 3 -25 19 -12 31
-35 32 -45 3 -4 -14 -8 -18 -12 -10 -6 14 -63 17 -63 2 0 -5 7 -10 15 -10 8 0
15 -8 15 -17 0 -11 -3 -14 -8 -7 -4 6 -18 15 -32 19 l-25 8 20 -24 c35 -41 48
-49 65 -36 8 6 0 -5 -19 -26 -19 -20 -38 -34 -43 -31 -5 3 -7 2 -6 -3 2 -4
-11 -28 -28 -53 -43 -62 -89 -162 -111 -240 -24 -88 -25 -376 -1 -463 9 -31
12 -54 7 -51 -16 9 -39 75 -37 103 1 15 -2 32 -6 40 -5 7 -9 91 -11 188 -2
164 -1 174 16 170 12 -3 16 0 12 9 -3 8 -11 14 -18 14 -8 0 -15 14 -18 33 -2
17 -5 -180 -5 -440 -1 -259 -6 -474 -10 -477 -5 -3 -28 -8 -50 -12 l-42 -7 0
2032 0 2032 21 62 c34 102 92 181 175 238 73 50 137 69 287 84 78 8 462 51
852 95 391 44 890 101 1110 125 220 25 733 83 1140 129 407 46 758 84 780 85
23 1 67 -6 98 -14z m-3 -201 c0 -6 7 -17 15 -24 33 -27 64 -181 55 -275 l-2
-30 -8 30 -8 30 -1 -27 c0 -16 -5 -28 -10 -28 -5 0 -12 12 -14 28 -3 20 -4 17
-6 -13 -1 -38 -4 -42 -46 -60 -42 -19 -45 -22 -40 -50 4 -22 -3 -14 -26 30
-39 73 -79 128 -133 178 -23 21 -36 37 -31 36 22 -3 29 2 15 11 -13 8 -12 10
3 10 9 0 17 -8 18 -17 0 -15 3 -14 11 4 9 18 16 21 36 16 17 -4 23 -2 18 6 -4
6 -14 11 -22 11 -12 0 -13 4 -3 21 8 16 8 23 -1 29 -9 6 -6 14 11 31 22 22 23
22 30 3 6 -17 8 -16 20 11 21 44 60 75 81 64 13 -7 16 -6 12 5 -3 8 -12 17
-20 20 -8 3 -14 11 -14 17 0 7 14 -3 30 -21 17 -18 30 -39 30 -46z m-553 38
c6 -4 -6 -7 -27 -7 -21 0 -33 3 -27 7 7 4 19 8 27 8 8 0 20 -4 27 -8z m60 -38
c-3 -3 -12 -4 -19 -1 -8 3 -5 6 6 6 11 1 17 -2 13 -5z m273 -134 c0 -5 -2 -10
-4 -10 -3 0 -8 5 -11 10 -3 6 -1 10 4 10 6 0 11 -4 11 -10z m783 -49 c50 -46
231 -199 617 -520 96 -80 254 -213 351 -296 97 -82 276 -233 398 -334 271
-226 318 -280 355 -411 l16 -55 -54 60 c-30 33 -125 121 -212 195 -86 74 -191
165 -233 201 -67 57 -211 180 -792 669 -75 63 -205 172 -290 242 -231 191
-219 177 -219 242 0 31 3 56 6 56 3 0 29 -22 57 -49z m-833 29 c0 -5 -2 -10
-4 -10 -3 0 -8 5 -11 10 -3 6 -1 10 4 10 6 0 11 -4 11 -10z m-160 -82 c56 -26
142 -95 160 -129 9 -15 8 -17 -6 -12 -14 5 -16 1 -10 -28 11 -62 19 -159 12
-159 -3 0 -15 6 -26 13 -15 9 -23 9 -28 1 -4 -7 -16 -13 -27 -15 -12 -3 -21
-14 -23 -27 -2 -12 -10 -22 -17 -22 -7 0 -20 -6 -27 -12 -45 -43 -198 -68
-198 -33 0 8 -5 15 -12 15 -9 0 -9 3 0 12 7 7 12 25 12 40 0 26 3 28 43 28 31
0 38 3 27 10 -8 5 -27 10 -42 10 -44 0 -34 26 12 34 36 6 40 9 40 36 0 19 5
30 14 30 8 0 24 12 35 26 11 14 25 23 30 20 6 -4 8 8 6 29 -3 31 0 35 20 35
13 0 35 -4 50 -10 14 -5 24 -6 21 -1 -9 13 -93 31 -156 33 -30 1 -112 -5 -182
-12 -108 -11 -125 -15 -110 -26 16 -12 16 -13 -3 -14 -19 -1 -19 -1 -2 -11 9
-6 27 -7 40 -4 17 5 19 4 7 -4 -8 -6 -33 -11 -55 -12 -22 -1 -32 -3 -22 -6 21
-6 21 -12 0 -43 -23 -33 -33 -40 -65 -40 -26 0 -28 -3 -28 -40 0 -29 -4 -40
-15 -40 -8 0 -15 -4 -15 -10 0 -5 7 -6 17 -3 10 4 14 2 10 -4 -4 -6 -1 -14 5
-17 14 -6 -132 2 -172 10 -20 4 -22 2 -10 -6 12 -9 9 -11 -12 -7 -16 2 -28 0
-28 -6 0 -6 -8 -3 -18 6 -10 10 -23 17 -28 17 -5 0 -2 -5 6 -10 8 -5 10 -10 4
-10 -18 0 -24 13 -13 27 13 15 5 17 -20 4 -15 -9 -18 -4 -20 40 -1 27 2 49 8
49 5 0 11 19 13 42 2 35 7 43 28 49 57 16 -65 8 -320 -21 -146 -17 -291 -33
-323 -37 -32 -3 -60 -9 -62 -13 -3 -4 19 -5 48 -2 75 7 98 7 138 -2 26 -6 40
-4 50 6 8 8 20 13 28 10 18 -6 -43 -32 -75 -32 -13 0 -24 -4 -24 -8 0 -10 48
-46 74 -55 17 -7 17 -6 5 10 -13 16 -12 17 4 4 24 -19 21 -31 -7 -31 -19 0
-25 -7 -34 -40 -9 -38 -9 -40 14 -40 20 0 24 -5 24 -31 0 -30 1 -30 45 -28 39
3 49 -1 68 -23 12 -14 36 -31 53 -37 23 -9 30 -18 27 -30 -3 -12 8 -27 34 -46
21 -16 40 -33 41 -37 2 -4 10 -8 18 -8 8 0 14 -10 14 -25 0 -16 6 -25 16 -25
14 0 15 -7 11 -37 -4 -21 -3 -32 2 -25 12 19 31 -30 25 -65 -9 -54 -15 -63
-41 -63 -18 0 -24 4 -19 15 3 8 1 15 -4 15 -6 0 -10 9 -10 20 0 14 -5 18 -17
13 -12 -5 -14 -3 -8 7 5 9 4 11 -4 6 -7 -4 -10 -13 -8 -19 5 -15 -62 -60 -79
-53 -8 3 -11 0 -7 -10 5 -12 -2 -15 -38 -12 -30 2 -43 7 -41 16 2 10 -6 12
-30 8 -18 -3 -27 -3 -20 0 6 3 9 10 6 16 -5 7 2 9 20 4 18 -4 25 -3 21 4 -3 5
0 10 9 10 24 0 75 58 81 94 9 45 -16 101 -57 126 -77 48 -178 -11 -178 -105 0
-25 6 -54 12 -65 9 -14 10 -22 1 -31 -8 -8 -13 -7 -18 2 -5 8 -4 10 3 5 7 -4
12 -1 12 6 0 7 -23 25 -50 40 -28 16 -50 32 -50 38 0 5 -9 10 -20 10 -18 0
-20 7 -20 80 0 73 -2 80 -20 80 -11 0 -20 5 -20 11 0 16 -57 70 -72 68 -35 -4
-39 1 -37 47 3 36 -2 52 -20 72 -18 20 -24 23 -31 12 -7 -12 -14 -11 -39 8
-21 15 -44 22 -77 22 -55 0 -56 8 -1 12 20 1 34 4 31 7 -3 3 -20 4 -39 3 -18
-2 -36 1 -39 6 -3 5 7 8 22 6 21 -3 20 -1 -8 8 l-35 12 47 6 c26 3 51 10 55
14 4 5 -5 6 -22 3 -16 -4 -66 -9 -110 -12 -44 -4 -165 -17 -270 -30 -104 -13
-218 -27 -252 -30 -65 -7 -78 -25 -17 -25 37 0 43 -10 18 -31 -15 -12 -14 -14
7 -20 13 -4 39 -7 57 -8 27 -1 32 -5 32 -26 0 -22 4 -25 40 -25 29 0 40 -4 40
-15 0 -8 -7 -15 -15 -15 -11 0 -15 -11 -15 -40 0 -29 4 -40 15 -40 11 0 15
-11 15 -40 0 -22 5 -40 10 -40 6 0 10 -16 10 -35 0 -30 -9 -45 -55 -92 -31
-30 -59 -53 -62 -50 -3 4 0 14 8 24 9 11 10 14 2 9 -8 -4 -13 -2 -13 4 0 6 -5
8 -12 4 -7 -5 -8 -9 -2 -11 6 -2 8 -23 4 -54 -4 -27 -3 -52 2 -55 4 -3 8 0 8
6 0 6 5 8 10 5 6 -3 10 -11 10 -16 0 -6 -4 -8 -9 -4 -5 3 -13 0 -17 -6 -4 -8
-11 -4 -20 12 -11 20 -13 21 -14 5 0 -17 -1 -17 -25 -2 -31 20 -98 21 -115 1
-10 -12 -16 -13 -28 -3 -13 11 -14 11 -7 -1 5 -9 -3 -8 -26 5 -51 29 -99 75
-99 96 0 10 -5 18 -11 18 -5 0 -7 -6 -3 -12 4 -7 4 -10 -1 -6 -4 4 -15 2 -24
-5 -9 -6 -3 3 12 21 17 22 27 45 27 66 0 36 -33 86 -56 86 -8 0 -14 7 -14 15
0 8 -4 15 -10 15 -5 0 -10 -4 -10 -8 0 -5 -12 -14 -27 -21 -21 -10 -28 -9 -36
1 -7 10 -8 9 -4 -2 3 -9 -4 -26 -14 -39 -19 -23 -20 -21 -23 19 -2 23 37 50
62 43 12 -3 22 -1 22 4 0 5 -8 9 -17 10 -59 5 -73 9 -73 21 0 6 -4 12 -10 12
-5 0 -10 18 -10 40 0 38 -2 40 -29 40 -17 0 -33 5 -36 10 -4 6 -11 8 -16 5 -5
-4 -9 -1 -9 4 0 6 -7 11 -16 11 -9 0 -14 -6 -11 -13 4 -10 -2 -13 -21 -10 -21
4 -24 2 -12 -6 12 -8 5 -11 -27 -11 -36 0 -43 3 -43 19 0 10 9 21 20 24 12 3
20 14 20 26 0 17 6 21 32 21 17 0 29 3 25 6 -7 7 -210 -12 -287 -27 -30 -6
-68 -18 -85 -26 -43 -21 -125 -77 -125 -85 0 -10 43 -6 60 6 8 6 12 7 8 2 -9
-11 16 -36 37 -36 9 0 29 -6 43 -14 15 -8 35 -17 46 -20 14 -5 17 -13 14 -36
-3 -17 0 -28 6 -27 6 1 11 -10 10 -26 -1 -15 1 -25 4 -22 11 11 11 39 0 52 -8
10 -6 13 10 13 16 0 22 -9 27 -39 5 -30 12 -41 31 -45 14 -4 24 -14 24 -24 0
-15 2 -15 11 -2 9 12 10 11 6 -7 -3 -13 1 -24 10 -27 11 -5 11 -10 3 -27 -7
-11 -8 -24 -4 -27 4 -4 9 -2 11 5 3 8 12 9 34 1 16 -6 40 -8 53 -6 20 4 23 1
21 -19 -2 -17 1 -21 10 -13 7 6 19 4 33 -6 14 -9 22 -11 22 -4 0 6 5 8 10 5 6
-4 5 -12 -4 -21 -16 -16 -30 -19 -22 -5 6 10 -24 25 -32 16 -3 -3 -1 -10 6
-17 10 -10 20 -13 65 -17 5 -1 5 -6 2 -11 -4 -6 -11 -7 -17 -4 -7 4 -8 2 -4
-4 4 -7 1 -12 -6 -12 -9 0 -9 -3 -2 -8 6 -4 14 -14 17 -22 4 -12 6 -11 6 3 2
28 35 20 49 -13 8 -17 18 -28 23 -24 5 3 9 0 9 -5 0 -6 3 -10 8 -9 4 1 19 -9
35 -24 22 -20 24 -27 12 -31 -9 -4 -12 -13 -8 -23 4 -12 3 -15 -5 -10 -7 4
-12 4 -12 0 0 -13 33 -44 47 -44 7 0 13 -11 13 -25 0 -19 -5 -25 -22 -26 -21
-1 -21 -2 -3 -6 11 -3 31 -10 45 -16 23 -10 22 -11 -25 -18 -27 -4 -126 -15
-219 -24 l-168 -17 -47 46 c-26 25 -53 46 -61 47 -11 0 -11 2 -2 6 16 6 15 23
-2 23 -8 0 -16 -7 -20 -15 -3 -8 -16 -14 -28 -14 -18 1 -19 2 -5 6 12 3 17 12
15 27 -3 25 38 84 45 64 2 -7 2 12 0 42 -6 79 -6 80 -13 75 -3 -2 -18 7 -33
21 -28 26 -52 31 -62 13 -4 -6 -14 -8 -22 -5 -8 3 -12 2 -9 -3 3 -5 -4 -11
-15 -14 -14 -4 -18 -10 -13 -19 4 -7 4 -10 -1 -6 -4 4 -14 3 -22 -3 -10 -9
-13 -8 -13 5 0 10 5 14 10 11 6 -3 10 -2 10 3 0 6 -6 12 -13 15 -8 3 -14 -5
-15 -21 -1 -14 -5 -28 -8 -31 -3 -3 -5 5 -4 19 6 65 1 76 -37 90 -21 8 -44 14
-50 14 -7 -1 -13 2 -13 7 0 5 8 9 19 9 14 0 17 6 13 25 -5 27 -17 33 -25 13
-2 -7 -12 11 -21 41 -10 35 -12 57 -6 61 5 3 12 20 14 38 2 18 -1 29 -6 26 -5
-3 -7 -12 -4 -20 3 -8 2 -14 -2 -14 -12 0 -34 -69 -26 -81 4 -7 3 -9 -3 -6
-32 20 -56 -407 -25 -458 11 -19 11 -19 12 4 0 21 4 23 40 19 22 -2 40 0 40 4
0 14 124 8 143 -6 9 -7 17 -23 17 -34 0 -20 4 -21 63 -17 47 3 52 2 22 -4 -39
-7 -40 -7 -10 -13 22 -4 16 -5 -22 -7 -30 0 -53 3 -53 9 0 6 -15 10 -32 9 -31
-1 -31 -1 -8 -9 l25 -7 -30 -8 c-30 -9 -129 5 -177 24 -35 13 -73 71 -106 162
-25 70 -27 84 -26 244 1 186 11 240 65 347 50 98 130 174 226 211 23 9 84 21
135 27 51 6 165 20 253 30 88 11 255 29 370 40 116 11 280 29 365 40 244 30
665 77 1030 115 633 65 905 94 975 104 39 5 115 8 170 7 82 -2 110 -7 155 -28z
m-2195 12 c-3 -5 -14 -10 -23 -10 -15 0 -15 2 -2 10 20 13 33 13 25 0z m25
-21 c0 -5 -4 -7 -10 -4 -5 3 -10 1 -10 -5 0 -6 -5 -8 -11 -4 -8 4 -7 9 2 15
19 12 29 11 29 -2z m53 -26 c-7 -2 -21 -2 -30 0 -10 3 -4 5 12 5 17 0 24 -2
18 -5z m-96 -9 c-3 -3 -12 -4 -19 -1 -8 3 -5 6 6 6 11 1 17 -2 13 -5z m-510
-40 c-3 -3 -12 -4 -19 -1 -8 3 -5 6 6 6 11 1 17 -2 13 -5z m160 0 c-3 -3 -12
-4 -19 -1 -8 3 -5 6 6 6 11 1 17 -2 13 -5z m-110 -10 c-3 -3 -12 -4 -19 -1 -8
3 -5 6 6 6 11 1 17 -2 13 -5z m-644 -31 c-7 -2 -19 -2 -25 0 -7 3 -2 5 12 5
14 0 19 -2 13 -5z m2979 -75 c-8 -8 -9 -4 -5 13 4 13 8 18 11 10 2 -7 -1 -18
-6 -23z m-1481 -96 c-7 -2 -18 1 -23 6 -8 8 -4 9 13 5 13 -4 18 -8 10 -11z
m-178 1 c-7 -2 -19 -2 -25 0 -7 3 -2 5 12 5 14 0 19 -2 13 -5z m-60 -10 c-7
-2 -19 -2 -25 0 -7 3 -2 5 12 5 14 0 19 -2 13 -5z m84 -9 c-3 -3 -12 -4 -19
-1 -8 3 -5 6 6 6 11 1 17 -2 13 -5z m143 2 c0 -2 -11 -6 -25 -8 -13 -3 -22 -1
-19 3 5 9 44 13 44 5z m-93 -12 c-3 -3 -12 -4 -19 -1 -8 3 -5 6 6 6 11 1 17
-2 13 -5z m1489 -19 c-1 -8 -5 -17 -8 -21 -5 -4 -4 16 1 34 3 9 9 -1 7 -13z
m-317 -37 c-2 -2 -16 -13 -30 -26 -20 -17 -29 -20 -34 -11 -5 7 -4 10 2 6 6
-4 18 2 28 13 10 11 23 20 28 20 6 0 8 -1 6 -2z m319 -49 c11 -16 16 -18 27
-9 8 7 12 16 9 21 -3 5 0 9 5 9 15 0 14 -13 -1 -29 -11 -10 -9 -11 6 -5 15 6
17 4 11 -6 -5 -8 -4 -11 3 -6 6 3 9 14 7 24 -2 14 4 18 28 20 28 1 34 -3 49
-36 11 -22 14 -38 8 -40 -6 -2 -10 -21 -10 -43 0 -21 -4 -39 -10 -39 -5 0 -10
-17 -10 -39 0 -30 4 -40 20 -44 13 -3 20 -13 19 -29 l0 -23 -10 23 c-9 24 -29
22 -29 -4 0 -8 -4 -14 -9 -14 -15 0 -34 70 -27 103 4 23 3 28 -4 17 -8 -13
-10 -12 -11 5 -1 11 -2 26 -2 33 1 6 -2 12 -7 12 -4 0 -12 11 -18 24 -6 13
-25 40 -42 60 -18 20 -28 36 -23 36 4 0 14 -9 21 -21z m929 -11 c-3 -7 -5 -2
-5 12 0 14 2 19 5 13 2 -7 2 -19 0 -25z m-1336 -17 c-12 -12 -21 -18 -21 -14
0 10 33 44 37 39 3 -2 -5 -14 -16 -25z m-2306 10 c-3 -6 2 -14 11 -19 26 -15
-1 -24 -30 -11 l-26 12 23 13 c28 16 29 16 22 5z m-85 -41 c0 -5 -4 -10 -10
-10 -5 0 -10 5 -10 10 0 6 5 10 10 10 6 0 10 -4 10 -10z m3723 -142 c-3 -68
-7 -125 -9 -127 -7 -7 -5 184 2 218 4 17 8 31 9 31 2 0 1 -55 -2 -122z m-1085
101 c36 -12 72 -64 72 -104 0 -104 -122 -165 -191 -96 -24 25 -29 38 -29 79 0
40 6 57 27 82 40 48 69 57 121 39z m-2718 -29 c0 -5 -5 -10 -11 -10 -5 0 -7 5
-4 10 3 6 8 10 11 10 2 0 4 -4 4 -10z m3120 0 c0 -5 -18 -10 -40 -10 -22 0
-40 5 -40 10 0 6 18 10 40 10 22 0 40 -4 40 -10z m-3043 -27 c-3 -3 -11 -2
-17 2 -9 6 -9 10 1 16 14 8 27 -7 16 -18z m428 -33 c-3 -5 -11 -10 -16 -10 -6
0 -7 5 -4 10 3 6 11 10 16 10 6 0 7 -4 4 -10z m2615 -45 c0 -8 -4 -15 -10 -15
-5 0 -10 7 -10 15 0 8 5 15 10 15 6 0 10 -7 10 -15z m-2735 -34 c-3 -6 -11
-11 -16 -11 -5 0 -4 6 3 14 14 16 24 13 13 -3z m12 -33 c0 -13 -1 -17 -4 -10
-3 6 -9 10 -14 6 -5 -3 -9 -1 -9 5 0 5 6 12 13 14 6 3 12 6 12 6 1 1 1 -9 2
-21z m90 -15 c-3 -10 -5 -4 -5 12 0 17 2 24 5 18 2 -7 2 -21 0 -30z m2894 10
c8 -9 9 -14 3 -10 -7 4 -11 -3 -11 -18 0 -14 4 -28 9 -31 14 -9 -22 -44 -38
-37 -8 3 -11 9 -8 15 3 5 12 7 19 4 10 -3 12 8 9 45 -1 27 -1 49 0 49 2 0 10
-8 17 -17z m-2873 -58 c-3 -3 -9 2 -12 12 -6 14 -5 15 5 6 7 -7 10 -15 7 -18z
m3299 -7 c-3 -8 -6 -5 -6 6 -1 11 2 17 5 13 3 -3 4 -12 1 -19z m-3424 -1 c7 3
9 3 5 -2 -4 -4 -3 -14 3 -22 6 -7 8 -13 4 -13 -4 0 -14 8 -21 18 -12 15 -13
13 -9 -16 3 -28 1 -31 -11 -21 -11 9 -14 9 -14 0 0 -7 -5 -9 -11 -6 -6 5 -4
12 8 22 10 8 12 11 4 7 -9 -5 -7 2 5 18 10 15 21 22 22 17 2 -5 9 -6 15 -2z
m2149 -117 c40 -66 173 -98 268 -65 23 8 47 12 53 8 5 -3 7 -1 4 4 -4 6 0 14
9 17 8 3 12 2 9 -3 -3 -6 8 -17 24 -27 18 -11 27 -23 24 -34 -5 -19 -58 -27
-383 -55 -96 -9 -206 -18 -244 -22 -55 -5 -67 -3 -61 7 4 7 2 16 -6 22 -9 6 4
8 41 4 37 -3 47 -2 30 4 -17 5 -19 8 -7 9 13 1 17 10 17 39 l0 37 45 -3 c45
-4 45 -4 36 21 -10 26 2 47 26 47 7 0 13 9 13 19 0 11 7 27 16 35 8 9 11 16 6
16 -5 0 -9 7 -9 15 0 15 60 -49 89 -95z m-1971 67 c-10 -9 -11 -8 -5 6 3 10 9
15 12 12 3 -3 0 -11 -7 -18z m1504 5 c-3 -3 -11 0 -18 7 -9 10 -8 11 6 5 10
-3 15 -9 12 -12z m1745 -84 c6 -82 6 -248 1 -648 -3 -200 -7 -288 -10 -230
l-6 95 -7 -63 c-4 -35 -14 -70 -22 -78 -19 -18 -26 -18 -26 1 0 9 -7 18 -15
21 -8 4 -15 14 -15 23 0 9 -5 22 -12 29 -9 9 -9 12 2 12 10 0 9 4 -3 18 -10
10 -17 22 -17 25 0 10 24 4 32 -8 4 -5 10 -2 14 8 3 9 12 17 19 17 19 0 17 62
-3 77 -13 10 -14 13 -2 11 10 -2 16 9 20 37 l6 40 7 -53 c18 -125 26 -92 26
116 1 181 -1 211 -13 200 -18 -18 -32 -158 -17 -167 6 -4 8 -22 4 -44 -6 -37
-6 -37 -54 -37 -28 0 -49 -5 -49 -11 0 -5 -5 -7 -11 -4 -7 5 -4 14 7 26 9 11
15 20 13 22 -2 1 -20 10 -40 19 -27 12 -39 14 -48 5 -8 -8 -14 -8 -23 2 -9 10
-9 12 -1 7 6 -3 14 -2 18 4 3 5 -1 10 -9 10 -8 0 -20 -8 -25 -19 -9 -15 -7
-18 7 -17 12 1 16 -5 14 -22 -2 -12 0 -22 5 -21 25 4 35 -1 24 -14 -6 -8 -7
-17 -3 -22 4 -4 -25 24 -65 63 -40 39 -82 73 -93 77 -11 4 -18 11 -14 16 3 5
2 8 -3 7 -4 -1 -28 6 -53 16 -34 15 -40 20 -25 23 11 2 37 11 58 19 44 16 71
18 62 4 -3 -5 1 -10 10 -10 13 0 14 4 5 20 -6 11 -7 20 -3 20 5 0 16 -9 26
-20 10 -12 12 -20 5 -20 -6 0 -9 -2 -7 -5 3 -2 25 2 49 9 37 11 46 18 48 40 3
26 6 27 43 21 37 -6 53 5 29 20 -5 3 -10 20 -10 36 0 17 -4 28 -9 24 -17 -10
-21 12 -6 25 11 9 15 9 15 1 0 -7 5 -9 11 -5 8 4 7 9 -2 15 -11 6 -10 11 3 26
39 45 115 226 109 261 -1 6 4 12 11 12 10 0 15 -19 18 -62z m-3312 22 c-7 -10
-14 -17 -17 -15 -4 4 18 35 25 35 2 0 -1 -9 -8 -20z m99 4 c-3 -3 -12 -4 -19
-1 -8 3 -5 6 6 6 11 1 17 -2 13 -5z m-37 -8 c0 -2 -7 -7 -16 -10 -8 -3 -12 -2
-9 4 6 10 25 14 25 6z m441 -38 c4 -62 1 -93 -7 -90 -11 3 -12 112 -1 112 4 0
8 -10 8 -22z m33 6 c4 -10 1 -14 -6 -12 -15 5 -23 28 -10 28 5 0 13 -7 16 -16z
m-237 -46 c-3 -8 -6 -5 -6 6 -1 11 2 17 5 13 3 -3 4 -12 1 -19z m237 6 c3 -8
2 -12 -4 -9 -6 3 -10 10 -10 16 0 14 7 11 14 -7z m-219 -43 c3 -5 2 -12 -3
-15 -5 -3 -9 1 -9 9 0 17 3 19 12 6z m225 -13 c0 -13 -4 -30 -10 -38 -6 -10
-8 -3 -7 23 2 39 17 52 17 15z m-66 -6 c2 -4 -4 -8 -14 -8 -10 0 -16 4 -14 8
3 4 9 8 14 8 5 0 11 -4 14 -8z m-104 -28 c0 -2 -9 0 -20 6 -11 6 -20 13 -20
16 0 2 9 0 20 -6 11 -6 20 -13 20 -16z m-1000 -33 c-6 -12 -15 -21 -21 -21 -6
0 -3 7 5 16 9 8 16 20 16 26 0 6 3 9 6 6 3 -4 1 -16 -6 -27z m2347 23 c-3 -3
-12 -4 -19 -1 -8 3 -5 6 6 6 11 1 17 -2 13 -5z m-1617 -14 c0 -12 -8 -12 -35
0 -18 8 -17 9 8 9 15 1 27 -3 27 -9z m101 -13 c-10 -9 -11 -8 -5 6 3 10 9 15
12 12 3 -3 0 -11 -7 -18z m-806 -7 c3 -5 1 -10 -4 -10 -6 0 -11 5 -11 10 0 6
2 10 4 10 3 0 8 -4 11 -10z m1865 0 c0 -5 26 -10 57 -10 31 0 54 -2 52 -4 -2
-2 -112 -14 -244 -26 -132 -12 -289 -28 -349 -36 -185 -24 -204 -19 -148 42
18 20 35 29 47 26 11 -2 38 -5 60 -7 22 -1 54 -3 70 -4 30 -2 30 -3 7 -14 -16
-7 -26 -7 -30 0 -8 11 -82 5 -82 -7 0 -13 99 -21 171 -14 46 4 69 11 69 20 0
10 25 12 108 10 59 -1 96 0 82 2 -53 8 -38 18 17 11 32 -4 59 -6 62 -3 2 2 -3
4 -12 4 -9 0 -17 5 -17 10 0 6 18 10 40 10 22 0 40 -4 40 -10z m-367 -37 c-7
-2 -19 -2 -25 0 -7 3 -2 5 12 5 14 0 19 -2 13 -5z m-1529 -29 c23 -9 20 -24
-4 -24 -11 0 -20 7 -20 15 0 17 2 18 24 9z m1194 -31 c-10 -2 -26 -2 -35 0
-10 3 -2 5 17 5 19 0 27 -2 18 -5z m-151 -9 c-3 -3 -12 -4 -19 -1 -8 3 -5 6 6
6 11 1 17 -2 13 -5z m-90 -10 c-3 -3 -12 -4 -19 -1 -8 3 -5 6 6 6 11 1 17 -2
13 -5z m2486 -267 c55 -25 177 -129 177 -151 0 -6 -5 -5 -12 2 -20 20 -29 14
-22 -14 6 -21 4 -25 -7 -19 -9 5 -7 1 3 -11 11 -13 19 -44 22 -89 4 -47 3 -60
-3 -40 l-9 30 -2 -30 c-1 -18 -4 -23 -7 -12 -6 23 -83 25 -83 2 0 -8 -4 -15
-10 -15 -5 0 -10 18 -10 40 0 38 -2 40 -30 40 -25 0 -30 -4 -30 -25 0 -22 -4
-25 -40 -25 -34 0 -40 3 -40 20 0 19 -2 20 -30 5 -39 -20 -68 -19 -106 4 -18
11 -42 21 -55 23 l-24 3 25 25 25 25 3 -27 c2 -16 9 -28 18 -28 10 0 14 13 14
45 0 36 5 51 25 69 14 13 25 28 25 35 0 6 15 11 33 12 l32 1 -35 9 c-36 10
-153 6 -325 -12 -490 -48 -809 -79 -827 -79 -19 0 -20 -2 -8 -10 8 -5 32 -10
53 -10 24 0 37 -5 37 -14 0 -10 -15 -13 -57 -12 -32 0 -50 2 -40 4 24 5 21 19
-5 26 -32 8 -248 -5 -248 -16 0 -4 11 -8 24 -8 13 0 32 -3 40 -6 27 -10 -1
-34 -40 -34 -19 0 -34 -4 -34 -8 0 -5 -19 -17 -42 -28 -33 -15 -60 -18 -136
-15 -53 1 -101 8 -109 14 -7 7 -19 17 -27 23 -7 7 -21 14 -32 18 -10 3 0 3 22
1 23 -3 63 2 90 10 31 9 52 11 58 5 6 -6 21 -10 36 -10 18 0 21 3 11 9 -11 7
-10 10 5 14 26 8 -80 0 -336 -23 -118 -11 -269 -25 -335 -31 -143 -13 -173
-24 -67 -24 42 0 82 4 89 8 6 4 13 2 15 -5 3 -7 19 -11 41 -10 20 2 37 -2 37
-8 0 -5 -10 -10 -22 -10 -31 0 -58 -29 -58 -62 0 -16 -5 -28 -12 -28 -7 0 5
-17 27 -37 37 -35 38 -38 18 -41 -22 -3 -22 -5 -8 -32 22 -42 19 -53 -10 -34
-22 15 -25 15 -25 1 0 -14 -4 -14 -35 -1 -40 16 -68 19 -45 4 13 -8 12 -10 -3
-10 -10 0 -28 -10 -40 -23 l-23 -22 -1 37 c-1 23 3 38 13 42 20 8 18 26 -3 26
-10 0 -14 3 -8 8 6 4 19 24 30 45 20 38 20 39 1 53 -11 8 -26 14 -35 14 -15 0
-111 58 -122 74 -4 5 -53 4 -125 -3 -387 -36 -561 -59 -488 -62 14 0 15 -2 4
-6 -10 -4 -1 -11 25 -19 l40 -13 -40 5 c-28 4 -36 2 -26 -4 11 -8 7 -17 -21
-46 -31 -32 -41 -36 -85 -36 -37 0 -53 4 -57 16 -3 8 -2 13 3 10 5 -3 11 5 13
19 6 30 -4 31 -48 4 -113 -69 -217 -289 -212 -449 l2 -65 3 55 c3 37 7 50 13
40 7 -12 13 -10 34 10 15 13 26 32 26 42 0 11 11 23 25 28 16 6 25 17 25 31 0
16 5 20 28 18 34 -4 53 7 45 26 -3 8 -1 15 4 15 5 0 10 -12 11 -27 1 -14 9
-34 18 -44 9 -10 14 -21 11 -26 -3 -4 16 -9 42 -11 34 -1 51 -8 64 -25 10 -12
27 -32 37 -44 10 -12 16 -24 13 -26 -3 -3 0 -14 7 -24 10 -16 10 -16 5 5 -4
15 -2 22 7 22 15 0 48 -81 48 -116 0 -11 7 -29 15 -40 8 -10 15 -31 15 -46 0
-15 6 -31 14 -35 7 -4 21 -23 31 -42 14 -28 14 -35 3 -42 -7 -5 14 -7 52 -4
63 4 63 4 15 -5 -86 -15 -424 -23 -503 -12 -83 12 -109 30 -146 102 -46 88
-56 143 -56 315 0 225 31 330 132 440 79 86 175 125 348 140 41 3 161 15 265
26 105 10 435 41 735 69 300 27 640 58 755 70 116 11 363 34 550 51 187 16
423 39 525 49 250 25 348 22 423 -13z m330 -90 c-3 -5 1 -13 8 -18 11 -7 10
-9 -3 -9 -10 0 -18 2 -18 4 0 2 -2 11 -5 19 -4 8 0 14 9 14 8 0 12 -5 9 -10z
m-1013 -87 l45 -8 -46 -1 c-43 -1 -99 16 -99 31 0 4 12 3 28 -3 15 -6 47 -14
72 -19z m13 13 c-7 -2 -19 -2 -25 0 -7 3 -2 5 12 5 14 0 19 -2 13 -5z m1041
-18 c-4 -8 -7 -15 -9 -15 -2 0 -5 7 -9 15 -3 9 0 15 9 15 9 0 12 -6 9 -15z
m-1473 -40 c23 -43 26 -45 69 -45 42 0 46 -3 63 -37 11 -22 15 -39 9 -41 -6
-2 -3 -20 8 -45 10 -22 16 -45 14 -49 -3 -4 2 -8 11 -8 9 0 13 5 10 11 -4 6 0
9 11 7 11 -2 25 -14 31 -27 16 -29 17 -44 1 -35 -6 4 -8 3 -5 -3 3 -5 -1 -30
-11 -54 -16 -41 -19 -44 -49 -41 -23 2 -34 10 -39 25 -3 12 -16 30 -28 39 -11
10 -15 18 -8 18 7 0 12 15 12 40 0 38 -2 40 -30 40 -21 0 -30 -5 -30 -16 0
-11 -5 -14 -16 -10 -9 3 -18 6 -20 6 -2 0 -4 5 -4 10 0 6 9 10 20 10 17 0 20
7 20 40 0 36 -2 40 -25 40 -22 0 -25 4 -25 40 0 38 -2 40 -30 40 -25 0 -32 6
-45 36 -8 20 -15 38 -15 40 0 1 15 5 33 7 17 2 35 5 38 5 3 1 17 -18 30 -43z
m-284 9 c-3 -3 -12 -4 -19 -1 -8 3 -5 6 6 6 11 1 17 -2 13 -5z m871 -21 c-10
-2 -26 -2 -35 0 -10 3 -2 5 17 5 19 0 27 -2 18 -5z m-928 -7 c0 -3 -4 -8 -10
-11 -5 -3 -10 -1 -10 4 0 6 5 11 10 11 6 0 10 -2 10 -4z m860 -15 c0 -14 -5
-18 -20 -14 -23 6 -26 19 -7 26 22 9 27 7 27 -12z m223 -18 c-13 -2 -33 -2
-45 0 -13 2 -3 4 22 4 25 0 35 -2 23 -4z m-2036 -29 c-3 -3 -12 -4 -19 -1 -8
3 -5 6 6 6 11 1 17 -2 13 -5z m196 -1 c-13 -2 -33 -2 -45 0 -13 2 -3 4 22 4
25 0 35 -2 23 -4z m90 0 c-7 -2 -19 -2 -25 0 -7 3 -2 5 12 5 14 0 19 -2 13 -5z
m1510 -50 c-13 -2 -33 -2 -45 0 -13 2 -3 4 22 4 25 0 35 -2 23 -4z m-2330 -17
c9 -1 21 -6 27 -12 9 -9 -11 -10 -120 -5 l-45 2 35 13 c19 7 46 11 60 9 14 -2
33 -5 43 -7z m2407 4 c8 -5 11 -10 5 -10 -5 0 -17 5 -25 10 -8 5 -10 10 -5 10
6 0 17 -5 25 -10z m685 -218 c-4 -29 -10 -50 -15 -47 -4 3 -6 -3 -4 -13 3 -9
-2 -33 -11 -52 -9 -19 -14 -25 -12 -13 3 14 1 20 -8 17 -7 -3 -15 2 -19 12 -5
12 -2 15 10 10 13 -5 14 -3 7 6 -14 19 -33 91 -33 127 0 24 4 31 20 31 17 0
20 7 20 40 0 22 5 40 10 40 6 0 10 7 10 16 0 8 5 12 10 9 6 -3 11 4 12 17 1
13 4 -15 6 -62 2 -47 0 -109 -3 -138z m-3338 202 c-3 -3 -12 -4 -19 -1 -8 3
-5 6 6 6 11 1 17 -2 13 -5z m3274 -25 c8 -16 6 -19 -16 -19 -20 0 -25 5 -25
25 0 28 24 25 41 -6z m-3141 1 c-34 -11 -60 -11 -35 0 11 5 29 8 40 8 16 0 15
-2 -5 -8z m170 -10 c0 -5 -4 -10 -10 -10 -5 0 -10 5 -10 10 0 6 5 10 10 10 6
0 10 -4 10 -10z m-102 -7 c-10 -2 -26 -2 -35 0 -10 3 -2 5 17 5 19 0 27 -2 18
-5z m2136 -33 c-6 -6 -10 -3 -10 10 0 13 4 16 10 10 7 -7 7 -13 0 -20z m483
-35 c0 -8 -4 -15 -9 -15 -10 0 -11 14 -1 23 9 10 10 9 10 -8z m-2707 -30 c0
-11 11 -15 40 -15 29 0 40 4 40 15 0 8 7 15 15 15 11 0 15 -11 15 -39 0 -33 4
-40 25 -45 23 -6 24 -8 10 -22 -20 -20 -19 -28 2 -20 10 4 14 4 10 0 -14 -15
17 -34 54 -34 35 0 39 -3 39 -26 0 -15 12 -38 29 -55 41 -40 91 -40 133 1 28
28 56 33 42 7 -5 -8 -3 -8 7 1 17 16 29 15 29 -1 0 -8 11 -24 25 -37 13 -12
23 -28 22 -34 -1 -6 4 -10 11 -8 6 1 12 -6 13 -15 0 -10 3 -13 5 -6 3 7 12 9
20 6 7 -3 11 -10 8 -15 -4 -6 2 -8 12 -6 11 2 18 10 16 18 -3 11 -1 11 13 0
15 -13 15 -15 -5 -22 -45 -17 -66 -42 -68 -84 -3 -36 1 -45 28 -68 17 -14 36
-26 41 -26 19 0 8 -19 -13 -23 -13 -2 -6 -4 14 -3 38 1 49 10 26 19 -8 3 -6 6
5 6 13 1 17 -6 15 -26 -2 -32 20 -83 36 -84 6 0 2 -4 -9 -8 -16 -7 -12 -10 25
-18 43 -9 39 -10 -60 -16 -58 -4 -130 -10 -160 -14 -48 -5 -53 -4 -39 9 8 8
21 18 29 21 8 4 -2 4 -22 1 -42 -7 -50 1 -15 17 17 7 13 9 -23 5 -25 -2 -37
-2 -27 1 21 6 22 22 2 29 -18 7 -20 45 -3 62 9 9 9 12 0 12 -7 0 -12 -3 -12
-7 0 -5 -12 -9 -26 -10 -25 -1 -25 0 7 19 19 11 40 27 47 36 18 24 15 76 -8
105 -26 33 -62 41 -104 23 -19 -8 -38 -11 -43 -8 -4 4 -5 3 -1 -2 4 -5 3 -15
-3 -22 -6 -7 -15 -25 -20 -41 -8 -26 -9 -26 -4 7 2 19 6 46 9 59 3 13 2 20 -2
17 -4 -4 -7 -13 -7 -18 0 -28 -23 -15 -40 22 -14 31 -24 40 -42 40 -17 0 -22
4 -16 13 22 35 12 64 -20 58 -5 -1 -6 3 -2 9 3 6 10 8 15 5 11 -7 -8 76 -22
92 -8 10 -6 19 7 33 19 21 17 24 -9 14 -9 -3 -14 -10 -11 -15 3 -4 -16 -6 -43
-2 -44 5 -52 3 -82 -24 -27 -24 -32 -36 -32 -70 1 -27 -4 -43 -14 -47 -12 -5
-12 -2 -3 15 9 17 8 20 -2 13 -17 -10 -59 -12 -65 -2 -8 13 -24 9 -24 -5 0 -7
-11 -28 -25 -47 -14 -19 -25 -30 -25 -26 0 4 9 19 20 34 15 18 20 38 19 67 -2
23 1 48 6 56 7 11 6 12 -6 2 -11 -9 -18 -8 -32 1 -9 7 -17 16 -17 20 0 9 24 3
32 -9 5 -6 8 -5 8 3 0 18 -28 26 -44 13 -29 -25 -10 25 22 57 27 26 41 32 77
32 33 0 45 4 45 15 0 11 11 15 40 15 29 0 40 -4 40 -15z m2500 -24 c14 -10 31
-36 39 -57 12 -36 12 -44 -4 -78 -22 -46 -67 -76 -113 -76 -26 0 -43 9 -69 35
-33 33 -35 39 -31 86 10 101 100 147 178 90z m210 -25 c0 -26 -6 -18 -14 19
-5 22 -4 26 4 15 5 -8 10 -24 10 -34z m-1915 24 c3 -5 -1 -10 -9 -10 -9 0 -16
5 -16 10 0 6 4 10 9 10 6 0 13 -4 16 -10z m972 -56 c15 -15 17 -28 3 -19 -6 3
-10 -4 -10 -17 0 -17 3 -19 9 -9 6 9 11 10 15 2 8 -13 -2 -34 -13 -27 -4 3 -4
-23 0 -57 4 -34 5 -66 2 -71 -4 -5 -1 -6 6 -2 8 5 12 3 10 -5 -3 -27 1 -37 18
-43 15 -6 15 -4 -2 14 -25 27 -7 26 23 -2 14 -13 23 -18 19 -13 -3 7 9 9 34 7
23 -3 47 1 57 9 15 12 16 11 2 -4 -18 -19 -84 -35 -125 -31 -16 2 -33 -2 -37
-9 -5 -7 -6 1 -2 18 4 23 3 26 -5 15 -9 -13 -11 -13 -11 3 0 10 -8 17 -20 17
-13 0 -22 9 -26 28 -3 15 -8 34 -11 42 -7 17 -7 16 2 58 5 25 3 32 -9 32 -12
0 -16 10 -16 43 l0 43 37 -4 c20 -3 43 -10 50 -18z m-979 -1 c17 -16 15 -23
-5 -23 -17 -1 -17 -2 1 -15 10 -7 15 -19 11 -25 -5 -8 -10 -8 -14 -2 -4 6 -12
4 -21 -6 -13 -14 -12 -15 2 -9 14 5 16 0 14 -26 -2 -18 -1 -23 1 -12 8 37 20
37 18 0 -2 -28 -10 -41 -35 -60 -18 -13 -38 -22 -43 -18 -6 4 -7 1 -2 -6 5 -9
2 -12 -11 -9 -11 2 -18 11 -16 20 2 12 -9 17 -42 22 -24 4 -50 14 -58 23 -11
14 -11 15 7 6 23 -12 124 -25 106 -13 -9 5 -4 14 16 31 22 19 28 32 27 62 -1
21 -6 43 -13 50 -6 6 -11 14 -11 18 0 11 54 5 68 -8z m1032 -22 c-24 -19 -46
-19 -34 0 3 5 9 7 14 4 5 -3 11 -1 15 5 3 5 12 10 18 10 7 0 1 -9 -13 -19z
m897 -3 c-3 -8 -6 -5 -6 6 -1 11 2 17 5 13 3 -3 4 -12 1 -19z m-2253 -45 c-11
-8 -13 -13 -5 -13 7 0 9 -4 6 -10 -11 -18 -25 -10 -25 14 0 19 5 24 21 23 19
-1 19 -2 3 -14z m-314 -103 c0 -5 -4 -10 -9 -10 -6 0 -13 5 -16 10 -3 6 1 10
9 10 9 0 16 -4 16 -10z m3421 -120 c2 -168 1 -198 -11 -180 -5 8 -10 33 -11
55 -1 27 -3 32 -6 16 -4 -19 -7 -21 -14 -10 -7 11 -9 10 -10 -6 -1 -16 -2 -15
-8 5 -8 27 24 161 40 171 6 3 9 10 8 15 -3 17 1 57 5 53 3 -2 6 -56 7 -119z
m-2981 100 c-8 -5 -19 -10 -25 -10 -5 0 -3 5 5 10 8 5 20 10 25 10 6 0 3 -5
-5 -10z m80 1 c0 -6 -4 -13 -10 -16 -5 -3 -10 1 -10 9 0 9 5 16 10 16 6 0 10
-4 10 -9z m-720 -5 c0 -2 -8 -10 -17 -17 -16 -13 -17 -12 -4 4 13 16 21 21 21
13z m740 -46 c0 -5 -5 -10 -11 -10 -5 0 -7 5 -4 10 3 6 8 10 11 10 2 0 4 -4 4
-10z m1300 -16 c0 -8 -5 -12 -10 -9 -6 4 -8 11 -5 16 9 14 15 11 15 -7z m727
-6 c2 -18 0 -20 -7 -8 -12 18 -13 30 -2 30 4 0 9 -10 9 -22z m-774 -4 c7 -8
-3 -34 -13 -34 -5 0 -8 9 -7 20 1 20 8 25 20 14z m-48 -14 c3 -5 1 -10 -4 -10
-6 0 -11 5 -11 10 0 6 2 10 4 10 3 0 8 -4 11 -10z m-55 -9 c0 -6 -19 -9 -42
-9 -32 1 -38 3 -23 9 28 11 65 11 65 0z m833 -18 c-4 -10 -14 -23 -22 -30 -9
-6 -13 -15 -8 -19 4 -4 21 5 37 21 17 16 30 25 30 19 -1 -16 -36 -52 -56 -57
-14 -3 -12 -5 8 -6 15 0 33 6 41 14 13 13 16 13 21 -1 3 -8 2 -13 -2 -11 -4 3
-14 -2 -21 -11 -13 -14 -12 -15 10 -9 13 4 51 7 84 8 49 1 54 3 30 9 -27 7
-25 8 18 9 29 1 46 5 45 12 -2 7 11 16 29 21 23 6 31 13 27 23 -4 8 -2 15 4
15 5 0 13 -11 16 -25 4 -16 11 -23 18 -19 7 4 8 3 4 -5 -4 -6 -12 -9 -17 -6
-5 4 -9 2 -9 -3 0 -14 -57 -35 -71 -26 -7 4 -10 3 -5 -4 8 -13 -10 -19 -99
-31 -124 -18 -211 -23 -195 -12 12 8 10 12 -10 19 -14 5 -34 11 -45 14 -15 3
-6 10 35 29 30 14 66 38 80 52 30 32 31 32 23 10z m251 -2 c3 -5 -1 -11 -9
-15 -9 -3 -15 0 -15 9 0 16 16 20 24 6z m-2974 -71 c0 -22 -16 -35 -24 -21 -4
5 -2 12 3 16 6 3 7 13 4 22 -4 11 -3 14 5 9 7 -4 12 -16 12 -26z m310 -16 c0
-8 -4 -12 -10 -9 -5 3 -10 10 -10 16 0 5 5 9 10 9 6 0 10 -7 10 -16z m2160
-28 c0 -3 -4 -8 -10 -11 -5 -3 -10 -1 -10 4 0 6 5 11 10 11 6 0 10 -2 10 -4z
m-2269 -29 c-10 -9 -11 -8 -5 6 3 10 9 15 12 12 3 -3 0 -11 -7 -18z m1912 -4
c-13 -2 -33 -2 -45 0 -13 2 -3 4 22 4 25 0 35 -2 23 -4z m-43 -29 c0 -2 -33
-3 -72 -2 l-73 1 60 6 c56 6 85 4 85 -5z m93 9 c-13 -2 -35 -2 -50 0 -16 2 -5
4 22 4 28 0 40 -2 28 -4z m-1813 -53 c11 -7 5 -10 -22 -10 -21 0 -38 5 -38 10
0 13 40 13 60 0z m593 -37 c-7 -2 -21 -2 -30 0 -10 3 -4 5 12 5 17 0 24 -2 18
-5z m2426 -89 c-10 -13 -10 -17 1 -24 7 -4 19 -6 27 -3 10 4 13 -7 13 -46 0
-28 -3 -51 -7 -51 -5 0 -16 -14 -26 -31 -17 -30 -17 -31 0 -25 11 4 8 -1 -7
-14 -35 -27 -46 -24 -41 12 1 8 -26 4 -35 -5 -10 -10 -45 13 -38 25 4 7 3 8
-4 4 -7 -4 -21 -1 -33 7 -11 8 -17 17 -12 19 4 3 2 3 -4 2 -7 -2 -31 5 -54 15
l-41 19 48 12 c27 6 64 14 83 17 18 3 41 12 50 20 16 14 83 61 90 62 2 1 -2
-6 -10 -15z m-3994 -63 c-9 -16 -25 -3 -18 15 4 10 9 12 15 6 6 -6 7 -15 3
-21z m3986 -160 c6 9 9 10 9 2 0 -21 -16 -22 -49 -2 -17 10 -29 24 -26 30 4 6
17 -1 32 -17 20 -22 27 -24 34 -13z m54 20 c-3 -6 -11 -11 -16 -11 -5 0 -4 6
3 14 14 16 24 13 13 -3z m-305 -47 c57 -27 178 -130 166 -141 -2 -2 -27 5 -55
17 -60 23 -61 23 -61 9 0 -5 4 -8 8 -5 5 3 9 -1 9 -9 0 -8 -4 -12 -9 -9 -12 8
-49 -26 -42 -37 7 -12 -40 -29 -82 -29 -35 0 -35 0 -33 -39 3 -33 -2 -45 -24
-65 -15 -14 -32 -38 -39 -53 -9 -22 -12 -24 -15 -10 -3 11 -14 17 -34 17 -27
0 -29 -2 -29 -40 0 -22 -4 -40 -10 -40 -5 0 -10 7 -10 16 0 13 -3 14 -15 4 -8
-7 -12 -16 -9 -21 3 -5 -8 -17 -25 -27 -17 -9 -31 -23 -31 -30 0 -7 -4 -10
-10 -7 -5 3 -10 0 -10 -7 0 -7 -20 10 -44 37 -35 40 -42 53 -32 65 9 13 9 13
-5 2 -13 -10 -21 -9 -42 8 -14 11 -32 20 -41 20 -10 0 -13 6 -10 15 5 12 10
13 20 4 11 -9 14 -7 14 14 0 15 9 31 25 41 14 9 23 21 19 27 -6 11 13 39 27
39 5 0 9 -9 9 -20 0 -13 7 -20 20 -20 18 0 20 7 20 70 0 66 -1 70 -22 70 -17
1 -12 5 17 17 23 9 105 21 190 28 214 17 93 18 -180 0 -340 -21 -531 -39 -509
-46 55 -18 64 -22 64 -30 0 -5 -19 -10 -42 -10 -37 -1 -39 -2 -15 -8 l29 -6
-26 -38 c-14 -21 -26 -42 -26 -48 0 -6 -13 -22 -30 -36 -16 -13 -30 -35 -31
-46 0 -12 -3 -16 -6 -9 -8 20 -34 14 -61 -15 l-26 -28 -6 25 c-5 20 -13 26
-43 28 -20 2 -37 8 -37 14 0 6 -12 22 -27 36 -25 23 -26 26 -10 31 17 6 16 9
-7 34 -20 22 -34 27 -71 27 -25 0 -45 4 -45 9 0 6 -16 8 -35 7 -19 -2 -38 1
-41 6 -5 7 4 9 24 6 22 -3 29 -1 25 9 -6 16 -4 16 -263 -3 -118 -8 -225 -20
-237 -26 -11 -6 -26 -7 -32 -3 -12 7 -245 -5 -237 -12 2 -3 39 -5 83 -5 51 0
71 -3 58 -8 -18 -8 -17 -9 8 -9 15 -1 27 3 27 9 0 18 48 23 65 7 14 -14 8 -17
-57 -23 -57 -6 -67 -9 -48 -15 14 -5 -1 -6 -35 -2 -33 3 -68 10 -79 15 -13 7
-21 6 -26 -3 -5 -7 -33 -14 -67 -15 -42 -3 -51 -1 -33 5 25 9 25 9 2 10 -14 1
-21 5 -16 12 3 6 17 8 29 5 13 -3 34 -1 47 4 17 8 2 9 -57 5 -151 -9 -385 -29
-382 -32 3 -2 51 -7 125 -12 9 -1 11 -8 7 -21 -4 -13 -1 -22 9 -26 9 -3 16
-17 16 -31 0 -31 51 -83 82 -83 16 0 28 -11 41 -36 9 -19 15 -40 11 -45 -3 -5
0 -8 8 -7 7 2 14 -8 16 -21 3 -17 0 -21 -10 -15 -7 4 -4 -2 6 -14 11 -12 25
-22 33 -22 20 0 16 -18 -7 -32 -11 -7 -20 -18 -20 -25 0 -7 -6 -13 -12 -13
-10 0 -10 -2 0 -9 20 -12 13 -151 -8 -152 -13 -1 -13 -2 0 -5 8 -3 24 -23 34
-44 14 -30 25 -40 43 -40 18 0 23 -6 23 -24 0 -21 -5 -24 -43 -27 -38 -4 -43
-2 -43 16 1 13 -5 20 -19 20 -11 0 -21 8 -23 19 -5 22 19 40 30 23 5 -7 8 0 8
18 0 20 -3 25 -9 17 -6 -10 -10 -10 -21 2 -7 9 -16 13 -21 11 -4 -3 -12 3 -18
12 -6 10 -11 14 -11 10 0 -4 -9 -3 -21 3 -27 15 -75 4 -101 -23 -11 -12 -18
-17 -14 -10 3 6 2 22 -3 35 l-10 23 0 -24 -1 -24 -23 21 c-13 12 -27 19 -30
15 -4 -3 -7 -1 -7 6 0 7 -4 9 -10 6 -5 -3 -10 3 -10 14 0 12 -4 21 -9 21 -5 0
-11 9 -14 21 -4 16 -2 19 11 15 15 -5 15 -4 0 8 -10 7 -18 19 -18 25 0 7 -3
10 -8 7 -4 -2 -6 13 -4 34 5 47 -11 78 -47 93 -16 7 -28 14 -29 17 -4 33 -26
100 -33 100 -5 0 -9 6 -9 14 0 8 -18 18 -40 24 -38 9 -40 9 -40 -14 0 -15 -6
-24 -15 -24 -11 0 -15 12 -15 45 l0 45 48 -5 c46 -5 46 -5 12 6 -19 6 -52 9
-73 6 -21 -3 -35 -1 -31 4 3 5 11 9 18 9 8 0 13 8 12 18 -1 14 7 17 41 17 23
0 39 3 35 8 -5 4 -107 0 -228 -8 -185 -12 -231 -18 -288 -38 -80 -30 -149 -73
-140 -89 4 -6 3 -8 -3 -5 -5 4 -23 -7 -38 -23 -23 -24 -25 -30 -12 -30 9 0 17
7 17 15 0 12 9 15 38 11 20 -3 43 -5 50 -5 7 -1 11 -5 8 -10 -3 -5 18 -11 47
-13 44 -3 55 0 73 19 24 26 94 33 94 9 0 -7 9 -25 21 -40 17 -21 18 -26 5 -26
-9 0 -16 -5 -16 -10 0 -6 10 -8 24 -4 30 7 55 -4 35 -17 -10 -6 -7 -10 11 -18
l25 -10 -27 2 c-19 1 -25 6 -23 19 2 10 0 18 -6 18 -5 0 -6 -14 -3 -32 4 -18
8 -46 9 -63 1 -16 3 -38 3 -47 1 -10 15 -30 32 -44 16 -15 27 -31 24 -35 -3
-5 3 -9 13 -9 17 -1 17 -2 -1 -15 -19 -14 -19 -15 6 -15 14 0 31 -7 38 -15 7
-8 17 -12 22 -9 13 8 99 -16 120 -34 10 -8 24 -12 33 -8 9 3 13 2 10 -4 -3 -6
-2 -10 3 -10 6 0 10 -16 10 -36 0 -55 30 -88 81 -92 24 -2 50 2 59 10 15 11
15 11 5 -3 -7 -9 -10 -19 -6 -23 4 -4 -1 -4 -11 0 -14 5 -17 4 -12 -5 4 -6 3
-18 -4 -26 -9 -11 -7 -12 12 -8 13 3 20 2 16 -2 -13 -14 12 -43 47 -55 20 -7
35 -18 35 -27 0 -13 2 -13 17 -2 9 8 14 9 10 2 -5 -7 1 -13 15 -15 13 -2 -80
-6 -207 -10 -228 -6 -260 -4 -250 13 3 4 -3 27 -14 50 -11 23 -18 46 -15 50 3
5 0 9 -5 9 -6 0 -11 -5 -11 -11 0 -5 -4 -7 -10 -4 -5 3 -10 15 -10 27 0 16 5
19 23 14 12 -3 35 1 51 9 34 18 44 19 28 3 -7 -7 -12 -16 -12 -21 0 -13 26 16
29 33 1 8 4 40 5 70 2 47 -1 59 -22 80 -14 14 -23 21 -20 15 4 -6 -14 -9 -48
-8 -30 0 -52 -2 -50 -6 3 -4 -4 -15 -15 -24 -12 -11 -19 -29 -19 -52 0 -33 -2
-35 -30 -33 -16 1 -30 8 -30 15 0 6 -5 15 -12 19 -8 5 -9 2 -5 -10 4 -10 3
-15 -3 -11 -6 3 -10 15 -10 25 0 10 -4 22 -10 25 -5 3 -10 16 -11 28 0 15 -2
17 -6 7 -3 -8 -11 -18 -17 -22 -7 -5 -4 -8 6 -8 12 0 15 -5 11 -15 -4 -13 -8
-12 -22 7 -9 13 -15 26 -13 31 1 4 -1 7 -5 8 -5 0 -17 2 -28 4 -103 20 -168
-109 -86 -172 13 -10 13 -12 2 -13 -12 0 -12 -3 -3 -12 7 -7 12 -16 12 -22 0
-5 -6 -1 -14 9 -8 11 -12 24 -8 30 3 5 -4 2 -16 -8 -13 -12 -18 -25 -14 -35 5
-15 4 -15 -12 1 -22 22 -21 22 -24 -15 -2 -18 0 -29 4 -25 4 3 16 0 27 -8 18
-13 22 -12 33 3 11 15 12 13 11 -11 -1 -16 -8 -27 -17 -28 -10 0 -8 -3 5 -9
11 -5 67 -9 124 -9 57 -1 102 -3 99 -6 -2 -3 -87 -5 -189 -5 -187 -1 -267 11
-262 38 2 7 -2 11 -9 9 -19 -4 -68 96 -85 175 -21 99 -21 322 0 405 34 130
120 255 212 308 91 53 99 54 1210 135 297 22 635 46 750 55 116 8 302 22 415
30 515 37 758 55 790 59 19 2 89 3 155 2 112 -1 124 -3 185 -32z m492 -43 c8
21 16 7 19 -31 6 -84 -3 -394 -11 -375 -5 11 -9 14 -9 7 -2 -23 -18 -4 -25 28
-3 17 -21 57 -39 88 -28 49 -41 75 -74 160 -3 7 0 10 9 7 8 -3 21 7 32 27 26
46 80 98 87 86 4 -6 8 -5 11 3z m-3972 -28 c0 -3 -7 -2 -16 1 -11 4 -15 2 -11
-8 4 -10 1 -13 -9 -9 -17 6 -18 20 -1 26 13 4 37 -2 37 -10z m3810 -9 c0 -8
-19 -13 -24 -6 -3 5 1 9 9 9 8 0 15 -2 15 -3z m23 -49 c-7 -21 -13 -19 -13 6
0 11 4 18 10 14 5 -3 7 -12 3 -20z m-3969 -11 c3 -8 2 -12 -4 -9 -6 3 -10 10
-10 16 0 14 7 11 14 -7z m3707 -32 c-7 -2 -18 1 -23 6 -8 8 -4 9 13 5 13 -4
18 -8 10 -11z m59 -22 c0 -5 -2 -10 -4 -10 -3 0 -8 5 -11 10 -3 6 -1 10 4 10
6 0 11 -4 11 -10z m-1933 -26 c-3 -3 -12 -4 -19 -1 -8 3 -5 6 6 6 11 1 17 -2
13 -5z m1952 -64 c0 -10 -3 -8 -9 5 -12 27 -12 43 0 25 5 -8 9 -22 9 -30z
m-2192 -6 c-3 -3 -12 -4 -19 -1 -8 3 -5 6 6 6 11 1 17 -2 13 -5z m-880 -31
c-3 -2 -16 -1 -29 3 l-23 8 25 6 c23 6 39 -4 27 -17z m923 15 c0 -4 -12 -8
-27 -8 -19 0 -24 3 -15 8 17 11 42 11 42 0z m-973 -24 c-3 -3 -12 -4 -19 -1
-8 3 -5 6 6 6 11 1 17 -2 13 -5z m53 -74 c0 -5 -4 -10 -10 -10 -5 0 -10 5 -10
10 0 6 5 10 10 10 6 0 10 -4 10 -10z m3071 -69 c3 -103 -16 -200 -57 -285 -28
-60 -45 -63 -46 -7 -1 23 -6 31 -20 31 -15 0 -17 5 -12 28 9 35 13 39 24 22 8
-12 10 -12 10 -1 0 8 6 11 16 7 8 -3 12 -2 9 4 -3 5 0 29 6 54 9 37 8 48 -5
68 -19 27 -20 38 -4 38 20 0 48 32 48 55 0 39 30 26 31 -14z m-3094 -23 c-3
-8 -6 -5 -6 6 -1 11 2 17 5 13 3 -3 4 -12 1 -19z m2056 0 c-6 -7 -12 -20 -15
-28 -3 -10 -6 -8 -10 8 -4 12 -2 20 2 17 5 -3 11 -1 15 5 3 5 9 10 12 10 3 0
1 -6 -4 -12z m-1922 -35 c13 -15 12 -15 -8 -4 -24 12 -29 21 -14 21 5 0 15 -7
22 -17z m2196 7 c8 0 28 -13 44 -29 24 -25 29 -38 29 -78 0 -80 -55 -130 -132
-120 -48 6 -75 29 -87 73 -22 81 49 176 117 158 8 -2 20 -4 29 -4z m-2137 -10
c8 -5 11 -10 5 -10 -5 0 -17 5 -25 10 -8 5 -10 10 -5 10 6 0 17 -5 25 -10z
m-246 -15 c2 -7 -9 -9 -31 -7 -19 3 -30 7 -24 11 16 10 50 8 55 -4z m70 -22
c-4 -16 -11 -32 -17 -38 -7 -7 -8 -6 -3 3 4 7 2 12 -6 13 -10 0 -10 2 0 6 6 2
12 9 12 14 0 6 -4 8 -9 4 -5 -3 -13 0 -17 6 -4 7 -3 9 2 6 6 -3 16 -2 24 4 21
12 21 12 14 -18z m115 13 c9 -11 9 -16 -1 -22 -7 -4 -10 -4 -6 1 4 4 3 14 -3
22 -6 7 -9 13 -6 13 2 0 10 -6 16 -14z m1888 -34 c-6 -23 -14 -42 -18 -42 -4
0 -5 10 -1 23 5 20 4 21 -11 8 -10 -8 -17 -9 -17 -3 0 6 7 17 15 24 9 7 21 18
28 24 17 16 17 14 4 -34z m-2187 4 c0 -3 -4 -8 -10 -11 -5 -3 -10 -1 -10 4 0
6 5 11 10 11 6 0 10 -2 10 -4z m1814 -14 c3 -5 -1 -9 -9 -9 -8 0 -12 4 -9 9 3
4 7 8 9 8 2 0 6 -4 9 -8z m-9 -42 c3 -5 1 -10 -4 -10 -6 0 -11 5 -11 10 0 6 2
10 4 10 3 0 8 -4 11 -10z m-32 -27 l32 5 0 -58 c0 -32 -3 -56 -7 -53 -5 2 -8
-1 -8 -7 0 -7 7 -10 15 -7 8 4 22 -4 32 -17 16 -20 28 -23 86 -24 37 0 65 3
62 7 -2 5 6 18 19 30 l23 22 -3 -26 c-2 -27 -14 -48 -14 -27 0 7 -5 12 -11 12
-5 0 -8 -4 -4 -9 3 -5 1 -12 -5 -16 -5 -3 -10 -22 -10 -41 0 -34 -23 -49 -33
-21 -4 10 -7 10 -18 0 -7 -7 -29 -13 -48 -13 -32 1 -38 5 -57 43 -18 35 -26
41 -48 39 -24 -3 -26 -1 -26 37 0 23 -4 41 -10 41 -5 0 -10 18 -10 40 0 30 -4
40 -16 40 -8 0 -12 5 -9 10 5 8 11 7 21 -1 8 -6 29 -9 47 -6z m-1303 -33 c0
-5 -2 -10 -4 -10 -3 0 -8 5 -11 10 -3 6 -1 10 4 10 6 0 11 -4 11 -10z m10 -55
c14 -19 14 -19 -2 -6 -10 7 -18 18 -18 24 0 6 1 8 3 6 1 -2 9 -13 17 -24z
m1734 -21 c3 -8 2 -12 -4 -9 -6 3 -10 10 -10 16 0 14 7 11 14 -7z m-1854 -35
c0 -6 -25 -19 -36 -19 -2 0 -4 6 -4 13 0 7 9 13 20 13 11 0 20 -3 20 -7z
m1863 -7 c4 9 6 9 6 1 2 -20 -16 -24 -30 -5 -13 15 -12 16 3 4 13 -10 17 -10
21 0z m1383 -187 c2 -91 -1 -165 -6 -165 -5 0 -11 -10 -13 -22 -4 -20 -4 -19
-6 5 0 15 -5 27 -11 27 -5 0 -10 11 -10 24 0 14 -7 32 -16 40 -8 9 -12 16 -7
16 4 0 2 4 -6 9 -12 8 -9 24 14 98 33 106 48 143 54 137 2 -2 6 -78 7 -169z
m-3286 161 c0 -11 -19 -15 -25 -6 -3 5 1 10 9 10 9 0 16 -2 16 -4z m470 -17
c0 -6 -4 -7 -10 -4 -5 3 -10 11 -10 16 0 6 5 7 10 4 6 -3 10 -11 10 -16z
m1455 1 c3 -5 1 -10 -4 -10 -6 0 -11 5 -11 10 0 6 2 10 4 10 3 0 8 -4 11 -10z
m33 -15 c-3 -3 -9 2 -12 12 -6 14 -5 15 5 6 7 -7 10 -15 7 -18z m-58 11 c0 -3
-4 -8 -10 -11 -5 -3 -10 -1 -10 4 0 6 5 11 10 11 6 0 10 -2 10 -4z m-1743 -28
c-3 -8 -6 -5 -6 6 -1 11 2 17 5 13 3 -3 4 -12 1 -19z m1733 -8 c0 -5 -2 -10
-4 -10 -3 0 -8 5 -11 10 -3 6 -1 10 4 10 6 0 11 -4 11 -10z m-1137 -22 c4 -10
7 -10 18 0 16 15 59 16 59 1 0 -7 15 -9 43 -5 123 17 149 18 173 6 15 -9 24
-22 24 -37 0 -13 12 -36 28 -50 25 -23 25 -25 5 -19 -71 22 -303 25 -412 6
-37 -7 -58 -7 -65 0 -15 15 -29 12 -22 -5 3 -9 0 -15 -9 -15 -19 0 -19 9 2 32
9 10 11 18 5 18 -6 0 -15 -8 -21 -17 -8 -15 -11 -15 -27 -3 -16 13 -17 13 -11
-2 5 -15 4 -16 -13 -5 -21 13 -27 37 -9 37 5 0 8 -4 5 -9 -3 -5 9 -8 27 -6 20
1 33 8 35 19 2 11 14 16 37 16 22 0 43 9 61 25 29 27 60 33 67 13z m-258 -18
c3 -5 1 -10 -4 -10 -6 0 -11 5 -11 10 0 6 2 10 4 10 3 0 8 -4 11 -10z m-811
-46 c14 -21 16 -28 6 -37 -10 -9 -11 -9 -6 0 4 8 -4 23 -20 38 -16 15 -21 25
-13 25 8 0 22 -12 33 -26z m2669 -9 c26 -5 37 -4 37 5 0 8 7 10 18 5 20 -8 27
-10 70 -20 17 -4 32 -11 32 -15 0 -12 -53 -18 -195 -24 -121 -5 -127 -4 -85 8
l45 14 -45 2 c-42 2 -43 3 -14 9 17 4 36 11 42 15 7 4 12 2 12 -3 0 -6 10 -11
23 -11 16 0 18 3 8 9 -7 5 -10 14 -6 21 5 8 10 9 14 2 3 -6 23 -13 44 -17z
m187 -5 c12 -8 11 -10 -7 -10 -13 0 -23 5 -23 10 0 13 11 13 30 0z m79 -6
c-23 -12 -59 -8 -59 7 0 4 18 7 40 6 36 -1 38 -2 19 -13z m-829 -14 c0 -5 -12
-10 -27 -9 -25 0 -26 1 -8 9 27 12 35 12 35 0z m-610 -10 c0 -5 -5 -10 -11
-10 -5 0 -7 5 -4 10 3 6 8 10 11 10 2 0 4 -4 4 -10z m475 -7 c28 -3 52 -10 56
-14 3 -5 19 -3 37 3 34 13 48 7 39 -17 -5 -13 -31 -15 -162 -15 -143 0 -155 1
-155 18 0 22 60 42 105 36 17 -3 53 -8 80 -11z m43 10 c-10 -2 -28 -2 -40 0
-13 2 -5 4 17 4 22 1 32 -1 23 -4z m855 0 c-7 -2 -19 -2 -25 0 -7 3 -2 5 12 5
14 0 19 -2 13 -5z m-3106 -9 c-3 -3 -12 -4 -19 -1 -8 3 -5 6 6 6 11 1 17 -2
13 -5z m1083 -14 c0 -5 -2 -10 -4 -10 -3 0 -8 5 -11 10 -3 6 -1 10 4 10 6 0
11 -4 11 -10z m-1003 -16 c-3 -3 -12 -4 -19 -1 -8 3 -5 6 6 6 11 1 17 -2 13
-5z m3700 -66 c-3 -8 -6 -5 -6 6 -1 11 2 17 5 13 3 -3 4 -12 1 -19z m-2186
-53 c190 -33 405 -137 499 -240 l25 -28 -27 18 c-16 9 -28 13 -28 9 0 -5 -5
-1 -11 9 -12 21 -29 22 -29 1 0 -9 5 -12 12 -8 7 4 8 3 4 -4 -4 -7 -1 -12 6
-13 10 0 10 -2 0 -6 -6 -2 -9 -10 -5 -16 3 -7 2 -8 -3 -4 -5 5 -9 14 -9 20 0
5 -6 12 -12 15 -7 2 -13 -4 -13 -15 0 -15 -2 -16 -10 -3 -9 13 -14 7 -11 -12
2 -13 -84 -9 -98 5 -11 10 -14 10 -18 0 -6 -17 -163 -18 -163 -2 0 7 -12 23
-27 38 l-28 26 28 3 c15 2 27 8 27 13 0 5 7 9 15 9 8 0 15 -4 15 -10 0 -5 11
-10 25 -10 30 0 33 16 5 25 -26 8 -28 55 -2 56 12 0 10 3 -8 11 -40 16 -266
22 -363 9 -167 -22 -321 -86 -455 -188 -80 -61 -90 -71 -65 -69 9 0 18 -6 20
-14 4 -13 3 -13 -7 0 -9 12 -12 13 -17 1 -5 -11 -7 -11 -14 0 -6 11 -16 6 -44
-21 -56 -53 -166 -203 -160 -218 3 -7 1 -11 -4 -8 -5 3 -12 -1 -15 -10 -5 -12
-2 -15 9 -10 10 4 33 -10 63 -39 52 -50 71 -56 73 -22 1 17 3 16 8 -7 7 -32
31 -48 31 -21 0 9 5 13 11 9 6 -3 9 -17 6 -30 -3 -20 -1 -23 14 -19 14 5 18
-1 22 -27 3 -30 4 -29 8 12 2 25 6 -115 9 -310 3 -195 4 -357 3 -359 -1 -2 -6
12 -11 30 -8 30 -10 31 -17 14 -4 -11 -14 -33 -22 -50 l-14 -30 6 38 c5 33 3
39 -14 44 -17 4 -21 13 -21 44 0 32 3 39 20 39 17 0 20 7 20 39 0 25 -5 41
-15 45 -11 4 -15 20 -15 55 0 27 -4 53 -10 56 -5 3 -10 -2 -10 -12 0 -15 -2
-16 -10 -3 -5 8 -10 43 -10 78 0 56 -2 62 -20 62 -26 0 -40 36 -40 106 0 52
-1 54 -28 54 -19 0 -30 7 -37 23 -6 12 -20 23 -31 25 -12 2 -24 12 -27 24 -5
16 -2 19 14 15 12 -3 19 -1 17 5 -2 6 -11 12 -20 14 -21 3 -60 -100 -84 -218
-39 -191 8 -547 79 -606 11 -9 19 -6 37 13 27 29 40 32 40 10 0 -9 11 -20 25
-25 38 -14 42 -38 11 -65 -14 -12 -26 -30 -26 -39 0 -10 -5 -14 -10 -11 -6 4
-8 11 -5 16 4 5 -1 9 -9 9 -8 0 -18 5 -22 12 -4 7 -3 8 4 4 8 -5 10 -2 6 9 -4
8 0 23 7 32 13 15 12 15 -8 3 -12 -8 -19 -18 -16 -24 3 -5 1 -6 -5 -3 -5 4 -8
16 -5 27 3 11 10 17 16 13 6 -4 7 -1 2 7 -6 10 -11 10 -20 -4 -11 -15 -15 -12
-41 21 -35 47 -100 196 -127 293 -31 114 -30 381 2 500 59 222 202 436 381
572 208 159 522 237 771 193z m-1887 -165 c4 0 3 -7 -4 -15 -7 -8 -19 -15 -28
-15 -8 0 -12 3 -9 7 4 3 -1 12 -11 20 -16 12 -15 13 3 6 18 -6 18 -5 6 10 -11
14 -17 15 -28 5 -8 -6 -13 -7 -12 -2 1 5 0 12 -1 17 -1 4 -3 13 -4 20 -1 6 -9
11 -18 11 -10 -1 -14 4 -11 12 4 10 20 1 56 -31 29 -25 56 -45 61 -45z m-64
-15 c11 -13 7 -15 -26 -15 -39 1 -39 1 -14 15 14 8 26 14 26 15 1 0 7 -7 14
-15z m-203 -21 c-3 -3 -12 -4 -19 -1 -8 3 -5 6 6 6 11 1 17 -2 13 -5z m4608
-33 c125 -35 228 -94 323 -185 180 -172 263 -388 249 -646 -11 -206 -79 -362
-217 -501 -72 -73 -101 -94 -181 -133 -165 -80 -141 -78 -964 -96 -253 -5
-566 -13 -695 -16 l-234 -6 17 23 c64 87 133 200 162 262 64 139 105 336 105
501 0 270 -58 463 -203 680 -37 55 -65 102 -62 104 5 5 139 10 920 31 488 13
682 9 780 -18z m-2951 -103 c22 -18 33 -34 29 -43 -3 -10 1 -15 12 -15 11 0
15 5 11 15 -3 8 -1 15 5 15 6 0 9 -8 7 -17 -2 -14 -16 -19 -53 -23 -28 -3 -66
-15 -86 -26 -38 -23 -102 -25 -136 -5 -17 10 -17 10 2 11 11 1 14 4 8 7 -7 2
-13 9 -13 14 0 6 5 7 10 4 9 -6 12 4 14 59 1 11 7 21 14 24 7 2 11 -2 10 -8
-2 -7 3 -15 10 -17 8 -3 10 1 5 13 -5 13 -3 16 10 11 21 -8 32 10 17 27 -8 11
-8 15 2 19 16 5 75 -26 122 -65z m546 48 c0 -3 -4 -8 -10 -11 -5 -3 -10 -1
-10 4 0 6 5 11 10 11 6 0 10 -2 10 -4z m-670 -15 c0 -5 -9 -7 -20 -4 -11 3
-20 7 -20 9 0 2 9 4 20 4 11 0 20 -4 20 -9z m1160 -31 c0 -5 -5 -10 -11 -10
-5 0 -7 5 -4 10 3 6 8 10 11 10 2 0 4 -4 4 -10z m-1680 -5 c0 -3 -11 -22 -24
-43 -70 -112 -135 -278 -161 -414 -18 -97 -21 -329 -5 -421 39 -217 134 -418
285 -603 l25 -31 -157 -6 c-87 -4 -354 -9 -593 -13 -421 -6 -438 -5 -515 15
-204 54 -381 190 -469 359 -56 109 -84 209 -92 327 -16 235 56 427 220 590 65
65 99 90 176 128 152 75 137 73 875 106 211 10 435 13 435 6z m1715 -4 c3 -5
2 -12 -3 -15 -5 -3 -9 1 -9 9 0 17 3 19 12 6z m-605 -25 c0 -3 -4 -8 -10 -11
-5 -3 -10 -1 -10 4 0 6 5 11 10 11 6 0 10 -2 10 -4z m668 -102 c30 -81 3 -133
-32 -62 -19 37 -21 88 -4 88 9 0 9 3 0 12 -7 7 -12 21 -12 32 0 20 0 20 15 0
8 -12 22 -43 33 -70z m-673 26 c17 0 23 -17 20 -60 -1 -19 2 -41 7 -47 7 -9 7
-18 -2 -28 -6 -8 -9 -19 -5 -25 4 -6 -23 4 -59 22 -36 17 -62 36 -59 41 3 6 1
7 -5 3 -7 -4 -25 1 -42 11 -31 18 -39 33 -18 33 6 0 4 6 -7 13 -10 8 -15 19
-11 25 9 14 116 16 116 2 0 -15 43 -35 48 -21 2 6 8 9 13 5 5 -3 9 -1 9 5 0 5
-9 13 -20 16 -12 4 -17 11 -13 18 5 8 8 8 11 -1 2 -7 10 -12 17 -12z m-230
-30 c3 -6 -1 -7 -9 -4 -18 7 -21 14 -7 14 6 0 13 -4 16 -10z m40 -20 c3 -6 -1
-7 -9 -4 -18 7 -21 14 -7 14 6 0 13 -4 16 -10z m114 -247 c185 -97 348 -185
363 -195 34 -24 45 -71 24 -103 -9 -14 -34 -36 -56 -50 -103 -65 -637 -357
-662 -362 -34 -7 -85 13 -98 38 -6 10 -10 176 -10 404 l0 387 29 29 c16 16 40
29 52 29 13 0 174 -80 358 -177z m799 132 c8 -24 9 -42 3 -48 -11 -11 -25 28
-16 43 3 5 -1 10 -9 10 -10 0 -16 9 -16 21 0 33 24 17 38 -26z m-78 20 c0 -8
-4 -15 -10 -15 -5 0 -10 7 -10 15 0 8 5 15 10 15 6 0 10 -7 10 -15z m-344
-162 c-10 -10 -19 5 -10 18 6 11 8 11 12 0 2 -7 1 -15 -2 -18z m84 -1 c0 -5 7
-17 15 -28 14 -17 14 -17 9 -1 -6 15 -2 18 17 15 13 -1 24 -10 24 -18 0 -8 -5
-14 -12 -13 -8 2 -10 -4 -6 -14 4 -11 8 -13 11 -5 2 7 8 12 14 12 6 0 8 -7 5
-14 -4 -9 2 -17 14 -21 22 -7 25 -30 5 -42 -7 -4 -15 -14 -17 -22 -3 -8 -9 -3
-17 14 -7 14 -8 24 -3 20 5 -3 13 0 17 6 4 7 3 9 -4 5 -14 -8 -74 43 -65 56 3
7 1 8 -5 4 -6 -3 -26 3 -44 15 -18 12 -25 19 -16 16 12 -4 15 -2 11 9 -4 10 2
14 21 14 14 0 26 -4 26 -8z m97 -214 c-3 -8 -6 -5 -6 6 -1 11 2 17 5 13 3 -3
4 -12 1 -19z m-82 -228 c-3 -5 -12 -10 -18 -10 -7 0 -6 4 3 10 19 12 23 12 15
0z m45 -14 c0 -2 -8 -10 -17 -17 -16 -13 -17 -12 -4 4 13 16 21 21 21 13z
m-64 -24 c1 -7 0 -8 -3 -2 -8 16 -26 12 -19 -5 6 -18 -24 -84 -39 -85 -6 0
-17 6 -24 13 -8 6 -11 7 -8 1 4 -6 -2 -10 -15 -9 -25 2 -44 30 -27 41 8 4 9 3
5 -4 -4 -7 -2 -12 4 -12 6 0 8 -5 4 -12 -4 -6 -3 -8 4 -5 5 4 8 17 5 28 -5 18
-3 20 17 14 16 -5 21 -4 18 6 -2 7 9 21 26 31 34 18 48 18 52 0z m29 -34 c-11
-36 -25 -45 -25 -17 0 27 7 39 22 39 5 0 6 -10 3 -22z m-191 -36 c3 -5 -1 -9
-9 -9 -8 0 -12 4 -9 9 3 4 7 8 9 8 2 0 6 -4 9 -8z m412 -99 c-27 -52 -42 -67
-51 -53 -6 9 -4 11 5 5 9 -6 11 -4 5 4 -5 9 -10 10 -18 2 -7 -7 -7 -14 1 -23
8 -11 3 -24 -24 -57 -20 -27 -34 -37 -34 -27 0 9 -7 16 -15 16 -14 0 -13 3 2
24 10 13 21 22 26 19 4 -2 7 0 7 6 0 6 7 8 15 5 13 -5 14 -2 5 21 -13 33 -13
45 0 25 9 -13 10 -13 11 0 1 8 1 18 1 21 -1 4 11 7 25 7 14 0 30 7 35 16 16
28 19 17 4 -11z m-1404 -63 c2 -28 0 -40 -9 -40 -14 0 -19 61 -6 73 10 11 11
9 15 -33z m673 -37 c-3 -51 -3 -50 -22 -57 -9 -4 -20 -1 -25 6 -6 11 -10 11
-16 0 -5 -8 -16 -10 -27 -6 -12 5 -16 4 -12 -4 4 -6 -7 -21 -24 -33 -29 -21
-33 -21 -44 -6 -8 11 -19 15 -31 11 -30 -11 -13 2 35 26 23 12 40 17 37 11 -4
-7 -1 -8 8 -5 9 3 14 10 11 14 -3 5 0 12 6 16 8 4 9 3 5 -4 -4 -8 5 -10 31 -7
21 2 41 4 46 4 4 1 7 6 7 12 0 6 -7 8 -16 5 -9 -3 -12 -2 -9 5 4 6 14 8 22 5
9 -4 14 0 12 12 -2 21 0 32 5 32 2 0 2 -17 1 -37z m-708 5 c-3 -8 -6 -5 -6 6
-1 11 2 17 5 13 3 -3 4 -12 1 -19z m1303 8 c0 -3 -4 -8 -10 -11 -5 -3 -10 -1
-10 4 0 6 5 11 10 11 6 0 10 -2 10 -4z m-10 -81 c-14 -17 -30 -20 -30 -4 0 5
4 8 9 4 5 -3 12 -1 16 5 3 5 9 10 12 10 3 0 0 -7 -7 -15z m-823 -41 c-3 -3
-12 -4 -19 -1 -8 3 -5 6 6 6 11 1 17 -2 13 -5z m41 -8 c-10 -7 -15 -16 -11
-19 3 -4 -5 -7 -18 -7 l-24 0 25 20 c14 11 30 20 35 19 6 0 2 -6 -7 -13z
m-200 -7 c-2 -6 3 -14 10 -16 8 -3 10 1 6 11 -4 12 0 16 16 16 16 0 20 -4 16
-16 -5 -13 0 -15 32 -9 35 6 39 4 37 -14 -1 -11 -5 -24 -10 -28 -4 -5 -5 -2
-1 5 4 7 1 12 -8 12 -9 0 -16 -5 -16 -10 0 -6 -15 -4 -37 5 -45 19 -64 35 -57
46 7 13 14 11 12 -2z m105 4 c-7 -2 -19 -2 -25 0 -7 3 -2 5 12 5 14 0 19 -2
13 -5z m157 -7 c0 -9 -40 -13 -46 -5 -3 5 6 9 20 9 14 0 26 -2 26 -4z m-266
-72 c3 -8 2 -12 -4 -9 -6 3 -10 10 -10 16 0 14 7 11 14 -7z m-239 -84 c3 -5 1
-10 -4 -10 -6 0 -11 5 -11 10 0 6 2 10 4 10 3 0 8 -4 11 -10z m103 -41 c2 -5
12 -9 22 -9 10 0 20 -7 24 -15 7 -20 1 -19 -69 15 -59 29 -59 29 -20 23 22 -3
42 -10 43 -14z m62 11 c0 -5 -5 -10 -11 -10 -5 0 -7 5 -4 10 3 6 8 10 11 10 2
0 4 -4 4 -10z m710 -30 c-8 -5 -19 -10 -25 -10 -5 0 -3 5 5 10 8 5 20 10 25
10 6 0 3 -5 -5 -10z m-640 -10 c13 -9 13 -10 0 -10 -8 0 -22 5 -30 10 -13 9
-13 10 0 10 8 0 22 -5 30 -10z m-50 -10 c0 -5 -4 -10 -10 -10 -5 0 -10 5 -10
10 0 6 5 10 10 10 6 0 10 -4 10 -10z m37 -16 c-3 -3 -12 -4 -19 -1 -8 3 -5 6
6 6 11 1 17 -2 13 -5z m-1669 -159 c31 -6 32 -9 32 -53 0 -97 13 -241 21 -236
5 3 9 14 9 25 0 24 20 26 21 2 1 -17 2 -17 6 0 5 21 6 21 44 1 17 -8 33 -13
37 -10 3 3 10 -4 17 -17 9 -18 7 -29 -17 -66 -45 -72 -77 -186 -89 -312 -10
-116 -5 -252 12 -324 6 -22 12 -49 15 -60 3 -11 -5 -2 -17 19 -18 33 -22 61
-27 185 -2 80 -8 155 -12 166 -12 33 -23 -416 -17 -722 5 -264 13 -353 33
-408 15 -42 -43 25 -76 87 -61 115 -60 90 -60 951 0 746 1 788 18 783 9 -2 32
-7 50 -11z m4245 -130 c4 -8 2 -17 -3 -20 -6 -4 -10 -11 -10 -17 0 -6 3 -8 7
-5 3 4 13 1 21 -6 13 -10 14 -9 8 1 -6 10 0 12 31 8 29 -4 32 -4 13 3 -14 5
-20 9 -15 10 6 1 -3 10 -20 21 l-30 20 114 0 114 0 -6 -211 c-3 -116 -8 -213
-11 -217 -3 -3 -6 27 -6 66 0 40 -4 72 -9 72 -5 0 -12 8 -14 18 -3 9 -3 -5 -1
-33 3 -40 2 -44 -5 -20 -5 17 -9 22 -10 13 0 -9 -8 -21 -17 -26 -14 -8 -14
-10 0 -25 9 -8 16 -22 16 -29 0 -24 -57 54 -70 96 -25 80 -79 181 -114 215
-41 39 -43 48 -18 54 9 2 6 3 -8 1 -14 -1 -34 4 -44 12 -18 13 -15 14 31 14
35 0 53 -4 56 -15z m-332 -21 c30 -9 74 -29 99 -44 52 -33 117 -97 108 -106
-4 -3 -35 5 -70 19 -111 44 -165 50 -388 43 -284 -9 -410 -17 -410 -27 0 -5
25 -6 54 -3 46 6 61 3 93 -16 21 -12 49 -24 63 -27 32 -6 39 -13 12 -13 -27 0
-27 -10 -1 -54 26 -45 18 -106 -15 -106 -21 -1 -21 -1 -1 -13 11 -7 21 -19 21
-28 1 -15 -1 -15 -30 0 -17 9 -33 18 -36 21 -11 12 -138 2 -173 -13 -21 -9
-36 -13 -33 -9 8 14 -10 33 -32 35 -16 1 -22 8 -22 24 0 13 -4 23 -10 23 -5 0
-10 19 -10 41 0 39 2 41 25 37 14 -3 33 1 42 8 10 7 35 14 56 14 27 0 37 4 37
16 0 8 -5 12 -11 9 -6 -4 -36 -4 -67 1 -51 7 -54 8 -27 15 l30 7 -28 1 c-23 1
-26 3 -15 15 7 8 21 12 31 10 10 -1 15 1 12 7 -8 12 -402 12 -661 0 -305 -15
-500 -21 -721 -23 -112 0 -203 -4 -203 -8 0 -4 32 -22 70 -41 39 -19 66 -35
60 -37 -13 -5 -13 -32 0 -32 6 0 10 -4 10 -10 0 -5 -18 -10 -40 -10 -22 0 -40
-4 -40 -10 0 -5 -18 -15 -40 -21 -22 -7 -40 -15 -40 -19 0 -4 -19 -11 -42 -15
-39 -7 -41 -8 -18 -15 25 -8 25 -8 2 -9 -13 -1 -20 -5 -17 -11 3 -5 1 -10 -4
-10 -6 0 -11 -4 -11 -9 0 -5 -16 -25 -35 -44 -38 -38 -43 -63 -20 -108 28 -53
95 -64 144 -23 26 21 31 33 31 69 0 36 -5 48 -31 69 -17 14 -26 26 -20 26 5 0
13 -5 16 -10 4 -6 11 -7 17 -4 6 4 8 2 5 -3 -4 -6 2 -18 12 -27 11 -10 17 -25
14 -37 -3 -10 -1 -19 4 -19 14 0 10 45 -7 65 -8 11 -10 16 -4 12 6 -3 25 -1
43 6 24 9 36 9 51 -1 27 -16 30 -15 30 8 0 18 7 20 80 20 47 0 80 -4 80 -10 0
-5 -16 -10 -35 -10 l-36 0 16 -30 c22 -43 19 -50 -22 -50 -34 0 -35 -1 -20
-18 10 -10 17 -24 17 -30 0 -7 16 -12 40 -12 22 0 40 -4 40 -10 0 -5 -25 -10
-55 -10 -43 0 -56 -4 -64 -19 -6 -10 -24 -24 -41 -29 -16 -6 -30 -15 -30 -21
0 -5 -7 -11 -16 -13 -13 -2 -11 -9 12 -33 25 -27 28 -28 34 -10 6 18 8 17 30
-5 15 -15 19 -25 12 -28 -7 -2 -12 -21 -12 -43 l0 -39 65 0 c91 0 81 -16 -15
-25 -56 -5 -80 -11 -80 -20 0 -7 -13 -19 -30 -27 -26 -11 -30 -18 -30 -50 0
-21 -4 -38 -10 -38 -20 0 -9 -18 14 -24 13 -3 31 -9 40 -12 11 -4 16 -1 16 10
0 12 10 16 40 16 29 0 40 4 40 15 0 12 16 15 80 15 47 0 80 -4 80 -10 0 -6
-28 -10 -65 -10 -65 0 -85 -12 -42 -25 12 -4 45 -17 72 -29 l50 -21 -50 -6
c-37 -4 -20 -7 65 -9 400 -9 221 -17 -430 -17 -415 0 -746 2 -735 4 10 3 31
18 45 33 19 20 40 29 78 35 35 4 52 12 52 21 0 8 7 14 16 14 8 0 22 7 30 15 9
9 34 15 59 15 34 0 45 4 50 19 6 20 6 20 26 0 13 -13 28 -18 42 -15 12 3 16 3
9 0 -16 -7 23 -44 47 -44 10 0 7 -5 -9 -13 -17 -9 -26 -22 -28 -45 l-3 -32
138 0 c180 0 179 0 174 53 -2 24 -11 49 -22 58 -10 9 -16 19 -13 22 3 3 1 14
-5 25 -8 15 -7 23 4 32 8 7 15 9 15 5 0 -4 14 9 30 30 36 45 39 91 10 128 -39
49 -113 44 -157 -12 -13 -16 -14 -113 -1 -105 4 2 10 -1 14 -7 7 -13 -15 -31
-29 -22 -4 3 -18 -3 -29 -14 -21 -18 -21 -18 -9 5 8 14 8 22 1 22 -5 0 -10 9
-10 20 0 11 -4 20 -10 20 -5 0 -10 18 -10 39 0 22 -4 42 -9 46 -6 3 -8 -6 -5
-21 3 -16 1 -23 -6 -19 -5 3 -10 1 -10 -4 0 -6 5 -11 10 -11 6 0 10 -5 10 -10
0 -6 -8 -5 -19 2 -15 9 -17 16 -10 25 6 7 8 17 5 22 -4 5 -2 12 4 16 6 4 8 10
6 14 -3 4 0 13 6 21 8 12 9 12 4 -2 -5 -17 10 -35 20 -25 8 8 -25 67 -37 67
-6 0 -6 6 1 19 16 30 12 40 -16 47 -18 5 -23 11 -19 23 27 64 18 118 -22 139
-32 18 -78 20 -98 6 -10 -8 -24 -14 -29 -14 -6 0 -3 5 6 11 14 8 15 15 8 35
-15 39 -12 51 14 56 19 4 22 1 18 -14 -2 -10 1 -18 7 -18 6 0 10 6 9 13 -2 7
10 13 30 15 18 2 32 -1 32 -7 0 -6 19 -11 43 -10 36 1 38 2 17 9 -22 7 -21 8
12 9 24 1 47 9 64 25 51 46 64 56 73 56 11 0 41 62 41 84 0 14 -19 16 -157 15
-238 -2 -488 -14 -393 -19 41 -2 94 -3 118 -2 l42 1 0 -39 c0 -22 -4 -40 -10
-40 -5 0 -10 -11 -10 -25 0 -23 -4 -25 -44 -25 -41 0 -74 -19 -60 -33 4 -4 -7
-14 -25 -24 -21 -13 -31 -26 -31 -43 0 -16 -3 -20 -8 -13 -13 20 -77 -3 -106
-38 -30 -35 -31 -47 -12 -94 8 -18 12 -35 10 -38 -2 -2 2 -4 9 -5 28 -3 91
-20 79 -21 -7 0 -10 -5 -7 -11 3 -5 1 -10 -4 -10 -6 0 -28 -16 -50 -35 -40
-37 -53 -43 -49 -24 2 6 -2 13 -7 15 -15 6 -17 -74 -3 -82 8 -5 9 -1 5 10 -4
10 -3 15 3 11 6 -3 10 -2 10 4 0 5 -6 12 -12 14 -8 3 -5 6 6 6 15 1 17 -3 10
-26 -4 -16 -8 -40 -8 -55 -1 -28 -16 -28 -17 0 0 12 -4 9 -11 -8 -6 -14 -10
-31 -9 -39 1 -7 -2 -10 -8 -6 -6 3 -16 -5 -23 -19 -8 -19 -19 -26 -38 -26 -35
0 -87 -26 -68 -34 7 -3 4 -5 -7 -3 -29 3 -85 -23 -85 -39 0 -8 -11 -20 -25
-26 -27 -12 -30 -20 -15 -48 13 -24 -4 -30 -72 -25 -34 3 -57 11 -65 22 -7 9
-13 12 -13 5 0 -8 -11 -6 -32 6 -39 21 -89 114 -113 207 -21 81 -21 339 0 420
49 192 184 322 356 344 82 11 585 28 1249 41 902 19 1364 31 1369 35 2 3 149
5 326 5 264 0 331 -3 376 -16z m-3566 -8 c-19 -13 -51 -11 -61 5 -3 5 14 9 37
9 39 0 41 -1 24 -14z m-111 -94 c-6 -4 -14 -16 -18 -27 -6 -13 -10 -16 -13 -7
-6 15 14 42 31 42 8 0 8 -3 0 -8z m3251 -33 c-29 -11 -35 -10 -35 5 0 9 8 12
27 8 25 -5 25 -6 8 -13z m-355 -29 c0 -6 -19 -10 -42 -9 -28 0 -37 3 -25 8 29
11 67 12 67 1z m999 -93 c13 -78 14 -124 2 -132 -5 -3 -13 5 -17 17 -7 21 -9
20 -15 -12 l-6 -35 -2 43 c-1 28 3 41 11 40 6 -2 13 6 15 17 l3 20 -9 -20 c-9
-19 -9 -19 -17 -1 -4 10 -2 32 3 47 7 17 7 31 2 35 -5 3 -9 10 -9 15 0 6 4 7
10 4 6 -3 7 1 4 9 -3 9 -2 16 4 16 5 0 15 -28 21 -63z m-1479 29 c-30 -11 -32
-13 -13 -18 12 -3 24 -1 25 4 2 6 13 8 23 6 18 -4 18 -6 -5 -17 -14 -7 -38
-19 -55 -28 -16 -9 -49 -16 -72 -15 -24 0 -41 -4 -37 -9 3 -5 16 -9 30 -9 22
0 24 -4 24 -48 l0 -49 -120 0 -120 0 0 27 c0 31 -16 50 -44 51 -21 0 -21 0 -1
9 11 5 31 9 45 9 20 1 22 -1 10 -9 -12 -8 -11 -10 7 -10 40 0 34 19 -9 28 -33
8 -37 10 -16 11 49 2 183 32 249 56 35 13 75 23 89 23 21 0 20 -1 -10 -12z
m-840 -6 c13 -8 13 -10 -2 -10 -9 0 -20 5 -23 10 -8 13 5 13 25 0z m93 -26
c15 -4 27 -10 27 -15 0 -4 -21 -2 -46 6 -48 14 -78 33 -34 21 14 -3 37 -9 53
-12z m64 -20 c-3 -3 -12 -4 -19 -1 -8 3 -5 6 6 6 11 1 17 -2 13 -5z m-62 -14
c-3 -5 -14 -10 -23 -9 -14 0 -13 2 3 9 27 11 27 11 20 0z m118 3 c-7 -2 -21
-2 -30 0 -10 3 -4 5 12 5 17 0 24 -2 18 -5z m90 -10 c-7 -2 -21 -2 -30 0 -10
3 -4 5 12 5 17 0 24 -2 18 -5z m-143 -19 c0 -2 -15 -4 -32 -4 -23 0 -29 3 -19
9 12 8 51 4 51 -5z m70 -4 c-19 -13 -30 -13 -30 0 0 6 10 10 23 10 18 0 19 -2
7 -10z m1468 -72 c-2 -7 2 -12 8 -11 6 1 11 -5 11 -13 0 -12 -4 -11 -18 2 -10
9 -16 21 -13 25 8 13 14 11 12 -3z m-1945 -5 c-7 -2 -19 -2 -25 0 -7 3 -2 5
12 5 14 0 19 -2 13 -5z m927 -28 c0 -17 -2 -18 -24 -9 -23 9 -20 24 4 24 11 0
20 -7 20 -15z m1108 1 c7 -4 10 -11 7 -16 -3 -4 4 -10 15 -13 12 -3 29 -25 42
-54 12 -26 24 -51 26 -55 2 -3 -6 -9 -18 -13 -16 -5 -19 -12 -14 -28 11 -39
25 -43 19 -7 -4 29 -3 31 4 10 15 -41 12 -50 -13 -50 -13 0 -27 -6 -29 -12 -3
-7 -6 -3 -6 10 -1 12 4 22 11 22 7 0 5 7 -5 18 -8 9 -27 44 -42 77 -14 32 -33
67 -42 77 -29 32 6 59 45 34z m-2444 -27 c-3 -6 -10 -23 -15 -37 -9 -26 -9
-26 -4 3 3 17 6 35 7 42 1 7 5 10 10 7 5 -3 6 -10 2 -15z m3303 -104 c1 -52
-3 -95 -8 -95 -10 0 -12 132 -3 168 4 12 7 22 8 22 1 0 2 -43 3 -95z m-1722
55 c-3 -5 1 -10 9 -10 8 0 18 5 21 10 9 14 46 13 43 -1 -8 -36 -107 -96 -126
-77 -6 6 -12 6 -17 -1 -3 -6 -3 -11 2 -10 21 4 22 -3 7 -32 -9 -19 -14 -47
-12 -69 2 -21 0 -36 -4 -34 -5 3 -8 14 -8 25 0 10 -4 19 -9 19 -22 0 -41 34
-41 71 0 28 -4 39 -15 39 -10 0 -15 10 -15 28 0 15 -5 33 -12 40 -9 9 10 12
86 12 62 0 95 -4 91 -10z m655 -25 c54 -28 75 -98 45 -155 -22 -42 -53 -60
-106 -60 -40 0 -51 4 -73 31 -34 40 -41 72 -27 120 21 68 96 98 161 64z m-486
-15 c16 -6 26 -6 26 0 0 5 7 7 15 4 8 -4 15 -12 15 -20 0 -8 10 -14 23 -14 13
0 29 -6 36 -12 11 -11 13 -10 7 2 -4 8 -1 7 7 -3 15 -18 15 -18 20 0 3 10 5
-7 6 -38 1 -68 22 -130 59 -178 15 -20 34 -52 43 -72 9 -20 31 -46 48 -58 17
-13 28 -27 25 -33 -4 -6 -2 -8 3 -5 6 4 30 0 53 -8 50 -18 119 -19 154 -4 20
10 28 9 41 -5 9 -9 23 -16 31 -16 8 0 27 -12 41 -26 15 -15 38 -30 52 -34 27
-7 -273 -22 -319 -16 -14 2 -90 5 -170 6 -80 2 -128 5 -107 7 46 5 48 30 4 51
l-28 14 20 17 c12 10 21 20 21 23 0 3 -22 15 -50 28 -52 24 -64 40 -30 40 11
0 20 5 20 10 0 7 -20 10 -47 9 -27 -1 -63 1 -80 5 -27 6 -33 4 -33 -8 0 -9 -3
-16 -6 -16 -13 0 -76 71 -69 78 4 4 29 7 56 7 27 0 45 1 39 3 -5 2 4 15 21 29
17 15 35 38 40 52 12 30 1 131 -14 131 -23 0 -87 35 -87 47 0 16 76 18 114 3z
m-1600 -49 c3 -5 -2 -15 -11 -22 -12 -10 -14 -10 -9 -1 4 7 2 12 -6 12 -9 0
-9 3 2 10 18 12 18 12 24 1z m-160 -16 c-4 -8 -8 -15 -10 -15 -2 0 -4 7 -4 15
0 8 4 15 10 15 5 0 7 -7 4 -15z m61 5 c-3 -5 -12 -10 -18 -10 -7 0 -6 4 3 10
19 12 23 12 15 0z m61 -12 c5 -7 2 -9 -8 -5 -9 3 -21 0 -27 -6 -7 -7 -11 -7
-11 -1 0 24 33 33 46 12z m78 3 c3 -5 -3 -11 -13 -14 -14 -3 -18 -1 -14 9 6
16 19 18 27 5z m-108 -56 c-11 -8 -24 -15 -30 -15 -5 0 -1 7 10 15 10 8 24 14
29 14 6 0 1 -6 -9 -14z m-306 -15 c12 -8 11 -10 -7 -10 -13 0 -23 5 -23 10 0
13 11 13 30 0z m3142 -104 c-30 -64 -83 -131 -95 -119 -4 3 -13 1 -21 -6 -11
-9 -15 -8 -20 5 -4 12 -2 15 9 10 11 -4 15 1 15 17 1 63 28 87 64 58 18 -15
19 -15 13 1 -3 10 -2 20 3 23 6 4 10 14 10 23 -1 12 -5 10 -15 -8 -11 -21 -15
-22 -20 -8 -4 9 1 25 12 37 23 27 47 28 40 1 -8 -31 3 -23 15 11 6 16 13 28
15 25 3 -3 -8 -34 -25 -70z m-1402 29 c-7 -9 -15 -13 -19 -10 -3 3 1 10 9 15
21 14 24 12 10 -5z m66 -37 c3 -3 -7 -5 -21 -5 -14 0 -28 3 -30 7 -5 9 42 6
51 -2z m-1371 -38 c-3 -5 -12 -10 -18 -10 -7 0 -6 4 3 10 19 12 23 12 15 0z
m3101 -247 c5 -198 -5 -325 -26 -338 -4 -3 -11 12 -15 33 -4 20 -10 31 -12 25
-8 -21 -20 -15 -33 17 -7 17 -15 30 -19 30 -3 0 -7 18 -7 41 -1 24 -9 48 -18
57 -16 16 -17 16 -10 -3 6 -16 4 -18 -6 -8 -11 10 -8 20 13 53 39 57 73 139
98 231 12 44 23 78 26 75 2 -2 7 -98 9 -213z m-3093 190 c-7 -2 -19 -2 -25 0
-7 3 -2 5 12 5 14 0 19 -2 13 -5z m-1261 -43 c2 7 12 -9 23 -36 10 -27 29 -66
41 -86 13 -20 22 -43 20 -50 -1 -7 -1 -10 1 -6 8 14 112 -107 113 -129 0 -13
6 -23 13 -23 7 0 4 -7 -7 -15 -11 -8 -29 -12 -43 -9 -18 5 -23 2 -23 -14 0
-12 -11 -24 -31 -32 -17 -7 -37 -20 -46 -28 -13 -13 -18 -11 -44 18 -29 31
-31 32 -45 14 -14 -17 -14 -15 -9 31 3 28 2 78 -3 113 -8 59 2 139 20 157 4 4
5 12 4 18 -2 7 -1 9 1 4 9 -14 23 4 23 29 0 14 -4 22 -10 19 -5 -3 -10 -4 -10
-1 0 2 -3 13 -6 23 -4 13 -3 15 4 4 8 -10 10 -11 14 -1z m2858 -20 c0 -20 -1
-20 -27 -3 -16 9 -30 18 -32 20 -2 2 10 3 27 3 25 0 32 -4 32 -20z m-1522 -15
c-3 -3 -9 2 -12 12 -6 14 -5 15 5 6 7 -7 10 -15 7 -18z m-881 -111 c-3 -3 -12
-4 -19 -1 -8 3 -5 6 6 6 11 1 17 -2 13 -5z m-497 -207 c0 -5 -4 -5 -10 -2 -5
3 -10 14 -10 23 0 15 2 15 10 2 5 -8 10 -19 10 -23z m4347 -129 c-3 -8 -6 -5
-6 6 -1 11 2 17 5 13 3 -3 4 -12 1 -19z m-4360 -30 c-3 -8 -6 -5 -6 6 -1 11 2
17 5 13 3 -3 4 -12 1 -19z m1023 10 c0 -5 30 -6 68 -2 37 4 64 3 60 -1 -4 -4
-53 -8 -110 -9 l-103 -2 -3 -42 c-2 -23 -7 -42 -13 -42 -5 0 -9 5 -9 10 0 6
-18 10 -40 10 -45 0 -55 -17 -12 -22 l27 -3 -25 -25 c-22 -22 -25 -23 -28 -7
-3 13 -13 17 -43 17 -47 0 -53 17 -7 22 l32 3 -32 32 c-18 17 -32 36 -32 42 0
7 -34 12 -92 13 l-93 2 95 6 c141 10 360 9 360 -2z m378 5 c-15 -2 -42 -2 -60
0 -18 2 -6 4 27 4 33 0 48 -2 33 -4z m2158 -4 c-88 -4 -169 -3 -180 1 -12 5
53 8 159 8 l180 -1 -159 -8z m274 -3 c-24 -14 -40 -13 -40 2 0 4 15 9 33 10
l32 2 -25 -14z m60 10 c0 -3 -4 -8 -10 -11 -5 -3 -10 -1 -10 4 0 6 5 11 10 11
6 0 10 -2 10 -4z m-1427 -13 c-7 -2 -19 -2 -25 0 -7 3 -2 5 12 5 14 0 19 -2
13 -5z m1280 -10 c-7 -2 -19 -2 -25 0 -7 3 -2 5 12 5 14 0 19 -2 13 -5z m612
-13 c3 -6 -1 -7 -9 -4 -18 7 -21 14 -7 14 6 0 13 -4 16 -10z m-3684 -100 c78
0 79 0 79 -25 0 -16 6 -25 16 -25 14 0 15 -11 9 -84 -7 -83 -7 -84 16 -89 13
-2 -103 -5 -258 -6 -197 -1 -284 2 -289 10 -4 8 1 9 16 4 15 -5 27 -1 41 14
11 12 25 21 31 21 6 0 26 11 44 25 20 15 46 25 66 25 26 0 36 6 51 31 9 17 17
36 17 43 0 7 17 31 38 52 30 33 38 37 40 22 3 -16 14 -18 83 -18z m1848 31 c9
-6 10 -11 2 -15 -6 -4 -11 -3 -11 3 0 5 -19 12 -42 14 l-43 4 40 1 c22 1 46
-2 54 -7z m-123 -116 c19 -18 34 -41 34 -50 0 -11 10 -15 39 -15 30 0 46 -7
69 -30 35 -35 52 -38 52 -10 0 12 7 20 18 20 9 0 23 9 30 20 14 24 32 26 32 5
0 -19 24 -19 42 -1 15 14 118 11 118 -4 0 -4 34 -10 75 -13 56 -4 80 -10 96
-26 16 -15 36 -21 65 -21 24 0 46 -4 49 -10 4 -7 -320 -9 -967 -8 -535 1 -955
3 -934 5 25 3 35 7 27 12 -9 6 -2 15 23 30 20 12 40 19 46 16 6 -4 44 -3 85 0
54 5 75 11 75 21 0 19 13 18 52 -5 19 -11 64 -22 108 -26 41 -4 77 -11 81 -16
3 -5 20 -3 39 4 26 9 34 9 37 0 3 -9 27 -12 81 -11 l77 2 -72 3 c-44 3 -73 8
-73 15 0 7 17 9 53 4 28 -3 63 -6 75 -6 38 0 20 -24 -24 -31 -21 -4 48 -6 154
-5 l193 1 12 28 c10 22 18 27 49 27 32 0 37 -3 40 -27 2 -22 8 -27 31 -28 15
-1 27 2 27 6 0 4 -18 26 -40 48 -32 32 -40 48 -40 76 0 46 22 46 66 0z m114
25 c0 -5 -18 -10 -40 -10 -22 0 -40 5 -40 10 0 6 18 10 40 10 22 0 40 -4 40
-10z m1560 -32 c30 -1 65 2 77 6 18 6 22 4 17 -8 -5 -13 -2 -15 12 -9 17 6 17
5 -1 -14 -22 -24 -106 -61 -209 -92 -55 -17 -92 -21 -195 -20 -78 1 -117 4
-101 9 14 4 40 8 58 9 30 1 32 3 32 40 0 33 4 39 24 43 19 4 26 0 28 -15 3
-19 4 -20 20 -4 9 9 21 17 27 17 6 0 11 9 11 20 0 17 7 20 40 20 33 0 40 3 40
20 0 19 0 19 33 0 20 -12 55 -20 87 -22z m-1497 -35 c-13 -2 -33 -2 -45 0 -13
2 -3 4 22 4 25 0 35 -2 23 -4z m-2443 -37 c0 -3 -4 -8 -10 -11 -5 -3 -10 -1
-10 4 0 6 5 11 10 11 6 0 10 -2 10 -4z m2915 -26 c3 -5 1 -10 -4 -10 -6 0 -11
5 -11 10 0 6 2 10 4 10 3 0 8 -4 11 -10z m-2152 -37 c-13 -2 -33 -2 -45 0 -13
2 -3 4 22 4 25 0 35 -2 23 -4z m2305 0 c-10 -2 -26 -2 -35 0 -10 3 -2 5 17 5
19 0 27 -2 18 -5z"/>
<path d="M10378 14473 c7 -3 16 -2 19 1 4 3 -2 6 -13 5 -11 0 -14 -3 -6 -6z"/>
<path d="M9122 14320 c-29 -4 -56 -11 -59 -14 -7 -7 73 2 127 14 46 11 4 10
-68 0z"/>
<path d="M9235 14270 c3 -5 16 -10 28 -10 18 0 19 2 7 10 -20 13 -43 13 -35 0z"/>
<path d="M9208 14253 c7 -3 16 -2 19 1 4 3 -2 6 -13 5 -11 0 -14 -3 -6 -6z"/>
<path d="M8040 14176 c0 -2 11 -6 25 -8 14 -3 25 -1 25 3 0 5 -11 9 -25 9 -14
0 -25 -2 -25 -4z"/>
<path d="M7973 14163 c9 -2 15 -8 13 -12 -3 -4 0 -8 7 -9 7 -1 26 -4 42 -7 28
-5 28 -4 -3 5 -18 6 -30 15 -27 20 4 6 -6 9 -22 9 -17 -1 -21 -3 -10 -6z"/>
<path d="M7900 14150 c0 -12 8 -12 35 0 18 8 17 9 -7 9 -16 1 -28 -3 -28 -9z"/>
<path d="M7823 14143 c9 -2 23 -2 30 0 6 3 -1 5 -18 5 -16 0 -22 -2 -12 -5z"/>
<path d="M7888 14113 c7 -3 16 -2 19 1 4 3 -2 6 -13 5 -11 0 -14 -3 -6 -6z"/>
<path d="M7172 13750 c0 -14 2 -19 5 -12 2 6 2 18 0 25 -3 6 -5 1 -5 -13z"/>
<path d="M7160 13670 c0 -11 2 -20 4 -20 2 0 6 9 9 20 3 11 1 20 -4 20 -5 0
-9 -9 -9 -20z"/>
<path d="M7191 13674 c0 -11 3 -14 6 -6 3 7 2 16 -1 19 -3 4 -6 -2 -5 -13z"/>
<path d="M7151 13614 c0 -11 3 -14 6 -6 3 7 2 16 -1 19 -3 4 -6 -2 -5 -13z"/>
<path d="M7152 13435 l2 -120 6 100 c3 55 2 109 -2 120 -4 11 -6 -34 -6 -100z"/>
<path d="M7150 12700 c-3 -36 -2 -119 1 -185 l5 -120 4 90 c2 61 5 75 7 43 4
-44 6 -48 29 -48 14 0 33 -7 42 -16 11 -11 17 -13 20 -5 2 6 8 9 13 5 5 -3 9
0 9 6 0 7 -9 9 -22 6 -13 -3 -17 -3 -10 0 6 3 12 23 12 45 0 21 5 39 10 39 22
0 8 18 -27 34 -40 18 -63 53 -63 95 0 20 -3 22 -9 12 -7 -11 -11 -4 -13 25 -3
30 -4 25 -8 -26z"/>
<path d="M7230 12380 c0 -5 5 -10 11 -10 5 0 7 5 4 10 -3 6 -8 10 -11 10 -2 0
-4 -4 -4 -10z"/>
<path d="M7153 12255 c0 -38 1 -62 4 -52 2 9 9 15 14 12 5 -4 9 1 9 9 0 9 -4
16 -9 16 -6 0 -12 19 -14 43 -2 25 -4 14 -4 -28z"/>
<path d="M7212 12254 c-7 -8 -8 -14 -3 -14 10 0 25 19 20 25 -2 1 -10 -3 -17
-11z"/>
<path d="M7153 11965 c0 -22 2 -30 4 -17 2 12 2 30 0 40 -3 9 -5 -1 -4 -23z"/>
<path d="M7147 11768 c-9 -167 -8 -220 3 -190 5 12 16 22 24 22 9 0 15 14 18
45 3 39 1 44 -14 39 -10 -3 -18 -1 -18 4 0 6 5 12 12 14 9 3 9 12 0 38 -15 41
-16 100 -2 100 15 0 12 26 -3 39 -12 9 -15 -10 -20 -111z"/>
<path d="M7143 11265 c0 -66 2 -106 5 -90 5 30 5 30 12 5 4 -16 7 -2 6 37 -1
35 -4 63 -8 63 -4 0 -9 24 -11 53 -2 28 -3 -2 -4 -68z"/>
<path d="M7182 11275 c0 -68 15 -151 17 -97 1 31 9 28 52 -18 21 -22 42 -40
48 -40 18 0 13 98 -6 131 -10 16 -21 29 -26 29 -11 0 -62 -51 -70 -70 -4 -8
-4 5 -1 30 2 25 0 59 -5 75 -8 25 -9 18 -9 -40z"/>
<path d="M7143 11060 c0 -36 2 -50 4 -32 2 17 2 47 0 65 -2 17 -4 3 -4 -33z"/>
<path d="M7360 11052 c0 -5 7 -9 15 -9 8 0 12 4 9 9 -3 4 -9 8 -15 8 -5 0 -9
-4 -9 -8z"/>
<path d="M7142 10905 c0 -16 2 -22 5 -12 2 9 2 23 0 30 -3 6 -5 -1 -5 -18z"/>
<path d="M11445 14480 c-3 -6 1 -7 9 -4 18 7 21 14 7 14 -6 0 -13 -4 -16 -10z"/>
<path d="M11343 14305 c0 -8 4 -12 9 -9 5 3 6 10 3 15 -9 13 -12 11 -12 -6z"/>
<path d="M10625 14130 c27 -12 35 -12 35 0 0 6 -12 10 -27 9 -25 0 -26 -1 -8
-9z"/>
<path d="M11058 14133 c7 -3 16 -2 19 1 4 3 -2 6 -13 5 -11 0 -14 -3 -6 -6z"/>
<path d="M11085 14120 c-3 -5 -1 -10 4 -10 6 0 11 5 11 10 0 6 -2 10 -4 10 -3
0 -8 -4 -11 -10z"/>
<path d="M9533 14013 c9 -2 23 -2 30 0 6 3 -1 5 -18 5 -16 0 -22 -2 -12 -5z"/>
<path d="M9443 14003 c9 -2 23 -2 30 0 6 3 -1 5 -18 5 -16 0 -22 -2 -12 -5z"/>
<path d="M9530 13950 c0 -5 10 -10 23 -10 18 0 19 2 7 10 -19 13 -30 13 -30 0z"/>
<path d="M8568 13903 c6 -2 18 -2 25 0 6 3 1 5 -13 5 -14 0 -19 -2 -12 -5z"/>
<path d="M8213 13863 c9 -2 25 -2 35 0 9 3 1 5 -18 5 -19 0 -27 -2 -17 -5z"/>
<path d="M8138 13853 c12 -2 30 -2 40 0 9 3 -1 5 -23 4 -22 0 -30 -2 -17 -4z"/>
<path d="M7555 13671 c-6 -11 9 -23 19 -14 9 9 7 23 -3 23 -6 0 -12 -4 -16 -9z"/>
<path d="M9950 13676 c0 -2 7 -7 16 -10 8 -3 12 -2 9 4 -6 10 -25 14 -25 6z"/>
<path d="M9780 13660 c-9 -6 -10 -10 -3 -10 6 0 15 5 18 10 8 12 4 12 -15 0z"/>
<path d="M8637 13646 c-50 -18 -74 -41 -82 -77 -9 -39 13 -81 53 -101 27 -13
30 -17 15 -21 -12 -3 -9 -5 9 -6 15 0 30 -5 33 -11 8 -13 25 -13 25 1 0 5 -3
8 -7 6 -5 -3 -14 1 -21 9 -11 12 -10 14 5 15 24 2 25 2 48 -6 16 -6 17 -5 5 4
-13 9 -13 11 3 11 9 0 17 5 17 11 0 6 -7 8 -17 5 -15 -6 -15 -5 1 13 26 29 25
85 -3 115 l-23 25 23 -6 c13 -3 21 -2 17 2 -4 4 -21 8 -38 7 -17 0 -28 4 -25
9 7 11 9 11 -38 -5z"/>
<path d="M8785 13640 c3 -5 8 -10 11 -10 2 0 4 5 4 10 0 6 -5 10 -11 10 -5 0
-7 -4 -4 -10z"/>
<path d="M7566 13622 c-3 -5 1 -9 9 -9 8 0 12 4 9 9 -3 4 -7 8 -9 8 -2 0 -6
-4 -9 -8z"/>
<path d="M7510 13598 c-12 -22 -12 -22 6 -6 10 10 15 20 12 24 -4 3 -12 -5
-18 -18z"/>
<path d="M8776 13603 c-6 -14 -5 -15 5 -6 7 7 10 15 7 18 -3 3 -9 -2 -12 -12z"/>
<path d="M10015 13590 c3 -5 8 -10 11 -10 2 0 4 5 4 10 0 6 -5 10 -11 10 -5 0
-7 -4 -4 -10z"/>
<path d="M7723 13557 c-100 -20 -114 -135 -21 -181 36 -18 52 -20 43 -6 -3 6
1 10 9 10 8 0 27 11 43 24 40 35 39 96 -2 134 -27 25 -34 27 -72 19z"/>
<path d="M8756 13523 c-6 -14 -5 -15 5 -6 7 7 10 15 7 18 -3 3 -9 -2 -12 -12z"/>
<path d="M8785 13530 c-3 -5 -1 -18 4 -27 9 -15 10 -14 9 10 -3 30 -4 32 -13
17z"/>
<path d="M7503 13485 c-15 -16 -18 -49 -4 -41 5 4 11 0 14 -6 2 -7 5 4 5 25 0
20 -1 37 -1 37 -1 -1 -8 -7 -14 -15z"/>
<path d="M10166 13453 c-6 -14 -5 -15 5 -6 7 7 10 15 7 18 -3 3 -9 -2 -12 -12z"/>
<path d="M7930 13439 c0 -5 5 -7 10 -4 6 3 10 8 10 11 0 2 -4 4 -10 4 -5 0
-10 -5 -10 -11z"/>
<path d="M9995 13440 c-3 -6 1 -7 9 -4 18 7 21 14 7 14 -6 0 -13 -4 -16 -10z"/>
<path d="M9944 13394 c-18 -14 -18 -14 6 -3 31 14 36 19 24 19 -6 0 -19 -7
-30 -16z"/>
<path d="M10035 13401 c-6 -5 -19 -11 -30 -14 -19 -4 -19 -5 1 -6 12 0 27 6
34 14 14 16 10 20 -5 6z"/>
<path d="M7991 13294 c-13 -9 -29 -32 -37 -50 -12 -29 -12 -39 0 -68 8 -19 12
-37 10 -40 -2 -3 -1 -4 2 -2 3 2 20 0 39 -5 21 -6 43 -6 61 2 16 6 31 10 33 9
2 -1 10 11 18 27 9 18 12 42 9 68 -3 22 -6 49 -6 60 -1 12 -4 15 -8 8 -5 -8
-13 -9 -22 -3 -23 15 -73 12 -99 -6z"/>
<path d="M8236 13201 c-10 -15 -2 -61 10 -61 25 0 33 25 14 48 -10 12 -21 18
-24 13z"/>
<path d="M8298 13003 c7 -3 16 -2 19 1 4 3 -2 6 -13 5 -11 0 -14 -3 -6 -6z"/>
<path d="M10706 13767 c3 -10 9 -15 12 -12 3 3 0 11 -7 18 -10 9 -11 8 -5 -6z"/>
<path d="M10741 13584 c0 -11 3 -14 6 -6 3 7 2 16 -1 19 -3 4 -6 -2 -5 -13z"/>
<path d="M11393 12833 c-44 -22 -41 -33 7 -33 36 0 40 3 40 25 0 29 -4 29 -47
8z"/>
<path d="M11271 12804 c0 -11 3 -14 6 -6 3 7 2 16 -1 19 -3 4 -6 -2 -5 -13z"/>
<path d="M10948 12663 c12 -2 32 -2 45 0 12 2 2 4 -23 4 -25 0 -35 -2 -22 -4z"/>
<path d="M9423 12523 c9 -2 23 -2 30 0 6 3 -1 5 -18 5 -16 0 -22 -2 -12 -5z"/>
<path d="M10960 12495 c0 -8 7 -15 16 -15 14 0 14 3 4 15 -7 8 -14 15 -16 15
-2 0 -4 -7 -4 -15z"/>
<path d="M8450 12436 c0 -2 14 -6 30 -8 17 -3 30 -1 30 4 0 4 -13 8 -30 8 -16
0 -30 -2 -30 -4z"/>
<path d="M7750 12339 c0 -5 -4 -7 -10 -4 -5 3 -17 2 -26 -3 -11 -6 -13 -11 -5
-16 6 -4 11 -3 11 2 0 6 6 10 13 9 41 -1 67 4 62 13 -8 13 -45 13 -45 -1z"/>
<path d="M8676 12219 c6 -11 31 -12 37 -1 3 4 -6 8 -19 8 -13 1 -21 -2 -18 -7z"/>
<path d="M8595 12200 c-3 -5 -2 -10 4 -10 5 0 13 5 16 10 3 6 2 10 -4 10 -5 0
-13 -4 -16 -10z"/>
<path d="M7704 11830 c-31 -12 -64 -59 -64 -90 0 -31 41 -77 76 -86 49 -12
107 39 118 106 4 22 3 30 -3 21 -7 -11 -10 -9 -16 8 -6 21 -53 52 -77 50 -7 0
-23 -4 -34 -9z"/>
<path d="M7420 11591 c0 -11 4 -22 9 -25 4 -3 6 6 3 19 -5 30 -12 33 -12 6z"/>
<path d="M8045 12150 c3 -5 8 -10 11 -10 2 0 4 5 4 10 0 6 -5 10 -11 10 -5 0
-7 -4 -4 -10z"/>
<path d="M7926 12128 c3 -5 10 -6 15 -3 13 9 11 12 -6 12 -8 0 -12 -4 -9 -9z"/>
<path d="M8455 11980 c-3 -5 -1 -10 4 -10 6 0 11 5 11 10 0 6 -2 10 -4 10 -3
0 -8 -4 -11 -10z"/>
<path d="M8648 11573 c7 -3 16 -2 19 1 4 3 -2 6 -13 5 -11 0 -14 -3 -6 -6z"/>
<path d="M8538 11563 c7 -3 16 -2 19 1 4 3 -2 6 -13 5 -11 0 -14 -3 -6 -6z"/>
<path d="M8756 12133 c-6 -14 -5 -15 5 -6 7 7 10 15 7 18 -3 3 -9 -2 -12 -12z"/>
<path d="M10945 11800 c-3 -5 -1 -10 4 -10 6 0 11 5 11 10 0 6 -2 10 -4 10 -3
0 -8 -4 -11 -10z"/>
<path d="M10605 11771 c-6 -5 -19 -11 -30 -14 -20 -5 -19 -5 1 -6 11 0 29 6
40 14 10 8 14 15 9 15 -6 0 -15 -4 -20 -9z"/>
<path d="M10773 11733 c9 -2 25 -2 35 0 9 3 1 5 -18 5 -19 0 -27 -2 -17 -5z"/>
<path d="M11030 11140 c-11 -8 -7 -9 14 -4 21 5 27 4 22 -5 -8 -13 3 -14 22
-2 10 6 8 10 -10 14 -30 9 -30 9 -48 -3z"/>
<path d="M10063 11093 c9 -2 25 -2 35 0 9 3 1 5 -18 5 -19 0 -27 -2 -17 -5z"/>
<path d="M10158 11078 c5 -5 16 -8 23 -6 8 3 3 7 -10 11 -17 4 -21 3 -13 -5z"/>
<path d="M9788 11073 c18 -2 45 -2 60 0 15 2 0 4 -33 4 -33 0 -45 -2 -27 -4z"/>
<path d="M9778 11053 c7 -3 16 -2 19 1 4 3 -2 6 -13 5 -11 0 -14 -3 -6 -6z"/>
<path d="M9048 10983 c7 -3 16 -2 19 1 4 3 -2 6 -13 5 -11 0 -14 -3 -6 -6z"/>
<path d="M10800 10962 c0 -31 2 -32 40 -32 29 0 40 4 40 15 0 9 -9 15 -22 15
-12 0 -30 7 -40 17 -17 15 -18 14 -18 -15z"/>
<path d="M9920 10955 c0 -26 0 -26 24 -8 27 20 25 33 -5 33 -14 0 -19 -7 -19
-25z"/>
<path d="M8358 10963 c12 -2 30 -2 40 0 9 3 -1 5 -23 4 -22 0 -30 -2 -17 -4z"/>
<path d="M8560 10890 c0 -5 7 -10 15 -10 8 0 15 5 15 10 0 6 -7 10 -15 10 -8
0 -15 -4 -15 -10z"/>
<path d="M10610 10856 c7 -7 13 -7 20 0 6 6 3 10 -10 10 -13 0 -16 -4 -10 -10z"/>
<path d="M10705 10790 c3 -5 8 -10 11 -10 2 0 4 5 4 10 0 6 -5 10 -11 10 -5 0
-7 -4 -4 -10z"/>
<path d="M7746 10708 c3 -5 10 -6 15 -3 13 9 11 12 -6 12 -8 0 -12 -4 -9 -9z"/>
<path d="M8614 10701 c-59 -25 -72 -105 -25 -152 59 -58 142 -24 160 65 12 58
-73 113 -135 87z"/>
<path d="M7703 10655 c-17 -7 -39 -28 -48 -45 -48 -93 71 -176 146 -101 45 46
35 117 -20 146 -36 18 -37 18 -78 0z"/>
<path d="M8785 10620 c3 -5 8 -10 11 -10 2 0 4 5 4 10 0 6 -5 10 -11 10 -5 0
-7 -4 -4 -10z"/>
<path d="M7482 10590 c0 -14 2 -19 5 -12 2 6 2 18 0 25 -3 6 -5 1 -5 -13z"/>
<path d="M7441 10553 c-30 -111 -41 -233 -21 -233 6 0 10 8 10 18 0 9 14 28
30 42 17 14 30 34 30 48 0 12 7 25 15 28 8 4 15 12 15 20 0 8 -6 11 -15 8 -8
-4 -15 -1 -15 6 0 6 7 18 15 26 23 23 16 57 -9 42 -2 -2 -13 5 -24 15 -20 19
-21 18 -31 -20z"/>
<path d="M7615 10259 c-4 -5 -4 -13 -1 -16 3 -4 6 0 6 8 0 11 2 11 10 -1 6 -9
10 -10 10 -3 0 17 -17 25 -25 12z"/>
<path d="M7412 10210 c0 -19 2 -27 5 -17 2 9 2 25 0 35 -3 9 -5 1 -5 -18z"/>
<path d="M7619 10217 c-13 -10 -14 -14 -3 -25 8 -7 15 -8 19 -2 3 6 1 10 -5
10 -6 0 -8 5 -5 10 4 6 11 7 17 4 7 -4 8 -2 4 4 -9 14 -7 14 -27 -1z"/>
<path d="M7420 10133 c0 -13 5 -23 10 -23 13 0 13 11 0 30 -8 12 -10 11 -10
-7z"/>
<path d="M11138 10492 c-3 -9 -2 -26 2 -37 6 -15 8 -10 8 18 0 40 -3 47 -10
19z"/>
<path d="M9776 10418 c3 -5 10 -6 15 -3 13 9 11 12 -6 12 -8 0 -12 -4 -9 -9z"/>
<path d="M9000 10230 c0 -5 7 -7 15 -4 8 4 15 8 15 10 0 2 -7 4 -15 4 -8 0
-15 -4 -15 -10z"/>
<path d="M9348 10223 c7 -3 16 -2 19 1 4 3 -2 6 -13 5 -11 0 -14 -3 -6 -6z"/>
<path d="M9540 9860 c0 -5 7 -7 15 -4 8 4 15 8 15 10 0 2 -7 4 -15 4 -8 0 -15
-4 -15 -10z"/>
<path d="M8347 9377 c-3 -8 1 -14 8 -14 7 0 11 6 8 14 -3 7 -6 13 -8 13 -2 0
-5 -6 -8 -13z"/>
<path d="M8330 9340 c0 -5 5 -10 10 -10 6 0 10 5 10 10 0 6 -4 10 -10 10 -5 0
-10 -4 -10 -10z"/>
<path d="M8381 9294 c0 -11 3 -14 6 -6 3 7 2 16 -1 19 -3 4 -6 -2 -5 -13z"/>
<path d="M8480 9265 c0 -8 2 -15 4 -15 2 0 6 7 10 15 3 8 1 15 -4 15 -6 0 -10
-7 -10 -15z"/>
<path d="M8553 8855 c0 -27 2 -38 4 -22 2 15 2 37 0 50 -2 12 -4 0 -4 -28z"/>
<path d="M8579 8770 c-5 -69 -3 -82 10 -61 7 11 10 11 14 0 3 -8 6 10 6 39 1
28 -3 52 -8 52 -5 0 -11 8 -14 18 -2 9 -6 -12 -8 -48z"/>
<path d="M8570 8650 c0 -5 5 -10 10 -10 6 0 10 5 10 10 0 6 -4 10 -10 10 -5 0
-10 -4 -10 -10z"/>
<path d="M8705 9701 c-3 -5 -1 -12 5 -16 5 -3 10 1 10 9 0 18 -6 21 -15 7z"/>
<path d="M9934 9539 c1 -7 9 -13 18 -15 11 -1 15 3 11 13 -4 11 -8 12 -13 3
-6 -9 -9 -9 -13 -1 -4 8 -5 8 -3 0z"/>
<path d="M9120 9580 c0 -5 5 -10 11 -10 5 0 7 5 4 10 -3 6 -8 10 -11 10 -2 0
-4 -4 -4 -10z"/>
<path d="M9155 9560 c3 -5 8 -10 11 -10 2 0 4 5 4 10 0 6 -5 10 -11 10 -5 0
-7 -4 -4 -10z"/>
<path d="M9251 9501 c-10 -6 -9 -10 3 -14 8 -3 18 -2 21 3 8 13 -9 20 -24 11z"/>
<path d="M9295 9481 c-3 -5 -1 -12 5 -16 5 -3 10 1 10 9 0 18 -6 21 -15 7z"/>
<path d="M9663 9265 c0 -8 4 -12 9 -9 5 3 6 10 3 15 -9 13 -12 11 -12 -6z"/>
<path d="M9700 9230 c0 -5 5 -10 11 -10 5 0 7 5 4 10 -3 6 -8 10 -11 10 -2 0
-4 -4 -4 -10z"/>
<path d="M11440 7870 c0 -5 5 -10 10 -10 6 0 10 5 10 10 0 6 -4 10 -10 10 -5
0 -10 -4 -10 -10z"/>
<path d="M10000 7833 c1 -18 18 -35 24 -24 4 6 4 11 -1 12 -4 0 1 4 12 9 18 8
17 9 -7 9 -16 1 -28 -2 -28 -6z"/>
<path d="M10350 7710 c0 -7 21 -9 63 -4 83 9 85 14 4 14 -40 0 -67 -4 -67 -10z"/>
<path d="M8675 7699 c-9 -14 -2 -20 14 -10 8 6 9 11 3 15 -6 3 -14 1 -17 -5z"/>
<path d="M7873 7680 c-82 -6 -113 -13 -165 -37 -68 -33 -161 -109 -155 -127 2
-6 0 -19 -5 -30 -7 -13 -7 -16 1 -12 15 10 14 -7 -1 -24 -7 -8 -3 -7 8 3 19
16 22 16 27 2 4 -8 3 -15 -2 -15 -5 0 -11 -18 -15 -40 -6 -37 -11 -42 -41 -40
-3 1 -13 -7 -22 -16 -11 -11 -18 -13 -21 -5 -2 6 -9 11 -17 11 -14 0 -39 -91
-50 -183 -9 -74 4 -242 16 -209 5 12 6 28 3 36 -4 10 2 12 20 9 23 -5 26 -2
26 21 0 15 7 37 15 50 13 19 14 32 5 72 -9 40 -8 49 4 56 33 18 46 41 46 78 0
30 4 40 20 45 12 4 27 2 34 -4 16 -14 27 7 21 39 -2 11 0 18 6 15 5 -4 9 -19
9 -35 0 -16 11 -42 26 -59 33 -40 89 -43 131 -7 22 19 27 32 28 70 0 25 4 46
8 46 5 0 5 5 2 10 -3 6 1 10 9 10 9 0 16 4 16 9 0 5 6 9 13 8 32 -1 60 4 54 9
-3 4 5 21 18 39 14 17 22 35 18 38 -3 4 6 7 21 7 17 0 39 12 61 35 l35 34 -36
36 c-19 19 -39 33 -44 30 -4 -3 -6 4 -3 15 4 13 1 19 -8 19 -8 -1 -60 -5 -116
-9z m47 -215 c0 -8 -7 -15 -16 -15 -14 0 -14 3 -4 15 7 8 14 15 16 15 2 0 4
-7 4 -15z m-233 -41 c-3 -3 -12 -4 -19 -1 -8 3 -5 6 6 6 11 1 17 -2 13 -5z
m-67 -29 c-7 -9 -15 -13 -19 -10 -3 3 1 10 9 15 21 14 24 12 10 -5z m-135 -95
c3 -5 1 -10 -4 -10 -6 0 -11 5 -11 10 0 6 2 10 4 10 3 0 8 -4 11 -10z m30 -10
c3 -5 1 -10 -4 -10 -6 0 -11 5 -11 10 0 6 2 10 4 10 3 0 8 -4 11 -10z"/>
<path d="M8825 7630 c-3 -6 1 -7 9 -4 18 7 21 14 7 14 -6 0 -13 -4 -16 -10z"/>
<path d="M8066 7505 c4 -8 8 -15 10 -15 2 0 4 7 4 15 0 8 -4 15 -10 15 -5 0
-7 -7 -4 -15z"/>
<path d="M10325 7510 c-3 -6 1 -7 9 -4 18 7 21 14 7 14 -6 0 -13 -4 -16 -10z"/>
<path d="M7519 7479 c-17 -24 -19 -33 -9 -42 10 -9 11 -9 6 1 -4 6 2 26 14 42
12 17 19 30 16 30 -2 0 -14 -14 -27 -31z"/>
<path d="M7485 7419 c-4 -6 -5 -12 -2 -15 2 -3 7 2 10 11 7 17 1 20 -8 4z"/>
<path d="M7466 7381 c-4 -7 -5 -15 -2 -18 9 -9 19 4 14 18 -4 11 -6 11 -12 0z"/>
<path d="M7995 7220 c-3 -6 1 -7 9 -4 18 7 21 14 7 14 -6 0 -13 -4 -16 -10z"/>
<path d="M8765 7180 c3 -5 8 -10 11 -10 2 0 4 5 4 10 0 6 -5 10 -11 10 -5 0
-7 -4 -4 -10z"/>
<path d="M7683 7140 c-36 -22 -48 -54 -39 -103 4 -17 7 -42 8 -54 1 -14 6 -19
13 -13 13 10 67 1 59 -11 -3 -5 -1 -9 5 -9 5 0 13 5 16 11 4 6 14 8 22 5 8 -4
11 -2 7 5 -4 7 1 9 15 4 16 -5 20 -3 15 9 -3 9 0 18 7 21 18 7 21 58 7 93 -6
15 -10 33 -9 39 1 8 -5 10 -15 6 -10 -3 -15 -2 -12 3 12 18 -67 14 -99 -6z"/>
<path d="M7490 6975 c0 -8 7 -15 15 -15 8 0 15 7 15 15 0 8 -7 15 -15 15 -8 0
-15 -7 -15 -15z"/>
<path d="M8766 6968 c3 -5 10 -6 15 -3 13 9 11 12 -6 12 -8 0 -12 -4 -9 -9z"/>
<path d="M7431 6893 c-1 -13 3 -23 8 -23 5 0 7 -10 5 -22 -2 -13 -1 -16 2 -8
4 8 12 18 18 22 8 5 7 8 -2 8 -7 0 -17 10 -22 23 l-9 22 0 -22z"/>
<path d="M7600 6820 c0 -21 15 -27 25 -10 3 6 1 10 -5 10 -6 0 -8 5 -5 10 3 6
1 10 -4 10 -6 0 -11 -9 -11 -20z"/>
<path d="M10660 7415 c0 -15 27 -38 47 -41 11 -2 11 1 3 11 -6 7 -9 18 -8 25
2 7 -7 13 -19 15 -13 1 -23 -4 -23 -10z"/>
<path d="M10275 6910 c-4 -6 1 -7 11 -3 13 5 16 3 11 -10 -5 -14 -3 -15 13 -4
18 11 19 12 2 19 -24 10 -30 9 -37 -2z"/>
<path d="M10240 6884 c0 -8 5 -12 10 -9 6 4 8 11 5 16 -9 14 -15 11 -15 -7z"/>
<path d="M11480 6701 c0 -5 5 -13 10 -16 6 -3 10 -2 10 4 0 5 -4 13 -10 16 -5
3 -10 2 -10 -4z"/>
<path d="M11472 6654 c-7 -8 -8 -14 -3 -14 10 0 25 19 20 25 -2 1 -10 -3 -17
-11z"/>
<path d="M7200 6632 c0 -71 0 -72 26 -72 26 0 26 1 22 51 -4 34 -12 58 -27 72
l-21 21 0 -72z"/>
<path d="M7301 6654 c0 -11 3 -14 6 -6 3 7 2 16 -1 19 -3 4 -6 -2 -5 -13z"/>
<path d="M8878 6073 c12 -2 30 -2 40 0 9 3 -1 5 -23 4 -22 0 -30 -2 -17 -4z"/>
<path d="M9598 6073 c7 -3 16 -2 19 1 4 3 -2 6 -13 5 -11 0 -14 -3 -6 -6z"/>
<path d="M11288 6173 c6 -2 10 -9 7 -14 -4 -5 1 -6 9 -3 24 9 19 24 -6 23 -13
0 -17 -3 -10 -6z"/>
<path d="M11180 6156 c0 -2 7 -7 16 -10 8 -3 12 -2 9 4 -6 10 -25 14 -25 6z"/>
</g>
</svg>
